M48
;DRILL file {KiCad 5.0.2+dfsg1-1} date Sun 03 Apr 2022 01:41:28 PM JST
;FORMAT={-:-/ absolute / inch / decimal}
FMAT,2
INCH,TZ
T1C0.0374
T2C0.0394
T3C0.0396
T4C0.1260
T5C0.0402
%
G90
G05
T1
X5.5709Y-3.4646
X5.6693Y-3.4646
X5.7677Y-3.4646
X6.063Y-3.4646
X6.1614Y-3.4646
X6.2598Y-3.4646
X4.9803Y-3.4646
X5.0787Y-3.4646
X5.1772Y-3.4646
X5.2756Y-3.4646
X4.8622Y-3.7795
X4.9606Y-3.7795
X5.0591Y-3.7795
X5.1575Y-3.7795
X5.2559Y-3.7795
T2
X5.8858Y-3.7795
X5.9843Y-3.7795
X6.2598Y-3.7795
X6.3583Y-3.7795
T3
X5.1969Y-3.0291
X5.1969Y-3.1472
X5.315Y-3.0291
X5.315Y-3.1472
X5.4331Y-3.0291
X5.4331Y-3.1472
X5.5512Y-3.0291
X5.5512Y-3.1472
X5.6693Y-3.0291
X5.6693Y-3.1472
X5.7874Y-3.0291
X5.7874Y-3.1472
X5.9055Y-3.0291
X5.9055Y-3.1472
X6.0236Y-3.0291
X6.0236Y-3.1472
T4
X4.8819Y-2.9528
X5.6102Y-3.7205
X6.3386Y-2.9528
T5
X5.0787Y-2.9921
X6.1417Y-2.9921
T0
M30
