%TF.GenerationSoftware,KiCad,Pcbnew,5.0.2+dfsg1-1*%
%TF.CreationDate,2022-04-03T13:41:23+09:00*%
%TF.ProjectId,toolhead-board,746f6f6c-6865-4616-942d-626f6172642e,rev?*%
%TF.SameCoordinates,Original*%
%TF.FileFunction,Legend,Top*%
%TF.FilePolarity,Positive*%
%FSLAX46Y46*%
G04 Gerber Fmt 4.6, Leading zero omitted, Abs format (unit mm)*
G04 Created by KiCad (PCBNEW 5.0.2+dfsg1-1) date Sun 03 Apr 2022 01:41:23 PM JST*
%MOMM*%
%LPD*%
G01*
G04 APERTURE LIST*
%ADD10C,0.150000*%
%ADD11C,0.200000*%
%ADD12C,0.120000*%
G04 APERTURE END LIST*
D10*
G36*
X162500000Y-89000000D02*
X162500000Y-88000000D01*
X162000000Y-88500000D01*
X162500000Y-89000000D01*
G37*
X162500000Y-89000000D02*
X162500000Y-88000000D01*
X162000000Y-88500000D01*
X162500000Y-89000000D01*
G36*
X150000000Y-89000000D02*
X150000000Y-88000000D01*
X149500000Y-88500000D01*
X150000000Y-89000000D01*
G37*
X150000000Y-89000000D02*
X150000000Y-88000000D01*
X149500000Y-88500000D01*
X150000000Y-89000000D01*
G36*
X137500000Y-90000000D02*
X137500000Y-89000000D01*
X137000000Y-89500000D01*
X137500000Y-90000000D01*
G37*
X137500000Y-90000000D02*
X137500000Y-89000000D01*
X137000000Y-89500000D01*
X137500000Y-90000000D01*
G36*
X137000000Y-98000000D02*
X137000000Y-97000000D01*
X136500000Y-97500000D01*
X137000000Y-98000000D01*
G37*
X137000000Y-98000000D02*
X137000000Y-97000000D01*
X136500000Y-97500000D01*
X137000000Y-98000000D01*
X162446428Y-86964285D02*
X162446428Y-87214285D01*
X162839285Y-87214285D02*
X162089285Y-87214285D01*
X162089285Y-86857142D01*
X162625000Y-86607142D02*
X162625000Y-86250000D01*
X162839285Y-86678571D02*
X162089285Y-86428571D01*
X162839285Y-86178571D01*
X162839285Y-85928571D02*
X162089285Y-85928571D01*
X162839285Y-85500000D01*
X162089285Y-85500000D01*
X162160714Y-85178571D02*
X162125000Y-85142857D01*
X162089285Y-85071428D01*
X162089285Y-84892857D01*
X162125000Y-84821428D01*
X162160714Y-84785714D01*
X162232142Y-84750000D01*
X162303571Y-84750000D01*
X162410714Y-84785714D01*
X162839285Y-85214285D01*
X162839285Y-84750000D01*
X149946428Y-86964285D02*
X149946428Y-87214285D01*
X150339285Y-87214285D02*
X149589285Y-87214285D01*
X149589285Y-86857142D01*
X150125000Y-86607142D02*
X150125000Y-86250000D01*
X150339285Y-86678571D02*
X149589285Y-86428571D01*
X150339285Y-86178571D01*
X150339285Y-85928571D02*
X149589285Y-85928571D01*
X150339285Y-85500000D01*
X149589285Y-85500000D01*
X150339285Y-84750000D02*
X150339285Y-85178571D01*
X150339285Y-84964285D02*
X149589285Y-84964285D01*
X149696428Y-85035714D01*
X149767857Y-85107142D01*
X149803571Y-85178571D01*
X137839285Y-88196428D02*
X137089285Y-88196428D01*
X137625000Y-87946428D01*
X137089285Y-87696428D01*
X137839285Y-87696428D01*
X137089285Y-87196428D02*
X137089285Y-87053571D01*
X137125000Y-86982142D01*
X137196428Y-86910714D01*
X137339285Y-86875000D01*
X137589285Y-86875000D01*
X137732142Y-86910714D01*
X137803571Y-86982142D01*
X137839285Y-87053571D01*
X137839285Y-87196428D01*
X137803571Y-87267857D01*
X137732142Y-87339285D01*
X137589285Y-87375000D01*
X137339285Y-87375000D01*
X137196428Y-87339285D01*
X137125000Y-87267857D01*
X137089285Y-87196428D01*
X137089285Y-86660714D02*
X137089285Y-86232142D01*
X137839285Y-86446428D02*
X137089285Y-86446428D01*
X137089285Y-85839285D02*
X137089285Y-85696428D01*
X137125000Y-85625000D01*
X137196428Y-85553571D01*
X137339285Y-85517857D01*
X137589285Y-85517857D01*
X137732142Y-85553571D01*
X137803571Y-85625000D01*
X137839285Y-85696428D01*
X137839285Y-85839285D01*
X137803571Y-85910714D01*
X137732142Y-85982142D01*
X137589285Y-86017857D01*
X137339285Y-86017857D01*
X137196428Y-85982142D01*
X137125000Y-85910714D01*
X137089285Y-85839285D01*
X137839285Y-84767857D02*
X137482142Y-85017857D01*
X137839285Y-85196428D02*
X137089285Y-85196428D01*
X137089285Y-84910714D01*
X137125000Y-84839285D01*
X137160714Y-84803571D01*
X137232142Y-84767857D01*
X137339285Y-84767857D01*
X137410714Y-84803571D01*
X137446428Y-84839285D01*
X137482142Y-84910714D01*
X137482142Y-85196428D01*
X137339285Y-96178571D02*
X136589285Y-96178571D01*
X136589285Y-95892857D01*
X136625000Y-95821428D01*
X136660714Y-95785714D01*
X136732142Y-95750000D01*
X136839285Y-95750000D01*
X136910714Y-95785714D01*
X136946428Y-95821428D01*
X136982142Y-95892857D01*
X136982142Y-96178571D01*
X137339285Y-95000000D02*
X136982142Y-95250000D01*
X137339285Y-95428571D02*
X136589285Y-95428571D01*
X136589285Y-95142857D01*
X136625000Y-95071428D01*
X136660714Y-95035714D01*
X136732142Y-95000000D01*
X136839285Y-95000000D01*
X136910714Y-95035714D01*
X136946428Y-95071428D01*
X136982142Y-95142857D01*
X136982142Y-95428571D01*
X136589285Y-94535714D02*
X136589285Y-94392857D01*
X136625000Y-94321428D01*
X136696428Y-94250000D01*
X136839285Y-94214285D01*
X137089285Y-94214285D01*
X137232142Y-94250000D01*
X137303571Y-94321428D01*
X137339285Y-94392857D01*
X137339285Y-94535714D01*
X137303571Y-94607142D01*
X137232142Y-94678571D01*
X137089285Y-94714285D01*
X136839285Y-94714285D01*
X136696428Y-94678571D01*
X136625000Y-94607142D01*
X136589285Y-94535714D01*
X136946428Y-93642857D02*
X136982142Y-93535714D01*
X137017857Y-93500000D01*
X137089285Y-93464285D01*
X137196428Y-93464285D01*
X137267857Y-93500000D01*
X137303571Y-93535714D01*
X137339285Y-93607142D01*
X137339285Y-93892857D01*
X136589285Y-93892857D01*
X136589285Y-93642857D01*
X136625000Y-93571428D01*
X136660714Y-93535714D01*
X136732142Y-93500000D01*
X136803571Y-93500000D01*
X136875000Y-93535714D01*
X136910714Y-93571428D01*
X136946428Y-93642857D01*
X136946428Y-93892857D01*
X136946428Y-93142857D02*
X136946428Y-92892857D01*
X137339285Y-92785714D02*
X137339285Y-93142857D01*
X136589285Y-93142857D01*
X136589285Y-92785714D01*
X161428571Y-91125000D02*
X161357142Y-91089285D01*
X161250000Y-91089285D01*
X161142857Y-91125000D01*
X161071428Y-91196428D01*
X161035714Y-91267857D01*
X161000000Y-91410714D01*
X161000000Y-91517857D01*
X161035714Y-91660714D01*
X161071428Y-91732142D01*
X161142857Y-91803571D01*
X161250000Y-91839285D01*
X161321428Y-91839285D01*
X161428571Y-91803571D01*
X161464285Y-91767857D01*
X161464285Y-91517857D01*
X161321428Y-91517857D01*
X161785714Y-91839285D02*
X161785714Y-91089285D01*
X162214285Y-91839285D01*
X162214285Y-91089285D01*
X162571428Y-91839285D02*
X162571428Y-91089285D01*
X162750000Y-91089285D01*
X162857142Y-91125000D01*
X162928571Y-91196428D01*
X162964285Y-91267857D01*
X163000000Y-91410714D01*
X163000000Y-91517857D01*
X162964285Y-91660714D01*
X162928571Y-91732142D01*
X162857142Y-91803571D01*
X162750000Y-91839285D01*
X162571428Y-91839285D01*
X157142857Y-91089285D02*
X157571428Y-91089285D01*
X157357142Y-91839285D02*
X157357142Y-91089285D01*
X157821428Y-91446428D02*
X158071428Y-91446428D01*
X158178571Y-91839285D02*
X157821428Y-91839285D01*
X157821428Y-91089285D01*
X158178571Y-91089285D01*
X158500000Y-91839285D02*
X158500000Y-91089285D01*
X158750000Y-91625000D01*
X159000000Y-91089285D01*
X159000000Y-91839285D01*
X159357142Y-91839285D02*
X159357142Y-91089285D01*
X159642857Y-91089285D01*
X159714285Y-91125000D01*
X159750000Y-91160714D01*
X159785714Y-91232142D01*
X159785714Y-91339285D01*
X159750000Y-91410714D01*
X159714285Y-91446428D01*
X159642857Y-91482142D01*
X159357142Y-91482142D01*
X151928571Y-91125000D02*
X151857142Y-91089285D01*
X151750000Y-91089285D01*
X151642857Y-91125000D01*
X151571428Y-91196428D01*
X151535714Y-91267857D01*
X151500000Y-91410714D01*
X151500000Y-91517857D01*
X151535714Y-91660714D01*
X151571428Y-91732142D01*
X151642857Y-91803571D01*
X151750000Y-91839285D01*
X151821428Y-91839285D01*
X151928571Y-91803571D01*
X151964285Y-91767857D01*
X151964285Y-91517857D01*
X151821428Y-91517857D01*
X152285714Y-91839285D02*
X152285714Y-91089285D01*
X152714285Y-91839285D01*
X152714285Y-91089285D01*
X153071428Y-91839285D02*
X153071428Y-91089285D01*
X153250000Y-91089285D01*
X153357142Y-91125000D01*
X153428571Y-91196428D01*
X153464285Y-91267857D01*
X153500000Y-91410714D01*
X153500000Y-91517857D01*
X153464285Y-91660714D01*
X153428571Y-91732142D01*
X153357142Y-91803571D01*
X153250000Y-91839285D01*
X153071428Y-91839285D01*
X147357142Y-91089285D02*
X147857142Y-91839285D01*
X147857142Y-91089285D02*
X147357142Y-91839285D01*
X147964285Y-91910714D02*
X148535714Y-91910714D01*
X148714285Y-91446428D02*
X148964285Y-91446428D01*
X149071428Y-91839285D02*
X148714285Y-91839285D01*
X148714285Y-91089285D01*
X149071428Y-91089285D01*
X149392857Y-91839285D02*
X149392857Y-91089285D01*
X149821428Y-91839285D01*
X149821428Y-91089285D01*
X150178571Y-91839285D02*
X150178571Y-91089285D01*
X150357142Y-91089285D01*
X150464285Y-91125000D01*
X150535714Y-91196428D01*
X150571428Y-91267857D01*
X150607142Y-91410714D01*
X150607142Y-91517857D01*
X150571428Y-91660714D01*
X150535714Y-91732142D01*
X150464285Y-91803571D01*
X150357142Y-91839285D01*
X150178571Y-91839285D01*
X158821428Y-83625000D02*
X159178571Y-83625000D01*
X158750000Y-83839285D02*
X159000000Y-83089285D01*
X159250000Y-83839285D01*
X156553571Y-83446428D02*
X156660714Y-83482142D01*
X156696428Y-83517857D01*
X156732142Y-83589285D01*
X156732142Y-83696428D01*
X156696428Y-83767857D01*
X156660714Y-83803571D01*
X156589285Y-83839285D01*
X156303571Y-83839285D01*
X156303571Y-83089285D01*
X156553571Y-83089285D01*
X156625000Y-83125000D01*
X156660714Y-83160714D01*
X156696428Y-83232142D01*
X156696428Y-83303571D01*
X156660714Y-83375000D01*
X156625000Y-83410714D01*
X156553571Y-83446428D01*
X156303571Y-83446428D01*
X154232142Y-83767857D02*
X154196428Y-83803571D01*
X154089285Y-83839285D01*
X154017857Y-83839285D01*
X153910714Y-83803571D01*
X153839285Y-83732142D01*
X153803571Y-83660714D01*
X153767857Y-83517857D01*
X153767857Y-83410714D01*
X153803571Y-83267857D01*
X153839285Y-83196428D01*
X153910714Y-83125000D01*
X154017857Y-83089285D01*
X154089285Y-83089285D01*
X154196428Y-83125000D01*
X154232142Y-83160714D01*
X141732142Y-83767857D02*
X141696428Y-83803571D01*
X141589285Y-83839285D01*
X141517857Y-83839285D01*
X141410714Y-83803571D01*
X141339285Y-83732142D01*
X141303571Y-83660714D01*
X141267857Y-83517857D01*
X141267857Y-83410714D01*
X141303571Y-83267857D01*
X141339285Y-83196428D01*
X141410714Y-83125000D01*
X141517857Y-83089285D01*
X141589285Y-83089285D01*
X141696428Y-83125000D01*
X141732142Y-83160714D01*
X144053571Y-83446428D02*
X144160714Y-83482142D01*
X144196428Y-83517857D01*
X144232142Y-83589285D01*
X144232142Y-83696428D01*
X144196428Y-83767857D01*
X144160714Y-83803571D01*
X144089285Y-83839285D01*
X143803571Y-83839285D01*
X143803571Y-83089285D01*
X144053571Y-83089285D01*
X144125000Y-83125000D01*
X144160714Y-83160714D01*
X144196428Y-83232142D01*
X144196428Y-83303571D01*
X144160714Y-83375000D01*
X144125000Y-83410714D01*
X144053571Y-83446428D01*
X143803571Y-83446428D01*
X146321428Y-83625000D02*
X146678571Y-83625000D01*
X146250000Y-83839285D02*
X146500000Y-83089285D01*
X146750000Y-83839285D01*
X133464285Y-83625000D02*
X133821428Y-83625000D01*
X133392857Y-83839285D02*
X133642857Y-83089285D01*
X133892857Y-83839285D01*
X134535714Y-83839285D02*
X134107142Y-83839285D01*
X134321428Y-83839285D02*
X134321428Y-83089285D01*
X134250000Y-83196428D01*
X134178571Y-83267857D01*
X134107142Y-83303571D01*
X130964285Y-83625000D02*
X131321428Y-83625000D01*
X130892857Y-83839285D02*
X131142857Y-83089285D01*
X131392857Y-83839285D01*
X131607142Y-83160714D02*
X131642857Y-83125000D01*
X131714285Y-83089285D01*
X131892857Y-83089285D01*
X131964285Y-83125000D01*
X132000000Y-83160714D01*
X132035714Y-83232142D01*
X132035714Y-83303571D01*
X132000000Y-83410714D01*
X131571428Y-83839285D01*
X132035714Y-83839285D01*
X126196428Y-83446428D02*
X126303571Y-83482142D01*
X126339285Y-83517857D01*
X126375000Y-83589285D01*
X126375000Y-83696428D01*
X126339285Y-83767857D01*
X126303571Y-83803571D01*
X126232142Y-83839285D01*
X125946428Y-83839285D01*
X125946428Y-83089285D01*
X126196428Y-83089285D01*
X126267857Y-83125000D01*
X126303571Y-83160714D01*
X126339285Y-83232142D01*
X126339285Y-83303571D01*
X126303571Y-83375000D01*
X126267857Y-83410714D01*
X126196428Y-83446428D01*
X125946428Y-83446428D01*
X126660714Y-83160714D02*
X126696428Y-83125000D01*
X126767857Y-83089285D01*
X126946428Y-83089285D01*
X127017857Y-83125000D01*
X127053571Y-83160714D01*
X127089285Y-83232142D01*
X127089285Y-83303571D01*
X127053571Y-83410714D01*
X126625000Y-83839285D01*
X127089285Y-83839285D01*
X128696428Y-83446428D02*
X128803571Y-83482142D01*
X128839285Y-83517857D01*
X128875000Y-83589285D01*
X128875000Y-83696428D01*
X128839285Y-83767857D01*
X128803571Y-83803571D01*
X128732142Y-83839285D01*
X128446428Y-83839285D01*
X128446428Y-83089285D01*
X128696428Y-83089285D01*
X128767857Y-83125000D01*
X128803571Y-83160714D01*
X128839285Y-83232142D01*
X128839285Y-83303571D01*
X128803571Y-83375000D01*
X128767857Y-83410714D01*
X128696428Y-83446428D01*
X128446428Y-83446428D01*
X129589285Y-83839285D02*
X129160714Y-83839285D01*
X129375000Y-83839285D02*
X129375000Y-83089285D01*
X129303571Y-83196428D01*
X129232142Y-83267857D01*
X129160714Y-83303571D01*
X132928571Y-91125000D02*
X132857142Y-91089285D01*
X132750000Y-91089285D01*
X132642857Y-91125000D01*
X132571428Y-91196428D01*
X132535714Y-91267857D01*
X132500000Y-91410714D01*
X132500000Y-91517857D01*
X132535714Y-91660714D01*
X132571428Y-91732142D01*
X132642857Y-91803571D01*
X132750000Y-91839285D01*
X132821428Y-91839285D01*
X132928571Y-91803571D01*
X132964285Y-91767857D01*
X132964285Y-91517857D01*
X132821428Y-91517857D01*
X133285714Y-91839285D02*
X133285714Y-91089285D01*
X133714285Y-91839285D01*
X133714285Y-91089285D01*
X134071428Y-91839285D02*
X134071428Y-91089285D01*
X134250000Y-91089285D01*
X134357142Y-91125000D01*
X134428571Y-91196428D01*
X134464285Y-91267857D01*
X134500000Y-91410714D01*
X134500000Y-91517857D01*
X134464285Y-91660714D01*
X134428571Y-91732142D01*
X134357142Y-91803571D01*
X134250000Y-91839285D01*
X134071428Y-91839285D01*
X130428571Y-91803571D02*
X130535714Y-91839285D01*
X130714285Y-91839285D01*
X130785714Y-91803571D01*
X130821428Y-91767857D01*
X130857142Y-91696428D01*
X130857142Y-91625000D01*
X130821428Y-91553571D01*
X130785714Y-91517857D01*
X130714285Y-91482142D01*
X130571428Y-91446428D01*
X130500000Y-91410714D01*
X130464285Y-91375000D01*
X130428571Y-91303571D01*
X130428571Y-91232142D01*
X130464285Y-91160714D01*
X130500000Y-91125000D01*
X130571428Y-91089285D01*
X130750000Y-91089285D01*
X130857142Y-91125000D01*
X131142857Y-91160714D02*
X131178571Y-91125000D01*
X131250000Y-91089285D01*
X131428571Y-91089285D01*
X131500000Y-91125000D01*
X131535714Y-91160714D01*
X131571428Y-91232142D01*
X131571428Y-91303571D01*
X131535714Y-91410714D01*
X131107142Y-91839285D01*
X131571428Y-91839285D01*
X127928571Y-91803571D02*
X128035714Y-91839285D01*
X128214285Y-91839285D01*
X128285714Y-91803571D01*
X128321428Y-91767857D01*
X128357142Y-91696428D01*
X128357142Y-91625000D01*
X128321428Y-91553571D01*
X128285714Y-91517857D01*
X128214285Y-91482142D01*
X128071428Y-91446428D01*
X128000000Y-91410714D01*
X127964285Y-91375000D01*
X127928571Y-91303571D01*
X127928571Y-91232142D01*
X127964285Y-91160714D01*
X128000000Y-91125000D01*
X128071428Y-91089285D01*
X128250000Y-91089285D01*
X128357142Y-91125000D01*
X129071428Y-91839285D02*
X128642857Y-91839285D01*
X128857142Y-91839285D02*
X128857142Y-91089285D01*
X128785714Y-91196428D01*
X128714285Y-91267857D01*
X128642857Y-91303571D01*
X125428571Y-91125000D02*
X125357142Y-91089285D01*
X125250000Y-91089285D01*
X125142857Y-91125000D01*
X125071428Y-91196428D01*
X125035714Y-91267857D01*
X125000000Y-91410714D01*
X125000000Y-91517857D01*
X125035714Y-91660714D01*
X125071428Y-91732142D01*
X125142857Y-91803571D01*
X125250000Y-91839285D01*
X125321428Y-91839285D01*
X125428571Y-91803571D01*
X125464285Y-91767857D01*
X125464285Y-91517857D01*
X125321428Y-91517857D01*
X125785714Y-91839285D02*
X125785714Y-91089285D01*
X126214285Y-91839285D01*
X126214285Y-91089285D01*
X126571428Y-91839285D02*
X126571428Y-91089285D01*
X126750000Y-91089285D01*
X126857142Y-91125000D01*
X126928571Y-91196428D01*
X126964285Y-91267857D01*
X127000000Y-91410714D01*
X127000000Y-91517857D01*
X126964285Y-91660714D01*
X126928571Y-91732142D01*
X126857142Y-91803571D01*
X126750000Y-91839285D01*
X126571428Y-91839285D01*
X122875000Y-91089285D02*
X123125000Y-91839285D01*
X123375000Y-91089285D01*
X123625000Y-91839285D02*
X123625000Y-91089285D01*
X123910714Y-91089285D01*
X123982142Y-91125000D01*
X124017857Y-91160714D01*
X124053571Y-91232142D01*
X124053571Y-91339285D01*
X124017857Y-91410714D01*
X123982142Y-91446428D01*
X123910714Y-91482142D01*
X123625000Y-91482142D01*
X145028571Y-73361904D02*
X144761904Y-72980952D01*
X144571428Y-73361904D02*
X144571428Y-72561904D01*
X144876190Y-72561904D01*
X144952380Y-72600000D01*
X144990476Y-72638095D01*
X145028571Y-72714285D01*
X145028571Y-72828571D01*
X144990476Y-72904761D01*
X144952380Y-72942857D01*
X144876190Y-72980952D01*
X144571428Y-72980952D01*
X145676190Y-73323809D02*
X145600000Y-73361904D01*
X145447619Y-73361904D01*
X145371428Y-73323809D01*
X145333333Y-73247619D01*
X145333333Y-72942857D01*
X145371428Y-72866666D01*
X145447619Y-72828571D01*
X145600000Y-72828571D01*
X145676190Y-72866666D01*
X145714285Y-72942857D01*
X145714285Y-73019047D01*
X145333333Y-73095238D01*
X145980952Y-72828571D02*
X146171428Y-73361904D01*
X146361904Y-72828571D01*
X146666666Y-73285714D02*
X146704761Y-73323809D01*
X146666666Y-73361904D01*
X146628571Y-73323809D01*
X146666666Y-73285714D01*
X146666666Y-73361904D01*
X147466666Y-73361904D02*
X147009523Y-73361904D01*
X147238095Y-73361904D02*
X147238095Y-72561904D01*
X147161904Y-72676190D01*
X147085714Y-72752380D01*
X147009523Y-72790476D01*
D11*
X128095238Y-72904761D02*
X128238095Y-72952380D01*
X128476190Y-72952380D01*
X128571428Y-72904761D01*
X128619047Y-72857142D01*
X128666666Y-72761904D01*
X128666666Y-72666666D01*
X128619047Y-72571428D01*
X128571428Y-72523809D01*
X128476190Y-72476190D01*
X128285714Y-72428571D01*
X128190476Y-72380952D01*
X128142857Y-72333333D01*
X128095238Y-72238095D01*
X128095238Y-72142857D01*
X128142857Y-72047619D01*
X128190476Y-72000000D01*
X128285714Y-71952380D01*
X128523809Y-71952380D01*
X128666666Y-72000000D01*
X129095238Y-72285714D02*
X129095238Y-72952380D01*
X129095238Y-72380952D02*
X129142857Y-72333333D01*
X129238095Y-72285714D01*
X129380952Y-72285714D01*
X129476190Y-72333333D01*
X129523809Y-72428571D01*
X129523809Y-72952380D01*
X130428571Y-72952380D02*
X130428571Y-72428571D01*
X130380952Y-72333333D01*
X130285714Y-72285714D01*
X130095238Y-72285714D01*
X130000000Y-72333333D01*
X130428571Y-72904761D02*
X130333333Y-72952380D01*
X130095238Y-72952380D01*
X130000000Y-72904761D01*
X129952380Y-72809523D01*
X129952380Y-72714285D01*
X130000000Y-72619047D01*
X130095238Y-72571428D01*
X130333333Y-72571428D01*
X130428571Y-72523809D01*
X130904761Y-72952380D02*
X130904761Y-71952380D01*
X131000000Y-72571428D02*
X131285714Y-72952380D01*
X131285714Y-72285714D02*
X130904761Y-72666666D01*
X132095238Y-72904761D02*
X132000000Y-72952380D01*
X131809523Y-72952380D01*
X131714285Y-72904761D01*
X131666666Y-72809523D01*
X131666666Y-72428571D01*
X131714285Y-72333333D01*
X131809523Y-72285714D01*
X132000000Y-72285714D01*
X132095238Y-72333333D01*
X132142857Y-72428571D01*
X132142857Y-72523809D01*
X131666666Y-72619047D01*
X132761904Y-71952380D02*
X132952380Y-71952380D01*
X133047619Y-72000000D01*
X133142857Y-72095238D01*
X133190476Y-72285714D01*
X133190476Y-72619047D01*
X133142857Y-72809523D01*
X133047619Y-72904761D01*
X132952380Y-72952380D01*
X132761904Y-72952380D01*
X132666666Y-72904761D01*
X132571428Y-72809523D01*
X132523809Y-72619047D01*
X132523809Y-72285714D01*
X132571428Y-72095238D01*
X132666666Y-72000000D01*
X132761904Y-71952380D01*
X133619047Y-72952380D02*
X133619047Y-72285714D01*
X133619047Y-71952380D02*
X133571428Y-72000000D01*
X133619047Y-72047619D01*
X133666666Y-72000000D01*
X133619047Y-71952380D01*
X133619047Y-72047619D01*
X134238095Y-72952380D02*
X134142857Y-72904761D01*
X134095238Y-72809523D01*
X134095238Y-71952380D01*
X134523809Y-71952380D02*
X135190476Y-72952380D01*
X135190476Y-71952380D02*
X134523809Y-72952380D01*
X135761904Y-72476190D02*
X135761904Y-72952380D01*
X135428571Y-71952380D02*
X135761904Y-72476190D01*
X136095238Y-71952380D01*
X137047619Y-72285714D02*
X137428571Y-72285714D01*
X137190476Y-71952380D02*
X137190476Y-72809523D01*
X137238095Y-72904761D01*
X137333333Y-72952380D01*
X137428571Y-72952380D01*
X137904761Y-72952380D02*
X137809523Y-72904761D01*
X137761904Y-72857142D01*
X137714285Y-72761904D01*
X137714285Y-72476190D01*
X137761904Y-72380952D01*
X137809523Y-72333333D01*
X137904761Y-72285714D01*
X138047619Y-72285714D01*
X138142857Y-72333333D01*
X138190476Y-72380952D01*
X138238095Y-72476190D01*
X138238095Y-72761904D01*
X138190476Y-72857142D01*
X138142857Y-72904761D01*
X138047619Y-72952380D01*
X137904761Y-72952380D01*
X138809523Y-72952380D02*
X138714285Y-72904761D01*
X138666666Y-72857142D01*
X138619047Y-72761904D01*
X138619047Y-72476190D01*
X138666666Y-72380952D01*
X138714285Y-72333333D01*
X138809523Y-72285714D01*
X138952380Y-72285714D01*
X139047619Y-72333333D01*
X139095238Y-72380952D01*
X139142857Y-72476190D01*
X139142857Y-72761904D01*
X139095238Y-72857142D01*
X139047619Y-72904761D01*
X138952380Y-72952380D01*
X138809523Y-72952380D01*
X139714285Y-72952380D02*
X139619047Y-72904761D01*
X139571428Y-72809523D01*
X139571428Y-71952380D01*
X140095238Y-72952380D02*
X140095238Y-71952380D01*
X140095238Y-72333333D02*
X140190476Y-72285714D01*
X140380952Y-72285714D01*
X140476190Y-72333333D01*
X140523809Y-72380952D01*
X140571428Y-72476190D01*
X140571428Y-72761904D01*
X140523809Y-72857142D01*
X140476190Y-72904761D01*
X140380952Y-72952380D01*
X140190476Y-72952380D01*
X140095238Y-72904761D01*
X141142857Y-72952380D02*
X141047619Y-72904761D01*
X141000000Y-72857142D01*
X140952380Y-72761904D01*
X140952380Y-72476190D01*
X141000000Y-72380952D01*
X141047619Y-72333333D01*
X141142857Y-72285714D01*
X141285714Y-72285714D01*
X141380952Y-72333333D01*
X141428571Y-72380952D01*
X141476190Y-72476190D01*
X141476190Y-72761904D01*
X141428571Y-72857142D01*
X141380952Y-72904761D01*
X141285714Y-72952380D01*
X141142857Y-72952380D01*
X142333333Y-72952380D02*
X142333333Y-72428571D01*
X142285714Y-72333333D01*
X142190476Y-72285714D01*
X142000000Y-72285714D01*
X141904761Y-72333333D01*
X142333333Y-72904761D02*
X142238095Y-72952380D01*
X142000000Y-72952380D01*
X141904761Y-72904761D01*
X141857142Y-72809523D01*
X141857142Y-72714285D01*
X141904761Y-72619047D01*
X142000000Y-72571428D01*
X142238095Y-72571428D01*
X142333333Y-72523809D01*
X142809523Y-72952380D02*
X142809523Y-72285714D01*
X142809523Y-72476190D02*
X142857142Y-72380952D01*
X142904761Y-72333333D01*
X143000000Y-72285714D01*
X143095238Y-72285714D01*
X143857142Y-72952380D02*
X143857142Y-71952380D01*
X143857142Y-72904761D02*
X143761904Y-72952380D01*
X143571428Y-72952380D01*
X143476190Y-72904761D01*
X143428571Y-72857142D01*
X143380952Y-72761904D01*
X143380952Y-72476190D01*
X143428571Y-72380952D01*
X143476190Y-72333333D01*
X143571428Y-72285714D01*
X143761904Y-72285714D01*
X143857142Y-72333333D01*
D10*
X165000000Y-98500000D02*
G75*
G02X164000000Y-99500000I-1000000J0D01*
G01*
X121000000Y-99500000D02*
G75*
G02X120000000Y-98500000I0J1000000D01*
G01*
X161000000Y-71000000D02*
G75*
G02X165000000Y-75000000I0J-4000000D01*
G01*
X120000000Y-75000000D02*
G75*
G02X124000000Y-71000000I4000000J0D01*
G01*
X120000000Y-75000000D02*
X120000000Y-98500000D01*
X161000000Y-71000000D02*
X124000000Y-71000000D01*
X165000000Y-98500000D02*
X165000000Y-75000000D01*
X121000000Y-99500000D02*
X164000000Y-99500000D01*
D12*
X161850000Y-90750000D02*
X161850000Y-89500000D01*
X160600000Y-90750000D02*
X161850000Y-90750000D01*
X152200000Y-85250000D02*
X156500000Y-85250000D01*
X152200000Y-88200000D02*
X152200000Y-85250000D01*
X151450000Y-88200000D02*
X152200000Y-88200000D01*
X160800000Y-85250000D02*
X156500000Y-85250000D01*
X160800000Y-88200000D02*
X160800000Y-85250000D01*
X161550000Y-88200000D02*
X160800000Y-88200000D01*
X151450000Y-90450000D02*
X153250000Y-90450000D01*
X151450000Y-89700000D02*
X151450000Y-90450000D01*
X153250000Y-89700000D02*
X151450000Y-89700000D01*
X153250000Y-90450000D02*
X153250000Y-89700000D01*
X159750000Y-90450000D02*
X161550000Y-90450000D01*
X159750000Y-89700000D02*
X159750000Y-90450000D01*
X161550000Y-89700000D02*
X159750000Y-89700000D01*
X161550000Y-90450000D02*
X161550000Y-89700000D01*
X154750000Y-90450000D02*
X158250000Y-90450000D01*
X154750000Y-89700000D02*
X154750000Y-90450000D01*
X158250000Y-89700000D02*
X154750000Y-89700000D01*
X158250000Y-90450000D02*
X158250000Y-89700000D01*
X151440000Y-90460000D02*
X161560000Y-90460000D01*
X151440000Y-84490000D02*
X151440000Y-90460000D01*
X161560000Y-84490000D02*
X151440000Y-84490000D01*
X161560000Y-90460000D02*
X161560000Y-84490000D01*
X156828975Y-79940000D02*
X158352975Y-79305000D01*
X158352975Y-79305000D02*
X158352975Y-80575000D01*
X158352975Y-80575000D02*
X156828975Y-79940000D01*
X128425020Y-73610000D02*
X128425020Y-75404937D01*
X128425020Y-82410000D02*
X156574975Y-82410000D01*
X156574975Y-82410000D02*
X156574975Y-76595106D01*
X156574975Y-73610000D02*
X128425020Y-73610000D01*
X156574975Y-75404894D02*
X156574975Y-73610000D01*
X128425020Y-76595063D02*
X128425020Y-82410000D01*
X164350000Y-98750000D02*
X164350000Y-97500000D01*
X163100000Y-98750000D02*
X164350000Y-98750000D01*
X157200000Y-93250000D02*
X160250000Y-93250000D01*
X157200000Y-96200000D02*
X157200000Y-93250000D01*
X156450000Y-96200000D02*
X157200000Y-96200000D01*
X163300000Y-93250000D02*
X160250000Y-93250000D01*
X163300000Y-96200000D02*
X163300000Y-93250000D01*
X164050000Y-96200000D02*
X163300000Y-96200000D01*
X156450000Y-98450000D02*
X158250000Y-98450000D01*
X156450000Y-97700000D02*
X156450000Y-98450000D01*
X158250000Y-97700000D02*
X156450000Y-97700000D01*
X158250000Y-98450000D02*
X158250000Y-97700000D01*
X162250000Y-98450000D02*
X164050000Y-98450000D01*
X162250000Y-97700000D02*
X162250000Y-98450000D01*
X164050000Y-97700000D02*
X162250000Y-97700000D01*
X164050000Y-98450000D02*
X164050000Y-97700000D01*
X159750000Y-98450000D02*
X160750000Y-98450000D01*
X159750000Y-97700000D02*
X159750000Y-98450000D01*
X160750000Y-97700000D02*
X159750000Y-97700000D01*
X160750000Y-98450000D02*
X160750000Y-97700000D01*
X156440000Y-98460000D02*
X164060000Y-98460000D01*
X156440000Y-92490000D02*
X156440000Y-98460000D01*
X164060000Y-92490000D02*
X156440000Y-92490000D01*
X164060000Y-98460000D02*
X164060000Y-92490000D01*
X154560000Y-98460000D02*
X154560000Y-92490000D01*
X154560000Y-92490000D02*
X146940000Y-92490000D01*
X146940000Y-92490000D02*
X146940000Y-98460000D01*
X146940000Y-98460000D02*
X154560000Y-98460000D01*
X151250000Y-98450000D02*
X151250000Y-97700000D01*
X151250000Y-97700000D02*
X150250000Y-97700000D01*
X150250000Y-97700000D02*
X150250000Y-98450000D01*
X150250000Y-98450000D02*
X151250000Y-98450000D01*
X154550000Y-98450000D02*
X154550000Y-97700000D01*
X154550000Y-97700000D02*
X152750000Y-97700000D01*
X152750000Y-97700000D02*
X152750000Y-98450000D01*
X152750000Y-98450000D02*
X154550000Y-98450000D01*
X148750000Y-98450000D02*
X148750000Y-97700000D01*
X148750000Y-97700000D02*
X146950000Y-97700000D01*
X146950000Y-97700000D02*
X146950000Y-98450000D01*
X146950000Y-98450000D02*
X148750000Y-98450000D01*
X154550000Y-96200000D02*
X153800000Y-96200000D01*
X153800000Y-96200000D02*
X153800000Y-93250000D01*
X153800000Y-93250000D02*
X150750000Y-93250000D01*
X146950000Y-96200000D02*
X147700000Y-96200000D01*
X147700000Y-96200000D02*
X147700000Y-93250000D01*
X147700000Y-93250000D02*
X150750000Y-93250000D01*
X153600000Y-98750000D02*
X154850000Y-98750000D01*
X154850000Y-98750000D02*
X154850000Y-97500000D01*
X149060000Y-90460000D02*
X149060000Y-84490000D01*
X149060000Y-84490000D02*
X138940000Y-84490000D01*
X138940000Y-84490000D02*
X138940000Y-90460000D01*
X138940000Y-90460000D02*
X149060000Y-90460000D01*
X145750000Y-90450000D02*
X145750000Y-89700000D01*
X145750000Y-89700000D02*
X142250000Y-89700000D01*
X142250000Y-89700000D02*
X142250000Y-90450000D01*
X142250000Y-90450000D02*
X145750000Y-90450000D01*
X149050000Y-90450000D02*
X149050000Y-89700000D01*
X149050000Y-89700000D02*
X147250000Y-89700000D01*
X147250000Y-89700000D02*
X147250000Y-90450000D01*
X147250000Y-90450000D02*
X149050000Y-90450000D01*
X140750000Y-90450000D02*
X140750000Y-89700000D01*
X140750000Y-89700000D02*
X138950000Y-89700000D01*
X138950000Y-89700000D02*
X138950000Y-90450000D01*
X138950000Y-90450000D02*
X140750000Y-90450000D01*
X149050000Y-88200000D02*
X148300000Y-88200000D01*
X148300000Y-88200000D02*
X148300000Y-85250000D01*
X148300000Y-85250000D02*
X144000000Y-85250000D01*
X138950000Y-88200000D02*
X139700000Y-88200000D01*
X139700000Y-88200000D02*
X139700000Y-85250000D01*
X139700000Y-85250000D02*
X144000000Y-85250000D01*
X148100000Y-90750000D02*
X149350000Y-90750000D01*
X149350000Y-90750000D02*
X149350000Y-89500000D01*
X136560000Y-90460000D02*
X136560000Y-84490000D01*
X136560000Y-84490000D02*
X123940000Y-84490000D01*
X123940000Y-84490000D02*
X123940000Y-90460000D01*
X123940000Y-90460000D02*
X136560000Y-90460000D01*
X133250000Y-90450000D02*
X133250000Y-89700000D01*
X133250000Y-89700000D02*
X127250000Y-89700000D01*
X127250000Y-89700000D02*
X127250000Y-90450000D01*
X127250000Y-90450000D02*
X133250000Y-90450000D01*
X136550000Y-90450000D02*
X136550000Y-89700000D01*
X136550000Y-89700000D02*
X134750000Y-89700000D01*
X134750000Y-89700000D02*
X134750000Y-90450000D01*
X134750000Y-90450000D02*
X136550000Y-90450000D01*
X125750000Y-90450000D02*
X125750000Y-89700000D01*
X125750000Y-89700000D02*
X123950000Y-89700000D01*
X123950000Y-89700000D02*
X123950000Y-90450000D01*
X123950000Y-90450000D02*
X125750000Y-90450000D01*
X136550000Y-88200000D02*
X135800000Y-88200000D01*
X135800000Y-88200000D02*
X135800000Y-85250000D01*
X135800000Y-85250000D02*
X130250000Y-85250000D01*
X123950000Y-88200000D02*
X124700000Y-88200000D01*
X124700000Y-88200000D02*
X124700000Y-85250000D01*
X124700000Y-85250000D02*
X130250000Y-85250000D01*
X135600000Y-90750000D02*
X136850000Y-90750000D01*
X136850000Y-90750000D02*
X136850000Y-89500000D01*
X136060000Y-98460000D02*
X136060000Y-92490000D01*
X136060000Y-92490000D02*
X120940000Y-92490000D01*
X120940000Y-92490000D02*
X120940000Y-98460000D01*
X120940000Y-98460000D02*
X136060000Y-98460000D01*
X132750000Y-98450000D02*
X132750000Y-97700000D01*
X132750000Y-97700000D02*
X124250000Y-97700000D01*
X124250000Y-97700000D02*
X124250000Y-98450000D01*
X124250000Y-98450000D02*
X132750000Y-98450000D01*
X136050000Y-98450000D02*
X136050000Y-97700000D01*
X136050000Y-97700000D02*
X134250000Y-97700000D01*
X134250000Y-97700000D02*
X134250000Y-98450000D01*
X134250000Y-98450000D02*
X136050000Y-98450000D01*
X122750000Y-98450000D02*
X122750000Y-97700000D01*
X122750000Y-97700000D02*
X120950000Y-97700000D01*
X120950000Y-97700000D02*
X120950000Y-98450000D01*
X120950000Y-98450000D02*
X122750000Y-98450000D01*
X136050000Y-96200000D02*
X135300000Y-96200000D01*
X135300000Y-96200000D02*
X135300000Y-93250000D01*
X135300000Y-93250000D02*
X128500000Y-93250000D01*
X120950000Y-96200000D02*
X121700000Y-96200000D01*
X121700000Y-96200000D02*
X121700000Y-93250000D01*
X121700000Y-93250000D02*
X128500000Y-93250000D01*
X135100000Y-98750000D02*
X136350000Y-98750000D01*
X136350000Y-98750000D02*
X136350000Y-97500000D01*
X121290000Y-88736252D02*
X121290000Y-88213748D01*
X122710000Y-88736252D02*
X122710000Y-88213748D01*
D10*
X152666666Y-85452380D02*
X152666666Y-86166666D01*
X152619047Y-86309523D01*
X152523809Y-86404761D01*
X152380952Y-86452380D01*
X152285714Y-86452380D01*
X153619047Y-85452380D02*
X153142857Y-85452380D01*
X153095238Y-85928571D01*
X153142857Y-85880952D01*
X153238095Y-85833333D01*
X153476190Y-85833333D01*
X153571428Y-85880952D01*
X153619047Y-85928571D01*
X153666666Y-86023809D01*
X153666666Y-86261904D01*
X153619047Y-86357142D01*
X153571428Y-86404761D01*
X153476190Y-86452380D01*
X153238095Y-86452380D01*
X153142857Y-86404761D01*
X153095238Y-86357142D01*
X154166666Y-80452380D02*
X154166666Y-81166666D01*
X154119047Y-81309523D01*
X154023809Y-81404761D01*
X153880952Y-81452380D01*
X153785714Y-81452380D01*
X155166666Y-81452380D02*
X154595238Y-81452380D01*
X154880952Y-81452380D02*
X154880952Y-80452380D01*
X154785714Y-80595238D01*
X154690476Y-80690476D01*
X154595238Y-80738095D01*
X155500000Y-76952380D02*
X155500000Y-77190476D01*
X155261904Y-77095238D02*
X155500000Y-77190476D01*
X155738095Y-77095238D01*
X155357142Y-77380952D02*
X155500000Y-77190476D01*
X155642857Y-77380952D01*
X157666666Y-93452380D02*
X157666666Y-94166666D01*
X157619047Y-94309523D01*
X157523809Y-94404761D01*
X157380952Y-94452380D01*
X157285714Y-94452380D01*
X158095238Y-93547619D02*
X158142857Y-93500000D01*
X158238095Y-93452380D01*
X158476190Y-93452380D01*
X158571428Y-93500000D01*
X158619047Y-93547619D01*
X158666666Y-93642857D01*
X158666666Y-93738095D01*
X158619047Y-93880952D01*
X158047619Y-94452380D01*
X158666666Y-94452380D01*
X148166666Y-93452380D02*
X148166666Y-94166666D01*
X148119047Y-94309523D01*
X148023809Y-94404761D01*
X147880952Y-94452380D01*
X147785714Y-94452380D01*
X148547619Y-93452380D02*
X149166666Y-93452380D01*
X148833333Y-93833333D01*
X148976190Y-93833333D01*
X149071428Y-93880952D01*
X149119047Y-93928571D01*
X149166666Y-94023809D01*
X149166666Y-94261904D01*
X149119047Y-94357142D01*
X149071428Y-94404761D01*
X148976190Y-94452380D01*
X148690476Y-94452380D01*
X148595238Y-94404761D01*
X148547619Y-94357142D01*
X140166666Y-85452380D02*
X140166666Y-86166666D01*
X140119047Y-86309523D01*
X140023809Y-86404761D01*
X139880952Y-86452380D01*
X139785714Y-86452380D01*
X141071428Y-85785714D02*
X141071428Y-86452380D01*
X140833333Y-85404761D02*
X140595238Y-86119047D01*
X141214285Y-86119047D01*
X125166666Y-85452380D02*
X125166666Y-86166666D01*
X125119047Y-86309523D01*
X125023809Y-86404761D01*
X124880952Y-86452380D01*
X124785714Y-86452380D01*
X126071428Y-85452380D02*
X125880952Y-85452380D01*
X125785714Y-85500000D01*
X125738095Y-85547619D01*
X125642857Y-85690476D01*
X125595238Y-85880952D01*
X125595238Y-86261904D01*
X125642857Y-86357142D01*
X125690476Y-86404761D01*
X125785714Y-86452380D01*
X125976190Y-86452380D01*
X126071428Y-86404761D01*
X126119047Y-86357142D01*
X126166666Y-86261904D01*
X126166666Y-86023809D01*
X126119047Y-85928571D01*
X126071428Y-85880952D01*
X125976190Y-85833333D01*
X125785714Y-85833333D01*
X125690476Y-85880952D01*
X125642857Y-85928571D01*
X125595238Y-86023809D01*
X122166666Y-93452380D02*
X122166666Y-94166666D01*
X122119047Y-94309523D01*
X122023809Y-94404761D01*
X121880952Y-94452380D01*
X121785714Y-94452380D01*
X122547619Y-93452380D02*
X123214285Y-93452380D01*
X122785714Y-94452380D01*
M02*
