%TF.GenerationSoftware,KiCad,Pcbnew,5.0.2+dfsg1-1*%
%TF.CreationDate,2022-04-03T13:41:23+09:00*%
%TF.ProjectId,toolhead-board,746f6f6c-6865-4616-942d-626f6172642e,rev?*%
%TF.SameCoordinates,Original*%
%TF.FileFunction,Copper,L2,Bot*%
%TF.FilePolarity,Positive*%
%FSLAX46Y46*%
G04 Gerber Fmt 4.6, Leading zero omitted, Abs format (unit mm)*
G04 Created by KiCad (PCBNEW 5.0.2+dfsg1-1) date Sun 03 Apr 2022 01:41:23 PM JST*
%MOMM*%
%LPD*%
G01*
G04 APERTURE LIST*
%ADD10C,0.150000*%
%ADD11O,1.700000X1.950000*%
%ADD12C,0.100000*%
%ADD13C,1.700000*%
%ADD14R,1.500500X1.500500*%
%ADD15C,1.500500*%
%ADD16O,1.700000X2.000000*%
%ADD17C,5.600000*%
%ADD18C,1.000000*%
%ADD19C,0.254000*%
G04 APERTURE END LIST*
D10*
X165000000Y-98500000D02*
G75*
G02X164000000Y-99500000I-1000000J0D01*
G01*
X121000000Y-99500000D02*
G75*
G02X120000000Y-98500000I0J1000000D01*
G01*
X161000000Y-71000000D02*
G75*
G02X165000000Y-75000000I0J-4000000D01*
G01*
X120000000Y-75000000D02*
G75*
G02X124000000Y-71000000I4000000J0D01*
G01*
X120000000Y-75000000D02*
X120000000Y-98500000D01*
X161000000Y-71000000D02*
X124000000Y-71000000D01*
X165000000Y-98500000D02*
X165000000Y-75000000D01*
X121000000Y-99500000D02*
X164000000Y-99500000D01*
D11*
X154000000Y-88000000D03*
X156500000Y-88000000D03*
D12*
G36*
X159624504Y-87026204D02*
X159648773Y-87029804D01*
X159672571Y-87035765D01*
X159695671Y-87044030D01*
X159717849Y-87054520D01*
X159738893Y-87067133D01*
X159758598Y-87081747D01*
X159776777Y-87098223D01*
X159793253Y-87116402D01*
X159807867Y-87136107D01*
X159820480Y-87157151D01*
X159830970Y-87179329D01*
X159839235Y-87202429D01*
X159845196Y-87226227D01*
X159848796Y-87250496D01*
X159850000Y-87275000D01*
X159850000Y-88725000D01*
X159848796Y-88749504D01*
X159845196Y-88773773D01*
X159839235Y-88797571D01*
X159830970Y-88820671D01*
X159820480Y-88842849D01*
X159807867Y-88863893D01*
X159793253Y-88883598D01*
X159776777Y-88901777D01*
X159758598Y-88918253D01*
X159738893Y-88932867D01*
X159717849Y-88945480D01*
X159695671Y-88955970D01*
X159672571Y-88964235D01*
X159648773Y-88970196D01*
X159624504Y-88973796D01*
X159600000Y-88975000D01*
X158400000Y-88975000D01*
X158375496Y-88973796D01*
X158351227Y-88970196D01*
X158327429Y-88964235D01*
X158304329Y-88955970D01*
X158282151Y-88945480D01*
X158261107Y-88932867D01*
X158241402Y-88918253D01*
X158223223Y-88901777D01*
X158206747Y-88883598D01*
X158192133Y-88863893D01*
X158179520Y-88842849D01*
X158169030Y-88820671D01*
X158160765Y-88797571D01*
X158154804Y-88773773D01*
X158151204Y-88749504D01*
X158150000Y-88725000D01*
X158150000Y-87275000D01*
X158151204Y-87250496D01*
X158154804Y-87226227D01*
X158160765Y-87202429D01*
X158169030Y-87179329D01*
X158179520Y-87157151D01*
X158192133Y-87136107D01*
X158206747Y-87116402D01*
X158223223Y-87098223D01*
X158241402Y-87081747D01*
X158261107Y-87067133D01*
X158282151Y-87054520D01*
X158304329Y-87044030D01*
X158327429Y-87035765D01*
X158351227Y-87029804D01*
X158375496Y-87026204D01*
X158400000Y-87025000D01*
X159600000Y-87025000D01*
X159624504Y-87026204D01*
X159624504Y-87026204D01*
G37*
D13*
X159000000Y-88000000D03*
D14*
X152999994Y-79940000D03*
D15*
X149999995Y-79940000D03*
X146999996Y-79940000D03*
X143999997Y-79940000D03*
X140999998Y-79940000D03*
X137999999Y-79940000D03*
X135000000Y-79940000D03*
X132000000Y-79940000D03*
X152999994Y-76940001D03*
X149999995Y-76940001D03*
X146999996Y-76940001D03*
X143999997Y-76940001D03*
X140999998Y-76940001D03*
X137999999Y-76940001D03*
X135000000Y-76940001D03*
X132000000Y-76940001D03*
D16*
X159000000Y-96000000D03*
D12*
G36*
X162124504Y-95001204D02*
X162148773Y-95004804D01*
X162172571Y-95010765D01*
X162195671Y-95019030D01*
X162217849Y-95029520D01*
X162238893Y-95042133D01*
X162258598Y-95056747D01*
X162276777Y-95073223D01*
X162293253Y-95091402D01*
X162307867Y-95111107D01*
X162320480Y-95132151D01*
X162330970Y-95154329D01*
X162339235Y-95177429D01*
X162345196Y-95201227D01*
X162348796Y-95225496D01*
X162350000Y-95250000D01*
X162350000Y-96750000D01*
X162348796Y-96774504D01*
X162345196Y-96798773D01*
X162339235Y-96822571D01*
X162330970Y-96845671D01*
X162320480Y-96867849D01*
X162307867Y-96888893D01*
X162293253Y-96908598D01*
X162276777Y-96926777D01*
X162258598Y-96943253D01*
X162238893Y-96957867D01*
X162217849Y-96970480D01*
X162195671Y-96980970D01*
X162172571Y-96989235D01*
X162148773Y-96995196D01*
X162124504Y-96998796D01*
X162100000Y-97000000D01*
X160900000Y-97000000D01*
X160875496Y-96998796D01*
X160851227Y-96995196D01*
X160827429Y-96989235D01*
X160804329Y-96980970D01*
X160782151Y-96970480D01*
X160761107Y-96957867D01*
X160741402Y-96943253D01*
X160723223Y-96926777D01*
X160706747Y-96908598D01*
X160692133Y-96888893D01*
X160679520Y-96867849D01*
X160669030Y-96845671D01*
X160660765Y-96822571D01*
X160654804Y-96798773D01*
X160651204Y-96774504D01*
X160650000Y-96750000D01*
X160650000Y-95250000D01*
X160651204Y-95225496D01*
X160654804Y-95201227D01*
X160660765Y-95177429D01*
X160669030Y-95154329D01*
X160679520Y-95132151D01*
X160692133Y-95111107D01*
X160706747Y-95091402D01*
X160723223Y-95073223D01*
X160741402Y-95056747D01*
X160761107Y-95042133D01*
X160782151Y-95029520D01*
X160804329Y-95019030D01*
X160827429Y-95010765D01*
X160851227Y-95004804D01*
X160875496Y-95001204D01*
X160900000Y-95000000D01*
X162100000Y-95000000D01*
X162124504Y-95001204D01*
X162124504Y-95001204D01*
G37*
D13*
X161500000Y-96000000D03*
D12*
G36*
X152624504Y-95001204D02*
X152648773Y-95004804D01*
X152672571Y-95010765D01*
X152695671Y-95019030D01*
X152717849Y-95029520D01*
X152738893Y-95042133D01*
X152758598Y-95056747D01*
X152776777Y-95073223D01*
X152793253Y-95091402D01*
X152807867Y-95111107D01*
X152820480Y-95132151D01*
X152830970Y-95154329D01*
X152839235Y-95177429D01*
X152845196Y-95201227D01*
X152848796Y-95225496D01*
X152850000Y-95250000D01*
X152850000Y-96750000D01*
X152848796Y-96774504D01*
X152845196Y-96798773D01*
X152839235Y-96822571D01*
X152830970Y-96845671D01*
X152820480Y-96867849D01*
X152807867Y-96888893D01*
X152793253Y-96908598D01*
X152776777Y-96926777D01*
X152758598Y-96943253D01*
X152738893Y-96957867D01*
X152717849Y-96970480D01*
X152695671Y-96980970D01*
X152672571Y-96989235D01*
X152648773Y-96995196D01*
X152624504Y-96998796D01*
X152600000Y-97000000D01*
X151400000Y-97000000D01*
X151375496Y-96998796D01*
X151351227Y-96995196D01*
X151327429Y-96989235D01*
X151304329Y-96980970D01*
X151282151Y-96970480D01*
X151261107Y-96957867D01*
X151241402Y-96943253D01*
X151223223Y-96926777D01*
X151206747Y-96908598D01*
X151192133Y-96888893D01*
X151179520Y-96867849D01*
X151169030Y-96845671D01*
X151160765Y-96822571D01*
X151154804Y-96798773D01*
X151151204Y-96774504D01*
X151150000Y-96750000D01*
X151150000Y-95250000D01*
X151151204Y-95225496D01*
X151154804Y-95201227D01*
X151160765Y-95177429D01*
X151169030Y-95154329D01*
X151179520Y-95132151D01*
X151192133Y-95111107D01*
X151206747Y-95091402D01*
X151223223Y-95073223D01*
X151241402Y-95056747D01*
X151261107Y-95042133D01*
X151282151Y-95029520D01*
X151304329Y-95019030D01*
X151327429Y-95010765D01*
X151351227Y-95004804D01*
X151375496Y-95001204D01*
X151400000Y-95000000D01*
X152600000Y-95000000D01*
X152624504Y-95001204D01*
X152624504Y-95001204D01*
G37*
D13*
X152000000Y-96000000D03*
D16*
X149500000Y-96000000D03*
D12*
G36*
X147124504Y-87026204D02*
X147148773Y-87029804D01*
X147172571Y-87035765D01*
X147195671Y-87044030D01*
X147217849Y-87054520D01*
X147238893Y-87067133D01*
X147258598Y-87081747D01*
X147276777Y-87098223D01*
X147293253Y-87116402D01*
X147307867Y-87136107D01*
X147320480Y-87157151D01*
X147330970Y-87179329D01*
X147339235Y-87202429D01*
X147345196Y-87226227D01*
X147348796Y-87250496D01*
X147350000Y-87275000D01*
X147350000Y-88725000D01*
X147348796Y-88749504D01*
X147345196Y-88773773D01*
X147339235Y-88797571D01*
X147330970Y-88820671D01*
X147320480Y-88842849D01*
X147307867Y-88863893D01*
X147293253Y-88883598D01*
X147276777Y-88901777D01*
X147258598Y-88918253D01*
X147238893Y-88932867D01*
X147217849Y-88945480D01*
X147195671Y-88955970D01*
X147172571Y-88964235D01*
X147148773Y-88970196D01*
X147124504Y-88973796D01*
X147100000Y-88975000D01*
X145900000Y-88975000D01*
X145875496Y-88973796D01*
X145851227Y-88970196D01*
X145827429Y-88964235D01*
X145804329Y-88955970D01*
X145782151Y-88945480D01*
X145761107Y-88932867D01*
X145741402Y-88918253D01*
X145723223Y-88901777D01*
X145706747Y-88883598D01*
X145692133Y-88863893D01*
X145679520Y-88842849D01*
X145669030Y-88820671D01*
X145660765Y-88797571D01*
X145654804Y-88773773D01*
X145651204Y-88749504D01*
X145650000Y-88725000D01*
X145650000Y-87275000D01*
X145651204Y-87250496D01*
X145654804Y-87226227D01*
X145660765Y-87202429D01*
X145669030Y-87179329D01*
X145679520Y-87157151D01*
X145692133Y-87136107D01*
X145706747Y-87116402D01*
X145723223Y-87098223D01*
X145741402Y-87081747D01*
X145761107Y-87067133D01*
X145782151Y-87054520D01*
X145804329Y-87044030D01*
X145827429Y-87035765D01*
X145851227Y-87029804D01*
X145875496Y-87026204D01*
X145900000Y-87025000D01*
X147100000Y-87025000D01*
X147124504Y-87026204D01*
X147124504Y-87026204D01*
G37*
D13*
X146500000Y-88000000D03*
D11*
X144000000Y-88000000D03*
X141500000Y-88000000D03*
D12*
G36*
X134624504Y-87026204D02*
X134648773Y-87029804D01*
X134672571Y-87035765D01*
X134695671Y-87044030D01*
X134717849Y-87054520D01*
X134738893Y-87067133D01*
X134758598Y-87081747D01*
X134776777Y-87098223D01*
X134793253Y-87116402D01*
X134807867Y-87136107D01*
X134820480Y-87157151D01*
X134830970Y-87179329D01*
X134839235Y-87202429D01*
X134845196Y-87226227D01*
X134848796Y-87250496D01*
X134850000Y-87275000D01*
X134850000Y-88725000D01*
X134848796Y-88749504D01*
X134845196Y-88773773D01*
X134839235Y-88797571D01*
X134830970Y-88820671D01*
X134820480Y-88842849D01*
X134807867Y-88863893D01*
X134793253Y-88883598D01*
X134776777Y-88901777D01*
X134758598Y-88918253D01*
X134738893Y-88932867D01*
X134717849Y-88945480D01*
X134695671Y-88955970D01*
X134672571Y-88964235D01*
X134648773Y-88970196D01*
X134624504Y-88973796D01*
X134600000Y-88975000D01*
X133400000Y-88975000D01*
X133375496Y-88973796D01*
X133351227Y-88970196D01*
X133327429Y-88964235D01*
X133304329Y-88955970D01*
X133282151Y-88945480D01*
X133261107Y-88932867D01*
X133241402Y-88918253D01*
X133223223Y-88901777D01*
X133206747Y-88883598D01*
X133192133Y-88863893D01*
X133179520Y-88842849D01*
X133169030Y-88820671D01*
X133160765Y-88797571D01*
X133154804Y-88773773D01*
X133151204Y-88749504D01*
X133150000Y-88725000D01*
X133150000Y-87275000D01*
X133151204Y-87250496D01*
X133154804Y-87226227D01*
X133160765Y-87202429D01*
X133169030Y-87179329D01*
X133179520Y-87157151D01*
X133192133Y-87136107D01*
X133206747Y-87116402D01*
X133223223Y-87098223D01*
X133241402Y-87081747D01*
X133261107Y-87067133D01*
X133282151Y-87054520D01*
X133304329Y-87044030D01*
X133327429Y-87035765D01*
X133351227Y-87029804D01*
X133375496Y-87026204D01*
X133400000Y-87025000D01*
X134600000Y-87025000D01*
X134624504Y-87026204D01*
X134624504Y-87026204D01*
G37*
D13*
X134000000Y-88000000D03*
D11*
X131500000Y-88000000D03*
X129000000Y-88000000D03*
X126500000Y-88000000D03*
D12*
G36*
X134124504Y-95026204D02*
X134148773Y-95029804D01*
X134172571Y-95035765D01*
X134195671Y-95044030D01*
X134217849Y-95054520D01*
X134238893Y-95067133D01*
X134258598Y-95081747D01*
X134276777Y-95098223D01*
X134293253Y-95116402D01*
X134307867Y-95136107D01*
X134320480Y-95157151D01*
X134330970Y-95179329D01*
X134339235Y-95202429D01*
X134345196Y-95226227D01*
X134348796Y-95250496D01*
X134350000Y-95275000D01*
X134350000Y-96725000D01*
X134348796Y-96749504D01*
X134345196Y-96773773D01*
X134339235Y-96797571D01*
X134330970Y-96820671D01*
X134320480Y-96842849D01*
X134307867Y-96863893D01*
X134293253Y-96883598D01*
X134276777Y-96901777D01*
X134258598Y-96918253D01*
X134238893Y-96932867D01*
X134217849Y-96945480D01*
X134195671Y-96955970D01*
X134172571Y-96964235D01*
X134148773Y-96970196D01*
X134124504Y-96973796D01*
X134100000Y-96975000D01*
X132900000Y-96975000D01*
X132875496Y-96973796D01*
X132851227Y-96970196D01*
X132827429Y-96964235D01*
X132804329Y-96955970D01*
X132782151Y-96945480D01*
X132761107Y-96932867D01*
X132741402Y-96918253D01*
X132723223Y-96901777D01*
X132706747Y-96883598D01*
X132692133Y-96863893D01*
X132679520Y-96842849D01*
X132669030Y-96820671D01*
X132660765Y-96797571D01*
X132654804Y-96773773D01*
X132651204Y-96749504D01*
X132650000Y-96725000D01*
X132650000Y-95275000D01*
X132651204Y-95250496D01*
X132654804Y-95226227D01*
X132660765Y-95202429D01*
X132669030Y-95179329D01*
X132679520Y-95157151D01*
X132692133Y-95136107D01*
X132706747Y-95116402D01*
X132723223Y-95098223D01*
X132741402Y-95081747D01*
X132761107Y-95067133D01*
X132782151Y-95054520D01*
X132804329Y-95044030D01*
X132827429Y-95035765D01*
X132851227Y-95029804D01*
X132875496Y-95026204D01*
X132900000Y-95025000D01*
X134100000Y-95025000D01*
X134124504Y-95026204D01*
X134124504Y-95026204D01*
G37*
D13*
X133500000Y-96000000D03*
D11*
X131000000Y-96000000D03*
X128500000Y-96000000D03*
X126000000Y-96000000D03*
X123500000Y-96000000D03*
D17*
X124000000Y-75000000D03*
X161000000Y-75000000D03*
X142500000Y-94500000D03*
D18*
X142450249Y-78390252D02*
X142450249Y-81450249D01*
X140999998Y-76940001D02*
X142450249Y-78390252D01*
X146500000Y-85500000D02*
X146500000Y-88000000D01*
X142450249Y-81450249D02*
X146500000Y-85500000D01*
X144000000Y-86025000D02*
X144000000Y-88000000D01*
X137999999Y-76940001D02*
X139549747Y-78489749D01*
X143475000Y-85500000D02*
X144000000Y-86025000D01*
X143475000Y-85425253D02*
X139549747Y-81500000D01*
X143475000Y-85500000D02*
X143475000Y-85425253D01*
X139549747Y-78489749D02*
X139549747Y-81500000D01*
X141500000Y-86025000D02*
X137999999Y-82524999D01*
X141500000Y-88000000D02*
X141500000Y-86025000D01*
X137999999Y-82524999D02*
X137999999Y-82000000D01*
X137999999Y-79940000D02*
X137999999Y-82000000D01*
X148450247Y-82325247D02*
X148450247Y-78390252D01*
X148450247Y-78390252D02*
X146999996Y-76940001D01*
X154000000Y-87875000D02*
X148450247Y-82325247D01*
X154000000Y-88000000D02*
X154000000Y-87875000D01*
X156500000Y-87875000D02*
X156500000Y-88000000D01*
X151549743Y-82924743D02*
X156500000Y-87875000D01*
X151549743Y-78489749D02*
X151549743Y-82924743D01*
X149999995Y-76940001D02*
X151549743Y-78489749D01*
X155500000Y-84500000D02*
X159000000Y-88000000D01*
X155500000Y-79440007D02*
X155500000Y-84500000D01*
X152999994Y-76940001D02*
X155500000Y-79440007D01*
X135000000Y-81500000D02*
X135000000Y-79940000D01*
X134000000Y-82500000D02*
X135000000Y-81500000D01*
X134000000Y-88000000D02*
X134000000Y-82500000D01*
X133549749Y-78390252D02*
X135000000Y-76940001D01*
X131500000Y-83049749D02*
X133549749Y-81000000D01*
X133549749Y-81000000D02*
X133549749Y-78390252D01*
X131500000Y-88000000D02*
X131500000Y-83049749D01*
X129000000Y-82940000D02*
X132000000Y-79940000D01*
X129000000Y-88000000D02*
X129000000Y-82940000D01*
X126500000Y-82440001D02*
X132000000Y-76940001D01*
X126500000Y-88000000D02*
X126500000Y-82440001D01*
D19*
G36*
X159054229Y-72087947D02*
X158087947Y-73054229D01*
X157565000Y-74316736D01*
X157565000Y-75683264D01*
X158087947Y-76945771D01*
X159054229Y-77912053D01*
X160316736Y-78435000D01*
X161683264Y-78435000D01*
X162945771Y-77912053D01*
X163912053Y-76945771D01*
X164290001Y-76033323D01*
X164290000Y-98430070D01*
X164255074Y-98605655D01*
X164195225Y-98695226D01*
X164105655Y-98755074D01*
X163930070Y-98790000D01*
X121069930Y-98790000D01*
X120894345Y-98755074D01*
X120804774Y-98695225D01*
X120744926Y-98605655D01*
X120710000Y-98430070D01*
X120710000Y-95728744D01*
X122015000Y-95728744D01*
X122015000Y-96271255D01*
X122101161Y-96704417D01*
X122429375Y-97195625D01*
X122920582Y-97523839D01*
X123500000Y-97639092D01*
X124079417Y-97523839D01*
X124570625Y-97195625D01*
X124753246Y-96922313D01*
X125128807Y-97327497D01*
X125643110Y-97566476D01*
X125873000Y-97445155D01*
X125873000Y-96127000D01*
X125853000Y-96127000D01*
X125853000Y-95873000D01*
X125873000Y-95873000D01*
X125873000Y-94554845D01*
X126127000Y-94554845D01*
X126127000Y-95873000D01*
X126147000Y-95873000D01*
X126147000Y-96127000D01*
X126127000Y-96127000D01*
X126127000Y-97445155D01*
X126356890Y-97566476D01*
X126871193Y-97327497D01*
X127246754Y-96922313D01*
X127429375Y-97195625D01*
X127920582Y-97523839D01*
X128500000Y-97639092D01*
X129079417Y-97523839D01*
X129570625Y-97195625D01*
X129750000Y-96927171D01*
X129929375Y-97195625D01*
X130420582Y-97523839D01*
X131000000Y-97639092D01*
X131579417Y-97523839D01*
X132057656Y-97204291D01*
X132111673Y-97334699D01*
X132290302Y-97513327D01*
X132523691Y-97610000D01*
X133214250Y-97610000D01*
X133373000Y-97451250D01*
X133373000Y-96127000D01*
X133627000Y-96127000D01*
X133627000Y-97451250D01*
X133785750Y-97610000D01*
X134476309Y-97610000D01*
X134709698Y-97513327D01*
X134888327Y-97334699D01*
X134985000Y-97101310D01*
X134985000Y-96285750D01*
X134826250Y-96127000D01*
X133627000Y-96127000D01*
X133373000Y-96127000D01*
X133353000Y-96127000D01*
X133353000Y-95873000D01*
X133373000Y-95873000D01*
X133373000Y-94548750D01*
X133627000Y-94548750D01*
X133627000Y-95873000D01*
X134826250Y-95873000D01*
X134985000Y-95714250D01*
X134985000Y-94898690D01*
X134888327Y-94665301D01*
X134709698Y-94486673D01*
X134476309Y-94390000D01*
X133785750Y-94390000D01*
X133627000Y-94548750D01*
X133373000Y-94548750D01*
X133214250Y-94390000D01*
X132523691Y-94390000D01*
X132290302Y-94486673D01*
X132111673Y-94665301D01*
X132057656Y-94795709D01*
X131579418Y-94476161D01*
X131000000Y-94360908D01*
X130420583Y-94476161D01*
X129929375Y-94804375D01*
X129750000Y-95072829D01*
X129570625Y-94804375D01*
X129079418Y-94476161D01*
X128500000Y-94360908D01*
X127920583Y-94476161D01*
X127429375Y-94804375D01*
X127246754Y-95077687D01*
X126871193Y-94672503D01*
X126356890Y-94433524D01*
X126127000Y-94554845D01*
X125873000Y-94554845D01*
X125643110Y-94433524D01*
X125128807Y-94672503D01*
X124753246Y-95077687D01*
X124570625Y-94804375D01*
X124079418Y-94476161D01*
X123500000Y-94360908D01*
X122920583Y-94476161D01*
X122429375Y-94804375D01*
X122101161Y-95295582D01*
X122015000Y-95728744D01*
X120710000Y-95728744D01*
X120710000Y-93816736D01*
X139065000Y-93816736D01*
X139065000Y-95183264D01*
X139587947Y-96445771D01*
X140554229Y-97412053D01*
X141816736Y-97935000D01*
X143183264Y-97935000D01*
X144445771Y-97412053D01*
X145412053Y-96445771D01*
X145719410Y-95703744D01*
X148015000Y-95703744D01*
X148015000Y-96296255D01*
X148101161Y-96729417D01*
X148429375Y-97220625D01*
X148920582Y-97548839D01*
X149500000Y-97664092D01*
X150079417Y-97548839D01*
X150557656Y-97229291D01*
X150611673Y-97359699D01*
X150790302Y-97538327D01*
X151023691Y-97635000D01*
X151714250Y-97635000D01*
X151873000Y-97476250D01*
X151873000Y-96127000D01*
X152127000Y-96127000D01*
X152127000Y-97476250D01*
X152285750Y-97635000D01*
X152976309Y-97635000D01*
X153209698Y-97538327D01*
X153388327Y-97359699D01*
X153485000Y-97126310D01*
X153485000Y-96285750D01*
X153326250Y-96127000D01*
X152127000Y-96127000D01*
X151873000Y-96127000D01*
X151853000Y-96127000D01*
X151853000Y-95873000D01*
X151873000Y-95873000D01*
X151873000Y-94523750D01*
X152127000Y-94523750D01*
X152127000Y-95873000D01*
X153326250Y-95873000D01*
X153485000Y-95714250D01*
X153485000Y-95703744D01*
X157515000Y-95703744D01*
X157515000Y-96296255D01*
X157601161Y-96729417D01*
X157929375Y-97220625D01*
X158420582Y-97548839D01*
X159000000Y-97664092D01*
X159579417Y-97548839D01*
X160057656Y-97229291D01*
X160111673Y-97359699D01*
X160290302Y-97538327D01*
X160523691Y-97635000D01*
X161214250Y-97635000D01*
X161373000Y-97476250D01*
X161373000Y-96127000D01*
X161627000Y-96127000D01*
X161627000Y-97476250D01*
X161785750Y-97635000D01*
X162476309Y-97635000D01*
X162709698Y-97538327D01*
X162888327Y-97359699D01*
X162985000Y-97126310D01*
X162985000Y-96285750D01*
X162826250Y-96127000D01*
X161627000Y-96127000D01*
X161373000Y-96127000D01*
X161353000Y-96127000D01*
X161353000Y-95873000D01*
X161373000Y-95873000D01*
X161373000Y-94523750D01*
X161627000Y-94523750D01*
X161627000Y-95873000D01*
X162826250Y-95873000D01*
X162985000Y-95714250D01*
X162985000Y-94873690D01*
X162888327Y-94640301D01*
X162709698Y-94461673D01*
X162476309Y-94365000D01*
X161785750Y-94365000D01*
X161627000Y-94523750D01*
X161373000Y-94523750D01*
X161214250Y-94365000D01*
X160523691Y-94365000D01*
X160290302Y-94461673D01*
X160111673Y-94640301D01*
X160057656Y-94770709D01*
X159579418Y-94451161D01*
X159000000Y-94335908D01*
X158420583Y-94451161D01*
X157929375Y-94779375D01*
X157601161Y-95270582D01*
X157515000Y-95703744D01*
X153485000Y-95703744D01*
X153485000Y-94873690D01*
X153388327Y-94640301D01*
X153209698Y-94461673D01*
X152976309Y-94365000D01*
X152285750Y-94365000D01*
X152127000Y-94523750D01*
X151873000Y-94523750D01*
X151714250Y-94365000D01*
X151023691Y-94365000D01*
X150790302Y-94461673D01*
X150611673Y-94640301D01*
X150557656Y-94770709D01*
X150079418Y-94451161D01*
X149500000Y-94335908D01*
X148920583Y-94451161D01*
X148429375Y-94779375D01*
X148101161Y-95270582D01*
X148015000Y-95703744D01*
X145719410Y-95703744D01*
X145935000Y-95183264D01*
X145935000Y-93816736D01*
X145412053Y-92554229D01*
X144445771Y-91587947D01*
X143183264Y-91065000D01*
X141816736Y-91065000D01*
X140554229Y-91587947D01*
X139587947Y-92554229D01*
X139065000Y-93816736D01*
X120710000Y-93816736D01*
X120710000Y-87728744D01*
X125015000Y-87728744D01*
X125015000Y-88271255D01*
X125101161Y-88704417D01*
X125429375Y-89195625D01*
X125920582Y-89523839D01*
X126500000Y-89639092D01*
X127079417Y-89523839D01*
X127570625Y-89195625D01*
X127750000Y-88927171D01*
X127929375Y-89195625D01*
X128420582Y-89523839D01*
X129000000Y-89639092D01*
X129579417Y-89523839D01*
X130070625Y-89195625D01*
X130250000Y-88927171D01*
X130429375Y-89195625D01*
X130920582Y-89523839D01*
X131500000Y-89639092D01*
X132079417Y-89523839D01*
X132570625Y-89195625D01*
X132613242Y-89131844D01*
X132765414Y-89359586D01*
X133056565Y-89554126D01*
X133400000Y-89622440D01*
X134600000Y-89622440D01*
X134943435Y-89554126D01*
X135234586Y-89359586D01*
X135429126Y-89068435D01*
X135497440Y-88725000D01*
X135497440Y-87275000D01*
X135429126Y-86931565D01*
X135234586Y-86640414D01*
X135135000Y-86573873D01*
X135135000Y-82970132D01*
X135723524Y-82381609D01*
X135818289Y-82318289D01*
X136069146Y-81942855D01*
X136100990Y-81782765D01*
X136157235Y-81500000D01*
X136135000Y-81388217D01*
X136135000Y-80764040D01*
X136174359Y-80724681D01*
X136385250Y-80215543D01*
X136385250Y-79664457D01*
X136174359Y-79155319D01*
X135784681Y-78765641D01*
X135275543Y-78554750D01*
X134990382Y-78554750D01*
X135219882Y-78325251D01*
X135275543Y-78325251D01*
X135784681Y-78114360D01*
X136174359Y-77724682D01*
X136385250Y-77215544D01*
X136385250Y-76664458D01*
X136614749Y-76664458D01*
X136614749Y-77215544D01*
X136825640Y-77724682D01*
X137215318Y-78114360D01*
X137724456Y-78325251D01*
X137780118Y-78325251D01*
X138009616Y-78554750D01*
X137724456Y-78554750D01*
X137215318Y-78765641D01*
X136825640Y-79155319D01*
X136614749Y-79664457D01*
X136614749Y-80215543D01*
X136825640Y-80724681D01*
X136864999Y-80764040D01*
X136865000Y-81888212D01*
X136864999Y-81888217D01*
X136864999Y-82413216D01*
X136842764Y-82524999D01*
X136891120Y-82768101D01*
X136930853Y-82967853D01*
X137181710Y-83343288D01*
X137276481Y-83406612D01*
X140365001Y-86495133D01*
X140365001Y-86900718D01*
X140101161Y-87295582D01*
X140015000Y-87728744D01*
X140015000Y-88271255D01*
X140101161Y-88704417D01*
X140429375Y-89195625D01*
X140920582Y-89523839D01*
X141500000Y-89639092D01*
X142079417Y-89523839D01*
X142570625Y-89195625D01*
X142750000Y-88927171D01*
X142929375Y-89195625D01*
X143420582Y-89523839D01*
X144000000Y-89639092D01*
X144579417Y-89523839D01*
X145070625Y-89195625D01*
X145113242Y-89131844D01*
X145265414Y-89359586D01*
X145556565Y-89554126D01*
X145900000Y-89622440D01*
X147100000Y-89622440D01*
X147443435Y-89554126D01*
X147734586Y-89359586D01*
X147929126Y-89068435D01*
X147997440Y-88725000D01*
X147997440Y-87275000D01*
X147929126Y-86931565D01*
X147734586Y-86640414D01*
X147635000Y-86573873D01*
X147635000Y-85611782D01*
X147657235Y-85500000D01*
X147569146Y-85057145D01*
X147519202Y-84982399D01*
X147318289Y-84681711D01*
X147223522Y-84618390D01*
X143930381Y-81325250D01*
X144275540Y-81325250D01*
X144784678Y-81114359D01*
X145174356Y-80724681D01*
X145385247Y-80215543D01*
X145385247Y-79664457D01*
X145174356Y-79155319D01*
X144784678Y-78765641D01*
X144275540Y-78554750D01*
X143724454Y-78554750D01*
X143585249Y-78612410D01*
X143585249Y-78502035D01*
X143607484Y-78390252D01*
X143582891Y-78266614D01*
X143724454Y-78325251D01*
X144275540Y-78325251D01*
X144784678Y-78114360D01*
X145174356Y-77724682D01*
X145385247Y-77215544D01*
X145385247Y-76664458D01*
X145614746Y-76664458D01*
X145614746Y-77215544D01*
X145825637Y-77724682D01*
X146215315Y-78114360D01*
X146724453Y-78325251D01*
X146780115Y-78325251D01*
X147009613Y-78554750D01*
X146724453Y-78554750D01*
X146215315Y-78765641D01*
X145825637Y-79155319D01*
X145614746Y-79664457D01*
X145614746Y-80215543D01*
X145825637Y-80724681D01*
X146215315Y-81114359D01*
X146724453Y-81325250D01*
X147275539Y-81325250D01*
X147315247Y-81308802D01*
X147315247Y-82213464D01*
X147293012Y-82325247D01*
X147349035Y-82606894D01*
X147381101Y-82768101D01*
X147631958Y-83143536D01*
X147726729Y-83206860D01*
X152515000Y-87995132D01*
X152515000Y-88271255D01*
X152601161Y-88704417D01*
X152929375Y-89195625D01*
X153420582Y-89523839D01*
X154000000Y-89639092D01*
X154579417Y-89523839D01*
X155070625Y-89195625D01*
X155250000Y-88927171D01*
X155429375Y-89195625D01*
X155920582Y-89523839D01*
X156500000Y-89639092D01*
X157079417Y-89523839D01*
X157570625Y-89195625D01*
X157613242Y-89131844D01*
X157765414Y-89359586D01*
X158056565Y-89554126D01*
X158400000Y-89622440D01*
X159600000Y-89622440D01*
X159943435Y-89554126D01*
X160234586Y-89359586D01*
X160429126Y-89068435D01*
X160497440Y-88725000D01*
X160497440Y-87275000D01*
X160429126Y-86931565D01*
X160234586Y-86640414D01*
X159943435Y-86445874D01*
X159600000Y-86377560D01*
X158982693Y-86377560D01*
X156635000Y-84029869D01*
X156635000Y-79551788D01*
X156657235Y-79440006D01*
X156635000Y-79328224D01*
X156569146Y-78997152D01*
X156318289Y-78621718D01*
X156223521Y-78558397D01*
X154385244Y-76720120D01*
X154385244Y-76664458D01*
X154174353Y-76155320D01*
X153791278Y-75772245D01*
X154854993Y-75772245D01*
X154854993Y-76227755D01*
X155029309Y-76648590D01*
X155351403Y-76970684D01*
X155772238Y-77145000D01*
X156227748Y-77145000D01*
X156648583Y-76970684D01*
X156970677Y-76648590D01*
X157144993Y-76227755D01*
X157144993Y-75772245D01*
X156970677Y-75351410D01*
X156648583Y-75029316D01*
X156227748Y-74855000D01*
X155772238Y-74855000D01*
X155351403Y-75029316D01*
X155029309Y-75351410D01*
X154854993Y-75772245D01*
X153791278Y-75772245D01*
X153784675Y-75765642D01*
X153275537Y-75554751D01*
X152724451Y-75554751D01*
X152215313Y-75765642D01*
X151825635Y-76155320D01*
X151614744Y-76664458D01*
X151614744Y-76949618D01*
X151385245Y-76720120D01*
X151385245Y-76664458D01*
X151174354Y-76155320D01*
X150784676Y-75765642D01*
X150275538Y-75554751D01*
X149724452Y-75554751D01*
X149215314Y-75765642D01*
X148825636Y-76155320D01*
X148614745Y-76664458D01*
X148614745Y-76949618D01*
X148385246Y-76720120D01*
X148385246Y-76664458D01*
X148174355Y-76155320D01*
X147784677Y-75765642D01*
X147275539Y-75554751D01*
X146724453Y-75554751D01*
X146215315Y-75765642D01*
X145825637Y-76155320D01*
X145614746Y-76664458D01*
X145385247Y-76664458D01*
X145174356Y-76155320D01*
X144784678Y-75765642D01*
X144275540Y-75554751D01*
X143724454Y-75554751D01*
X143215316Y-75765642D01*
X142825638Y-76155320D01*
X142614747Y-76664458D01*
X142614747Y-76949618D01*
X142385248Y-76720120D01*
X142385248Y-76664458D01*
X142174357Y-76155320D01*
X141784679Y-75765642D01*
X141275541Y-75554751D01*
X140724455Y-75554751D01*
X140215317Y-75765642D01*
X139825639Y-76155320D01*
X139614748Y-76664458D01*
X139614748Y-76949618D01*
X139385249Y-76720120D01*
X139385249Y-76664458D01*
X139174358Y-76155320D01*
X138784680Y-75765642D01*
X138275542Y-75554751D01*
X137724456Y-75554751D01*
X137215318Y-75765642D01*
X136825640Y-76155320D01*
X136614749Y-76664458D01*
X136385250Y-76664458D01*
X136174359Y-76155320D01*
X135784681Y-75765642D01*
X135275543Y-75554751D01*
X134724457Y-75554751D01*
X134215319Y-75765642D01*
X133825641Y-76155320D01*
X133614750Y-76664458D01*
X133614750Y-76720119D01*
X133385250Y-76949620D01*
X133385250Y-76664458D01*
X133174359Y-76155320D01*
X132784681Y-75765642D01*
X132275543Y-75554751D01*
X131724457Y-75554751D01*
X131215319Y-75765642D01*
X130825641Y-76155320D01*
X130614750Y-76664458D01*
X130614750Y-76720118D01*
X125776480Y-81558390D01*
X125681712Y-81621712D01*
X125525435Y-81855597D01*
X125430854Y-81997147D01*
X125342765Y-82440001D01*
X125365001Y-82551789D01*
X125365000Y-86900719D01*
X125101161Y-87295582D01*
X125015000Y-87728744D01*
X120710000Y-87728744D01*
X120710000Y-76033325D01*
X121087947Y-76945771D01*
X122054229Y-77912053D01*
X123316736Y-78435000D01*
X124683264Y-78435000D01*
X125945771Y-77912053D01*
X126912053Y-76945771D01*
X127398142Y-75772245D01*
X127855047Y-75772245D01*
X127855047Y-76227755D01*
X128029363Y-76648590D01*
X128351457Y-76970684D01*
X128772292Y-77145000D01*
X129227802Y-77145000D01*
X129648637Y-76970684D01*
X129970731Y-76648590D01*
X130145047Y-76227755D01*
X130145047Y-75772245D01*
X129970731Y-75351410D01*
X129648637Y-75029316D01*
X129227802Y-74855000D01*
X128772292Y-74855000D01*
X128351457Y-75029316D01*
X128029363Y-75351410D01*
X127855047Y-75772245D01*
X127398142Y-75772245D01*
X127435000Y-75683264D01*
X127435000Y-74316736D01*
X126912053Y-73054229D01*
X125945771Y-72087947D01*
X125033325Y-71710000D01*
X159966675Y-71710000D01*
X159054229Y-72087947D01*
X159054229Y-72087947D01*
G37*
X159054229Y-72087947D02*
X158087947Y-73054229D01*
X157565000Y-74316736D01*
X157565000Y-75683264D01*
X158087947Y-76945771D01*
X159054229Y-77912053D01*
X160316736Y-78435000D01*
X161683264Y-78435000D01*
X162945771Y-77912053D01*
X163912053Y-76945771D01*
X164290001Y-76033323D01*
X164290000Y-98430070D01*
X164255074Y-98605655D01*
X164195225Y-98695226D01*
X164105655Y-98755074D01*
X163930070Y-98790000D01*
X121069930Y-98790000D01*
X120894345Y-98755074D01*
X120804774Y-98695225D01*
X120744926Y-98605655D01*
X120710000Y-98430070D01*
X120710000Y-95728744D01*
X122015000Y-95728744D01*
X122015000Y-96271255D01*
X122101161Y-96704417D01*
X122429375Y-97195625D01*
X122920582Y-97523839D01*
X123500000Y-97639092D01*
X124079417Y-97523839D01*
X124570625Y-97195625D01*
X124753246Y-96922313D01*
X125128807Y-97327497D01*
X125643110Y-97566476D01*
X125873000Y-97445155D01*
X125873000Y-96127000D01*
X125853000Y-96127000D01*
X125853000Y-95873000D01*
X125873000Y-95873000D01*
X125873000Y-94554845D01*
X126127000Y-94554845D01*
X126127000Y-95873000D01*
X126147000Y-95873000D01*
X126147000Y-96127000D01*
X126127000Y-96127000D01*
X126127000Y-97445155D01*
X126356890Y-97566476D01*
X126871193Y-97327497D01*
X127246754Y-96922313D01*
X127429375Y-97195625D01*
X127920582Y-97523839D01*
X128500000Y-97639092D01*
X129079417Y-97523839D01*
X129570625Y-97195625D01*
X129750000Y-96927171D01*
X129929375Y-97195625D01*
X130420582Y-97523839D01*
X131000000Y-97639092D01*
X131579417Y-97523839D01*
X132057656Y-97204291D01*
X132111673Y-97334699D01*
X132290302Y-97513327D01*
X132523691Y-97610000D01*
X133214250Y-97610000D01*
X133373000Y-97451250D01*
X133373000Y-96127000D01*
X133627000Y-96127000D01*
X133627000Y-97451250D01*
X133785750Y-97610000D01*
X134476309Y-97610000D01*
X134709698Y-97513327D01*
X134888327Y-97334699D01*
X134985000Y-97101310D01*
X134985000Y-96285750D01*
X134826250Y-96127000D01*
X133627000Y-96127000D01*
X133373000Y-96127000D01*
X133353000Y-96127000D01*
X133353000Y-95873000D01*
X133373000Y-95873000D01*
X133373000Y-94548750D01*
X133627000Y-94548750D01*
X133627000Y-95873000D01*
X134826250Y-95873000D01*
X134985000Y-95714250D01*
X134985000Y-94898690D01*
X134888327Y-94665301D01*
X134709698Y-94486673D01*
X134476309Y-94390000D01*
X133785750Y-94390000D01*
X133627000Y-94548750D01*
X133373000Y-94548750D01*
X133214250Y-94390000D01*
X132523691Y-94390000D01*
X132290302Y-94486673D01*
X132111673Y-94665301D01*
X132057656Y-94795709D01*
X131579418Y-94476161D01*
X131000000Y-94360908D01*
X130420583Y-94476161D01*
X129929375Y-94804375D01*
X129750000Y-95072829D01*
X129570625Y-94804375D01*
X129079418Y-94476161D01*
X128500000Y-94360908D01*
X127920583Y-94476161D01*
X127429375Y-94804375D01*
X127246754Y-95077687D01*
X126871193Y-94672503D01*
X126356890Y-94433524D01*
X126127000Y-94554845D01*
X125873000Y-94554845D01*
X125643110Y-94433524D01*
X125128807Y-94672503D01*
X124753246Y-95077687D01*
X124570625Y-94804375D01*
X124079418Y-94476161D01*
X123500000Y-94360908D01*
X122920583Y-94476161D01*
X122429375Y-94804375D01*
X122101161Y-95295582D01*
X122015000Y-95728744D01*
X120710000Y-95728744D01*
X120710000Y-93816736D01*
X139065000Y-93816736D01*
X139065000Y-95183264D01*
X139587947Y-96445771D01*
X140554229Y-97412053D01*
X141816736Y-97935000D01*
X143183264Y-97935000D01*
X144445771Y-97412053D01*
X145412053Y-96445771D01*
X145719410Y-95703744D01*
X148015000Y-95703744D01*
X148015000Y-96296255D01*
X148101161Y-96729417D01*
X148429375Y-97220625D01*
X148920582Y-97548839D01*
X149500000Y-97664092D01*
X150079417Y-97548839D01*
X150557656Y-97229291D01*
X150611673Y-97359699D01*
X150790302Y-97538327D01*
X151023691Y-97635000D01*
X151714250Y-97635000D01*
X151873000Y-97476250D01*
X151873000Y-96127000D01*
X152127000Y-96127000D01*
X152127000Y-97476250D01*
X152285750Y-97635000D01*
X152976309Y-97635000D01*
X153209698Y-97538327D01*
X153388327Y-97359699D01*
X153485000Y-97126310D01*
X153485000Y-96285750D01*
X153326250Y-96127000D01*
X152127000Y-96127000D01*
X151873000Y-96127000D01*
X151853000Y-96127000D01*
X151853000Y-95873000D01*
X151873000Y-95873000D01*
X151873000Y-94523750D01*
X152127000Y-94523750D01*
X152127000Y-95873000D01*
X153326250Y-95873000D01*
X153485000Y-95714250D01*
X153485000Y-95703744D01*
X157515000Y-95703744D01*
X157515000Y-96296255D01*
X157601161Y-96729417D01*
X157929375Y-97220625D01*
X158420582Y-97548839D01*
X159000000Y-97664092D01*
X159579417Y-97548839D01*
X160057656Y-97229291D01*
X160111673Y-97359699D01*
X160290302Y-97538327D01*
X160523691Y-97635000D01*
X161214250Y-97635000D01*
X161373000Y-97476250D01*
X161373000Y-96127000D01*
X161627000Y-96127000D01*
X161627000Y-97476250D01*
X161785750Y-97635000D01*
X162476309Y-97635000D01*
X162709698Y-97538327D01*
X162888327Y-97359699D01*
X162985000Y-97126310D01*
X162985000Y-96285750D01*
X162826250Y-96127000D01*
X161627000Y-96127000D01*
X161373000Y-96127000D01*
X161353000Y-96127000D01*
X161353000Y-95873000D01*
X161373000Y-95873000D01*
X161373000Y-94523750D01*
X161627000Y-94523750D01*
X161627000Y-95873000D01*
X162826250Y-95873000D01*
X162985000Y-95714250D01*
X162985000Y-94873690D01*
X162888327Y-94640301D01*
X162709698Y-94461673D01*
X162476309Y-94365000D01*
X161785750Y-94365000D01*
X161627000Y-94523750D01*
X161373000Y-94523750D01*
X161214250Y-94365000D01*
X160523691Y-94365000D01*
X160290302Y-94461673D01*
X160111673Y-94640301D01*
X160057656Y-94770709D01*
X159579418Y-94451161D01*
X159000000Y-94335908D01*
X158420583Y-94451161D01*
X157929375Y-94779375D01*
X157601161Y-95270582D01*
X157515000Y-95703744D01*
X153485000Y-95703744D01*
X153485000Y-94873690D01*
X153388327Y-94640301D01*
X153209698Y-94461673D01*
X152976309Y-94365000D01*
X152285750Y-94365000D01*
X152127000Y-94523750D01*
X151873000Y-94523750D01*
X151714250Y-94365000D01*
X151023691Y-94365000D01*
X150790302Y-94461673D01*
X150611673Y-94640301D01*
X150557656Y-94770709D01*
X150079418Y-94451161D01*
X149500000Y-94335908D01*
X148920583Y-94451161D01*
X148429375Y-94779375D01*
X148101161Y-95270582D01*
X148015000Y-95703744D01*
X145719410Y-95703744D01*
X145935000Y-95183264D01*
X145935000Y-93816736D01*
X145412053Y-92554229D01*
X144445771Y-91587947D01*
X143183264Y-91065000D01*
X141816736Y-91065000D01*
X140554229Y-91587947D01*
X139587947Y-92554229D01*
X139065000Y-93816736D01*
X120710000Y-93816736D01*
X120710000Y-87728744D01*
X125015000Y-87728744D01*
X125015000Y-88271255D01*
X125101161Y-88704417D01*
X125429375Y-89195625D01*
X125920582Y-89523839D01*
X126500000Y-89639092D01*
X127079417Y-89523839D01*
X127570625Y-89195625D01*
X127750000Y-88927171D01*
X127929375Y-89195625D01*
X128420582Y-89523839D01*
X129000000Y-89639092D01*
X129579417Y-89523839D01*
X130070625Y-89195625D01*
X130250000Y-88927171D01*
X130429375Y-89195625D01*
X130920582Y-89523839D01*
X131500000Y-89639092D01*
X132079417Y-89523839D01*
X132570625Y-89195625D01*
X132613242Y-89131844D01*
X132765414Y-89359586D01*
X133056565Y-89554126D01*
X133400000Y-89622440D01*
X134600000Y-89622440D01*
X134943435Y-89554126D01*
X135234586Y-89359586D01*
X135429126Y-89068435D01*
X135497440Y-88725000D01*
X135497440Y-87275000D01*
X135429126Y-86931565D01*
X135234586Y-86640414D01*
X135135000Y-86573873D01*
X135135000Y-82970132D01*
X135723524Y-82381609D01*
X135818289Y-82318289D01*
X136069146Y-81942855D01*
X136100990Y-81782765D01*
X136157235Y-81500000D01*
X136135000Y-81388217D01*
X136135000Y-80764040D01*
X136174359Y-80724681D01*
X136385250Y-80215543D01*
X136385250Y-79664457D01*
X136174359Y-79155319D01*
X135784681Y-78765641D01*
X135275543Y-78554750D01*
X134990382Y-78554750D01*
X135219882Y-78325251D01*
X135275543Y-78325251D01*
X135784681Y-78114360D01*
X136174359Y-77724682D01*
X136385250Y-77215544D01*
X136385250Y-76664458D01*
X136614749Y-76664458D01*
X136614749Y-77215544D01*
X136825640Y-77724682D01*
X137215318Y-78114360D01*
X137724456Y-78325251D01*
X137780118Y-78325251D01*
X138009616Y-78554750D01*
X137724456Y-78554750D01*
X137215318Y-78765641D01*
X136825640Y-79155319D01*
X136614749Y-79664457D01*
X136614749Y-80215543D01*
X136825640Y-80724681D01*
X136864999Y-80764040D01*
X136865000Y-81888212D01*
X136864999Y-81888217D01*
X136864999Y-82413216D01*
X136842764Y-82524999D01*
X136891120Y-82768101D01*
X136930853Y-82967853D01*
X137181710Y-83343288D01*
X137276481Y-83406612D01*
X140365001Y-86495133D01*
X140365001Y-86900718D01*
X140101161Y-87295582D01*
X140015000Y-87728744D01*
X140015000Y-88271255D01*
X140101161Y-88704417D01*
X140429375Y-89195625D01*
X140920582Y-89523839D01*
X141500000Y-89639092D01*
X142079417Y-89523839D01*
X142570625Y-89195625D01*
X142750000Y-88927171D01*
X142929375Y-89195625D01*
X143420582Y-89523839D01*
X144000000Y-89639092D01*
X144579417Y-89523839D01*
X145070625Y-89195625D01*
X145113242Y-89131844D01*
X145265414Y-89359586D01*
X145556565Y-89554126D01*
X145900000Y-89622440D01*
X147100000Y-89622440D01*
X147443435Y-89554126D01*
X147734586Y-89359586D01*
X147929126Y-89068435D01*
X147997440Y-88725000D01*
X147997440Y-87275000D01*
X147929126Y-86931565D01*
X147734586Y-86640414D01*
X147635000Y-86573873D01*
X147635000Y-85611782D01*
X147657235Y-85500000D01*
X147569146Y-85057145D01*
X147519202Y-84982399D01*
X147318289Y-84681711D01*
X147223522Y-84618390D01*
X143930381Y-81325250D01*
X144275540Y-81325250D01*
X144784678Y-81114359D01*
X145174356Y-80724681D01*
X145385247Y-80215543D01*
X145385247Y-79664457D01*
X145174356Y-79155319D01*
X144784678Y-78765641D01*
X144275540Y-78554750D01*
X143724454Y-78554750D01*
X143585249Y-78612410D01*
X143585249Y-78502035D01*
X143607484Y-78390252D01*
X143582891Y-78266614D01*
X143724454Y-78325251D01*
X144275540Y-78325251D01*
X144784678Y-78114360D01*
X145174356Y-77724682D01*
X145385247Y-77215544D01*
X145385247Y-76664458D01*
X145614746Y-76664458D01*
X145614746Y-77215544D01*
X145825637Y-77724682D01*
X146215315Y-78114360D01*
X146724453Y-78325251D01*
X146780115Y-78325251D01*
X147009613Y-78554750D01*
X146724453Y-78554750D01*
X146215315Y-78765641D01*
X145825637Y-79155319D01*
X145614746Y-79664457D01*
X145614746Y-80215543D01*
X145825637Y-80724681D01*
X146215315Y-81114359D01*
X146724453Y-81325250D01*
X147275539Y-81325250D01*
X147315247Y-81308802D01*
X147315247Y-82213464D01*
X147293012Y-82325247D01*
X147349035Y-82606894D01*
X147381101Y-82768101D01*
X147631958Y-83143536D01*
X147726729Y-83206860D01*
X152515000Y-87995132D01*
X152515000Y-88271255D01*
X152601161Y-88704417D01*
X152929375Y-89195625D01*
X153420582Y-89523839D01*
X154000000Y-89639092D01*
X154579417Y-89523839D01*
X155070625Y-89195625D01*
X155250000Y-88927171D01*
X155429375Y-89195625D01*
X155920582Y-89523839D01*
X156500000Y-89639092D01*
X157079417Y-89523839D01*
X157570625Y-89195625D01*
X157613242Y-89131844D01*
X157765414Y-89359586D01*
X158056565Y-89554126D01*
X158400000Y-89622440D01*
X159600000Y-89622440D01*
X159943435Y-89554126D01*
X160234586Y-89359586D01*
X160429126Y-89068435D01*
X160497440Y-88725000D01*
X160497440Y-87275000D01*
X160429126Y-86931565D01*
X160234586Y-86640414D01*
X159943435Y-86445874D01*
X159600000Y-86377560D01*
X158982693Y-86377560D01*
X156635000Y-84029869D01*
X156635000Y-79551788D01*
X156657235Y-79440006D01*
X156635000Y-79328224D01*
X156569146Y-78997152D01*
X156318289Y-78621718D01*
X156223521Y-78558397D01*
X154385244Y-76720120D01*
X154385244Y-76664458D01*
X154174353Y-76155320D01*
X153791278Y-75772245D01*
X154854993Y-75772245D01*
X154854993Y-76227755D01*
X155029309Y-76648590D01*
X155351403Y-76970684D01*
X155772238Y-77145000D01*
X156227748Y-77145000D01*
X156648583Y-76970684D01*
X156970677Y-76648590D01*
X157144993Y-76227755D01*
X157144993Y-75772245D01*
X156970677Y-75351410D01*
X156648583Y-75029316D01*
X156227748Y-74855000D01*
X155772238Y-74855000D01*
X155351403Y-75029316D01*
X155029309Y-75351410D01*
X154854993Y-75772245D01*
X153791278Y-75772245D01*
X153784675Y-75765642D01*
X153275537Y-75554751D01*
X152724451Y-75554751D01*
X152215313Y-75765642D01*
X151825635Y-76155320D01*
X151614744Y-76664458D01*
X151614744Y-76949618D01*
X151385245Y-76720120D01*
X151385245Y-76664458D01*
X151174354Y-76155320D01*
X150784676Y-75765642D01*
X150275538Y-75554751D01*
X149724452Y-75554751D01*
X149215314Y-75765642D01*
X148825636Y-76155320D01*
X148614745Y-76664458D01*
X148614745Y-76949618D01*
X148385246Y-76720120D01*
X148385246Y-76664458D01*
X148174355Y-76155320D01*
X147784677Y-75765642D01*
X147275539Y-75554751D01*
X146724453Y-75554751D01*
X146215315Y-75765642D01*
X145825637Y-76155320D01*
X145614746Y-76664458D01*
X145385247Y-76664458D01*
X145174356Y-76155320D01*
X144784678Y-75765642D01*
X144275540Y-75554751D01*
X143724454Y-75554751D01*
X143215316Y-75765642D01*
X142825638Y-76155320D01*
X142614747Y-76664458D01*
X142614747Y-76949618D01*
X142385248Y-76720120D01*
X142385248Y-76664458D01*
X142174357Y-76155320D01*
X141784679Y-75765642D01*
X141275541Y-75554751D01*
X140724455Y-75554751D01*
X140215317Y-75765642D01*
X139825639Y-76155320D01*
X139614748Y-76664458D01*
X139614748Y-76949618D01*
X139385249Y-76720120D01*
X139385249Y-76664458D01*
X139174358Y-76155320D01*
X138784680Y-75765642D01*
X138275542Y-75554751D01*
X137724456Y-75554751D01*
X137215318Y-75765642D01*
X136825640Y-76155320D01*
X136614749Y-76664458D01*
X136385250Y-76664458D01*
X136174359Y-76155320D01*
X135784681Y-75765642D01*
X135275543Y-75554751D01*
X134724457Y-75554751D01*
X134215319Y-75765642D01*
X133825641Y-76155320D01*
X133614750Y-76664458D01*
X133614750Y-76720119D01*
X133385250Y-76949620D01*
X133385250Y-76664458D01*
X133174359Y-76155320D01*
X132784681Y-75765642D01*
X132275543Y-75554751D01*
X131724457Y-75554751D01*
X131215319Y-75765642D01*
X130825641Y-76155320D01*
X130614750Y-76664458D01*
X130614750Y-76720118D01*
X125776480Y-81558390D01*
X125681712Y-81621712D01*
X125525435Y-81855597D01*
X125430854Y-81997147D01*
X125342765Y-82440001D01*
X125365001Y-82551789D01*
X125365000Y-86900719D01*
X125101161Y-87295582D01*
X125015000Y-87728744D01*
X120710000Y-87728744D01*
X120710000Y-76033325D01*
X121087947Y-76945771D01*
X122054229Y-77912053D01*
X123316736Y-78435000D01*
X124683264Y-78435000D01*
X125945771Y-77912053D01*
X126912053Y-76945771D01*
X127398142Y-75772245D01*
X127855047Y-75772245D01*
X127855047Y-76227755D01*
X128029363Y-76648590D01*
X128351457Y-76970684D01*
X128772292Y-77145000D01*
X129227802Y-77145000D01*
X129648637Y-76970684D01*
X129970731Y-76648590D01*
X130145047Y-76227755D01*
X130145047Y-75772245D01*
X129970731Y-75351410D01*
X129648637Y-75029316D01*
X129227802Y-74855000D01*
X128772292Y-74855000D01*
X128351457Y-75029316D01*
X128029363Y-75351410D01*
X127855047Y-75772245D01*
X127398142Y-75772245D01*
X127435000Y-75683264D01*
X127435000Y-74316736D01*
X126912053Y-73054229D01*
X125945771Y-72087947D01*
X125033325Y-71710000D01*
X159966675Y-71710000D01*
X159054229Y-72087947D01*
G36*
X152724451Y-78325251D02*
X152780113Y-78325251D01*
X153147678Y-78692816D01*
X153126994Y-78713500D01*
X153126994Y-79813000D01*
X153146994Y-79813000D01*
X153146994Y-80067000D01*
X153126994Y-80067000D01*
X153126994Y-81166500D01*
X153285744Y-81325250D01*
X153876553Y-81325250D01*
X154109942Y-81228577D01*
X154288571Y-81049949D01*
X154365000Y-80865433D01*
X154365001Y-84134869D01*
X152684743Y-82454612D01*
X152684743Y-81325250D01*
X152714244Y-81325250D01*
X152872994Y-81166500D01*
X152872994Y-80067000D01*
X152852994Y-80067000D01*
X152852994Y-79813000D01*
X152872994Y-79813000D01*
X152872994Y-78713500D01*
X152714244Y-78554750D01*
X152694049Y-78554750D01*
X152706978Y-78489749D01*
X152669751Y-78302593D01*
X152724451Y-78325251D01*
X152724451Y-78325251D01*
G37*
X152724451Y-78325251D02*
X152780113Y-78325251D01*
X153147678Y-78692816D01*
X153126994Y-78713500D01*
X153126994Y-79813000D01*
X153146994Y-79813000D01*
X153146994Y-80067000D01*
X153126994Y-80067000D01*
X153126994Y-81166500D01*
X153285744Y-81325250D01*
X153876553Y-81325250D01*
X154109942Y-81228577D01*
X154288571Y-81049949D01*
X154365000Y-80865433D01*
X154365001Y-84134869D01*
X152684743Y-82454612D01*
X152684743Y-81325250D01*
X152714244Y-81325250D01*
X152872994Y-81166500D01*
X152872994Y-80067000D01*
X152852994Y-80067000D01*
X152852994Y-79813000D01*
X152872994Y-79813000D01*
X152872994Y-78713500D01*
X152714244Y-78554750D01*
X152694049Y-78554750D01*
X152706978Y-78489749D01*
X152669751Y-78302593D01*
X152724451Y-78325251D01*
M02*
