%TF.GenerationSoftware,KiCad,Pcbnew,5.0.2+dfsg1-1*%
%TF.CreationDate,2022-04-03T13:41:23+09:00*%
%TF.ProjectId,toolhead-board,746f6f6c-6865-4616-942d-626f6172642e,rev?*%
%TF.SameCoordinates,Original*%
%TF.FileFunction,Soldermask,Bot*%
%TF.FilePolarity,Negative*%
%FSLAX46Y46*%
G04 Gerber Fmt 4.6, Leading zero omitted, Abs format (unit mm)*
G04 Created by KiCad (PCBNEW 5.0.2+dfsg1-1) date Sun 03 Apr 2022 01:41:23 PM JST*
%MOMM*%
%LPD*%
G01*
G04 APERTURE LIST*
%ADD10C,0.150000*%
%ADD11C,0.100000*%
G04 APERTURE END LIST*
D10*
X165000000Y-98500000D02*
G75*
G02X164000000Y-99500000I-1000000J0D01*
G01*
X121000000Y-99500000D02*
G75*
G02X120000000Y-98500000I0J1000000D01*
G01*
X161000000Y-71000000D02*
G75*
G02X165000000Y-75000000I0J-4000000D01*
G01*
X120000000Y-75000000D02*
G75*
G02X124000000Y-71000000I4000000J0D01*
G01*
X120000000Y-75000000D02*
X120000000Y-98500000D01*
X161000000Y-71000000D02*
X124000000Y-71000000D01*
X165000000Y-98500000D02*
X165000000Y-75000000D01*
X121000000Y-99500000D02*
X164000000Y-99500000D01*
D11*
G36*
X143056202Y-91703781D02*
X143331606Y-91758562D01*
X143850455Y-91973476D01*
X144314259Y-92283380D01*
X144317410Y-92285486D01*
X144714514Y-92682590D01*
X144714516Y-92682593D01*
X145026524Y-93149545D01*
X145026524Y-93149546D01*
X145241438Y-93668395D01*
X145351000Y-94219200D01*
X145351000Y-94780800D01*
X145308659Y-94993661D01*
X145241438Y-95331606D01*
X145026524Y-95850455D01*
X144813505Y-96169260D01*
X144714514Y-96317410D01*
X144317410Y-96714514D01*
X144317407Y-96714516D01*
X143850455Y-97026524D01*
X143331606Y-97241438D01*
X143056202Y-97296219D01*
X142780800Y-97351000D01*
X142219200Y-97351000D01*
X141668394Y-97241438D01*
X141149545Y-97026524D01*
X140682593Y-96714516D01*
X140682590Y-96714514D01*
X140285486Y-96317410D01*
X140186495Y-96169260D01*
X139973476Y-95850455D01*
X139758562Y-95331606D01*
X139691341Y-94993661D01*
X139649000Y-94780800D01*
X139649000Y-94219200D01*
X139758562Y-93668395D01*
X139973476Y-93149546D01*
X139973476Y-93149545D01*
X140285484Y-92682593D01*
X140285486Y-92682590D01*
X140682590Y-92285486D01*
X140685741Y-92283380D01*
X141149545Y-91973476D01*
X141668394Y-91758562D01*
X142219200Y-91649000D01*
X142780800Y-91649000D01*
X143056202Y-91703781D01*
X143056202Y-91703781D01*
G37*
G36*
X149676627Y-94962037D02*
X149782562Y-94994172D01*
X149846467Y-95013557D01*
X149977040Y-95083351D01*
X150002991Y-95097222D01*
X150026359Y-95116400D01*
X150140186Y-95209814D01*
X150223448Y-95311271D01*
X150252778Y-95347009D01*
X150336443Y-95503534D01*
X150387963Y-95673374D01*
X150401000Y-95805743D01*
X150401000Y-96194258D01*
X150387963Y-96326627D01*
X150353616Y-96439853D01*
X150336443Y-96496467D01*
X150266142Y-96627989D01*
X150252778Y-96652991D01*
X150223448Y-96688729D01*
X150140186Y-96790186D01*
X150002989Y-96902779D01*
X149846466Y-96986443D01*
X149815929Y-96995706D01*
X149676626Y-97037963D01*
X149500000Y-97055359D01*
X149323373Y-97037963D01*
X149184070Y-96995706D01*
X149153533Y-96986443D01*
X148997011Y-96902779D01*
X148997009Y-96902778D01*
X148947822Y-96862411D01*
X148859814Y-96790186D01*
X148747221Y-96652989D01*
X148663557Y-96496466D01*
X148646384Y-96439852D01*
X148612037Y-96326626D01*
X148599000Y-96194257D01*
X148599000Y-95805742D01*
X148612037Y-95673373D01*
X148655973Y-95528534D01*
X148663557Y-95503533D01*
X148747222Y-95347008D01*
X148859812Y-95209817D01*
X148954750Y-95131904D01*
X148997010Y-95097222D01*
X149022961Y-95083351D01*
X149153534Y-95013557D01*
X149217439Y-94994172D01*
X149323374Y-94962037D01*
X149500000Y-94944641D01*
X149676627Y-94962037D01*
X149676627Y-94962037D01*
G37*
G36*
X159176627Y-94962037D02*
X159282562Y-94994172D01*
X159346467Y-95013557D01*
X159477040Y-95083351D01*
X159502991Y-95097222D01*
X159526359Y-95116400D01*
X159640186Y-95209814D01*
X159723448Y-95311271D01*
X159752778Y-95347009D01*
X159836443Y-95503534D01*
X159887963Y-95673374D01*
X159901000Y-95805743D01*
X159901000Y-96194258D01*
X159887963Y-96326627D01*
X159853616Y-96439853D01*
X159836443Y-96496467D01*
X159766142Y-96627989D01*
X159752778Y-96652991D01*
X159723448Y-96688729D01*
X159640186Y-96790186D01*
X159502989Y-96902779D01*
X159346466Y-96986443D01*
X159315929Y-96995706D01*
X159176626Y-97037963D01*
X159000000Y-97055359D01*
X158823373Y-97037963D01*
X158684070Y-96995706D01*
X158653533Y-96986443D01*
X158497011Y-96902779D01*
X158497009Y-96902778D01*
X158447822Y-96862411D01*
X158359814Y-96790186D01*
X158247221Y-96652989D01*
X158163557Y-96496466D01*
X158146384Y-96439852D01*
X158112037Y-96326626D01*
X158099000Y-96194257D01*
X158099000Y-95805742D01*
X158112037Y-95673373D01*
X158155973Y-95528534D01*
X158163557Y-95503533D01*
X158247222Y-95347008D01*
X158359812Y-95209817D01*
X158454750Y-95131904D01*
X158497010Y-95097222D01*
X158522961Y-95083351D01*
X158653534Y-95013557D01*
X158717439Y-94994172D01*
X158823374Y-94962037D01*
X159000000Y-94944641D01*
X159176627Y-94962037D01*
X159176627Y-94962037D01*
G37*
G36*
X162258600Y-94952989D02*
X162291649Y-94963014D01*
X162322106Y-94979294D01*
X162348799Y-95001201D01*
X162370706Y-95027894D01*
X162386986Y-95058351D01*
X162397011Y-95091400D01*
X162401000Y-95131904D01*
X162401000Y-96868096D01*
X162397011Y-96908600D01*
X162386986Y-96941649D01*
X162370706Y-96972106D01*
X162348799Y-96998799D01*
X162322106Y-97020706D01*
X162291649Y-97036986D01*
X162258600Y-97047011D01*
X162218096Y-97051000D01*
X160781904Y-97051000D01*
X160741400Y-97047011D01*
X160708351Y-97036986D01*
X160677894Y-97020706D01*
X160651201Y-96998799D01*
X160629294Y-96972106D01*
X160613014Y-96941649D01*
X160602989Y-96908600D01*
X160599000Y-96868096D01*
X160599000Y-95131904D01*
X160602989Y-95091400D01*
X160613014Y-95058351D01*
X160629294Y-95027894D01*
X160651201Y-95001201D01*
X160677894Y-94979294D01*
X160708351Y-94963014D01*
X160741400Y-94952989D01*
X160781904Y-94949000D01*
X162218096Y-94949000D01*
X162258600Y-94952989D01*
X162258600Y-94952989D01*
G37*
G36*
X152758600Y-94952989D02*
X152791649Y-94963014D01*
X152822106Y-94979294D01*
X152848799Y-95001201D01*
X152870706Y-95027894D01*
X152886986Y-95058351D01*
X152897011Y-95091400D01*
X152901000Y-95131904D01*
X152901000Y-96868096D01*
X152897011Y-96908600D01*
X152886986Y-96941649D01*
X152870706Y-96972106D01*
X152848799Y-96998799D01*
X152822106Y-97020706D01*
X152791649Y-97036986D01*
X152758600Y-97047011D01*
X152718096Y-97051000D01*
X151281904Y-97051000D01*
X151241400Y-97047011D01*
X151208351Y-97036986D01*
X151177894Y-97020706D01*
X151151201Y-96998799D01*
X151129294Y-96972106D01*
X151113014Y-96941649D01*
X151102989Y-96908600D01*
X151099000Y-96868096D01*
X151099000Y-95131904D01*
X151102989Y-95091400D01*
X151113014Y-95058351D01*
X151129294Y-95027894D01*
X151151201Y-95001201D01*
X151177894Y-94979294D01*
X151208351Y-94963014D01*
X151241400Y-94952989D01*
X151281904Y-94949000D01*
X152718096Y-94949000D01*
X152758600Y-94952989D01*
X152758600Y-94952989D01*
G37*
G36*
X126176627Y-94987037D02*
X126289853Y-95021384D01*
X126346467Y-95038557D01*
X126456218Y-95097221D01*
X126502991Y-95122222D01*
X126538729Y-95151552D01*
X126640186Y-95234814D01*
X126719619Y-95331605D01*
X126752778Y-95372009D01*
X126836443Y-95528534D01*
X126887963Y-95698374D01*
X126887963Y-95698376D01*
X126898538Y-95805740D01*
X126901000Y-95830743D01*
X126901000Y-96169258D01*
X126887963Y-96301627D01*
X126880379Y-96326627D01*
X126836443Y-96471467D01*
X126823080Y-96496467D01*
X126752778Y-96627991D01*
X126732262Y-96652990D01*
X126640186Y-96765186D01*
X126502989Y-96877779D01*
X126346466Y-96961443D01*
X126311314Y-96972106D01*
X126176626Y-97012963D01*
X126000000Y-97030359D01*
X125823373Y-97012963D01*
X125688685Y-96972106D01*
X125653533Y-96961443D01*
X125497011Y-96877779D01*
X125497009Y-96877778D01*
X125448173Y-96837699D01*
X125359814Y-96765186D01*
X125247221Y-96627989D01*
X125163557Y-96471466D01*
X125119621Y-96326626D01*
X125112037Y-96301626D01*
X125105519Y-96235442D01*
X125099000Y-96169259D01*
X125099000Y-95830740D01*
X125112037Y-95698375D01*
X125112037Y-95698373D01*
X125163557Y-95528534D01*
X125163557Y-95528533D01*
X125247222Y-95372008D01*
X125359812Y-95234817D01*
X125454750Y-95156904D01*
X125497010Y-95122222D01*
X125543783Y-95097221D01*
X125653534Y-95038557D01*
X125710148Y-95021384D01*
X125823374Y-94987037D01*
X126000000Y-94969641D01*
X126176627Y-94987037D01*
X126176627Y-94987037D01*
G37*
G36*
X123676627Y-94987037D02*
X123789853Y-95021384D01*
X123846467Y-95038557D01*
X123956218Y-95097221D01*
X124002991Y-95122222D01*
X124038729Y-95151552D01*
X124140186Y-95234814D01*
X124219619Y-95331605D01*
X124252778Y-95372009D01*
X124336443Y-95528534D01*
X124387963Y-95698374D01*
X124387963Y-95698376D01*
X124398538Y-95805740D01*
X124401000Y-95830743D01*
X124401000Y-96169258D01*
X124387963Y-96301627D01*
X124380379Y-96326627D01*
X124336443Y-96471467D01*
X124323080Y-96496467D01*
X124252778Y-96627991D01*
X124232262Y-96652990D01*
X124140186Y-96765186D01*
X124002989Y-96877779D01*
X123846466Y-96961443D01*
X123811314Y-96972106D01*
X123676626Y-97012963D01*
X123500000Y-97030359D01*
X123323373Y-97012963D01*
X123188685Y-96972106D01*
X123153533Y-96961443D01*
X122997011Y-96877779D01*
X122997009Y-96877778D01*
X122948173Y-96837699D01*
X122859814Y-96765186D01*
X122747221Y-96627989D01*
X122663557Y-96471466D01*
X122619621Y-96326626D01*
X122612037Y-96301626D01*
X122605519Y-96235442D01*
X122599000Y-96169259D01*
X122599000Y-95830740D01*
X122612037Y-95698375D01*
X122612037Y-95698373D01*
X122663557Y-95528534D01*
X122663557Y-95528533D01*
X122747222Y-95372008D01*
X122859812Y-95234817D01*
X122954750Y-95156904D01*
X122997010Y-95122222D01*
X123043783Y-95097221D01*
X123153534Y-95038557D01*
X123210148Y-95021384D01*
X123323374Y-94987037D01*
X123500000Y-94969641D01*
X123676627Y-94987037D01*
X123676627Y-94987037D01*
G37*
G36*
X128676627Y-94987037D02*
X128789853Y-95021384D01*
X128846467Y-95038557D01*
X128956218Y-95097221D01*
X129002991Y-95122222D01*
X129038729Y-95151552D01*
X129140186Y-95234814D01*
X129219619Y-95331605D01*
X129252778Y-95372009D01*
X129336443Y-95528534D01*
X129387963Y-95698374D01*
X129387963Y-95698376D01*
X129398538Y-95805740D01*
X129401000Y-95830743D01*
X129401000Y-96169258D01*
X129387963Y-96301627D01*
X129380379Y-96326627D01*
X129336443Y-96471467D01*
X129323080Y-96496467D01*
X129252778Y-96627991D01*
X129232262Y-96652990D01*
X129140186Y-96765186D01*
X129002989Y-96877779D01*
X128846466Y-96961443D01*
X128811314Y-96972106D01*
X128676626Y-97012963D01*
X128500000Y-97030359D01*
X128323373Y-97012963D01*
X128188685Y-96972106D01*
X128153533Y-96961443D01*
X127997011Y-96877779D01*
X127997009Y-96877778D01*
X127948173Y-96837699D01*
X127859814Y-96765186D01*
X127747221Y-96627989D01*
X127663557Y-96471466D01*
X127619621Y-96326626D01*
X127612037Y-96301626D01*
X127605519Y-96235442D01*
X127599000Y-96169259D01*
X127599000Y-95830740D01*
X127612037Y-95698375D01*
X127612037Y-95698373D01*
X127663557Y-95528534D01*
X127663557Y-95528533D01*
X127747222Y-95372008D01*
X127859812Y-95234817D01*
X127954750Y-95156904D01*
X127997010Y-95122222D01*
X128043783Y-95097221D01*
X128153534Y-95038557D01*
X128210148Y-95021384D01*
X128323374Y-94987037D01*
X128500000Y-94969641D01*
X128676627Y-94987037D01*
X128676627Y-94987037D01*
G37*
G36*
X131176627Y-94987037D02*
X131289853Y-95021384D01*
X131346467Y-95038557D01*
X131456218Y-95097221D01*
X131502991Y-95122222D01*
X131538729Y-95151552D01*
X131640186Y-95234814D01*
X131719619Y-95331605D01*
X131752778Y-95372009D01*
X131836443Y-95528534D01*
X131887963Y-95698374D01*
X131887963Y-95698376D01*
X131898538Y-95805740D01*
X131901000Y-95830743D01*
X131901000Y-96169258D01*
X131887963Y-96301627D01*
X131880379Y-96326627D01*
X131836443Y-96471467D01*
X131823080Y-96496467D01*
X131752778Y-96627991D01*
X131732262Y-96652990D01*
X131640186Y-96765186D01*
X131502989Y-96877779D01*
X131346466Y-96961443D01*
X131311314Y-96972106D01*
X131176626Y-97012963D01*
X131000000Y-97030359D01*
X130823373Y-97012963D01*
X130688685Y-96972106D01*
X130653533Y-96961443D01*
X130497011Y-96877779D01*
X130497009Y-96877778D01*
X130448173Y-96837699D01*
X130359814Y-96765186D01*
X130247221Y-96627989D01*
X130163557Y-96471466D01*
X130119621Y-96326626D01*
X130112037Y-96301626D01*
X130105519Y-96235442D01*
X130099000Y-96169259D01*
X130099000Y-95830740D01*
X130112037Y-95698375D01*
X130112037Y-95698373D01*
X130163557Y-95528534D01*
X130163557Y-95528533D01*
X130247222Y-95372008D01*
X130359812Y-95234817D01*
X130454750Y-95156904D01*
X130497010Y-95122222D01*
X130543783Y-95097221D01*
X130653534Y-95038557D01*
X130710148Y-95021384D01*
X130823374Y-94987037D01*
X131000000Y-94969641D01*
X131176627Y-94987037D01*
X131176627Y-94987037D01*
G37*
G36*
X134258600Y-94977989D02*
X134291649Y-94988014D01*
X134322106Y-95004294D01*
X134348799Y-95026201D01*
X134370706Y-95052894D01*
X134386986Y-95083351D01*
X134397011Y-95116400D01*
X134401000Y-95156904D01*
X134401000Y-96843096D01*
X134397011Y-96883600D01*
X134386986Y-96916649D01*
X134370706Y-96947106D01*
X134348799Y-96973799D01*
X134322106Y-96995706D01*
X134291649Y-97011986D01*
X134258600Y-97022011D01*
X134218096Y-97026000D01*
X132781904Y-97026000D01*
X132741400Y-97022011D01*
X132708351Y-97011986D01*
X132677894Y-96995706D01*
X132651201Y-96973799D01*
X132629294Y-96947106D01*
X132613014Y-96916649D01*
X132602989Y-96883600D01*
X132599000Y-96843096D01*
X132599000Y-95156904D01*
X132602989Y-95116400D01*
X132613014Y-95083351D01*
X132629294Y-95052894D01*
X132651201Y-95026201D01*
X132677894Y-95004294D01*
X132708351Y-94988014D01*
X132741400Y-94977989D01*
X132781904Y-94974000D01*
X134218096Y-94974000D01*
X134258600Y-94977989D01*
X134258600Y-94977989D01*
G37*
G36*
X144176627Y-86987037D02*
X144289853Y-87021384D01*
X144346467Y-87038557D01*
X144485087Y-87112652D01*
X144502991Y-87122222D01*
X144538729Y-87151552D01*
X144640186Y-87234814D01*
X144723448Y-87336271D01*
X144752778Y-87372009D01*
X144836443Y-87528534D01*
X144887963Y-87698374D01*
X144901000Y-87830743D01*
X144901000Y-88169258D01*
X144887963Y-88301627D01*
X144853616Y-88414853D01*
X144836443Y-88471467D01*
X144762348Y-88610087D01*
X144752778Y-88627991D01*
X144723448Y-88663729D01*
X144640186Y-88765186D01*
X144502989Y-88877779D01*
X144346466Y-88961443D01*
X144305733Y-88973799D01*
X144176626Y-89012963D01*
X144000000Y-89030359D01*
X143823373Y-89012963D01*
X143694266Y-88973799D01*
X143653533Y-88961443D01*
X143497011Y-88877779D01*
X143497009Y-88877778D01*
X143454749Y-88843096D01*
X143359814Y-88765186D01*
X143247221Y-88627989D01*
X143163557Y-88471466D01*
X143146384Y-88414852D01*
X143112037Y-88301626D01*
X143099000Y-88169257D01*
X143099000Y-87830742D01*
X143112037Y-87698373D01*
X143163557Y-87528534D01*
X143163557Y-87528533D01*
X143247222Y-87372008D01*
X143359812Y-87234817D01*
X143454750Y-87156904D01*
X143497010Y-87122222D01*
X143514914Y-87112652D01*
X143653534Y-87038557D01*
X143710148Y-87021384D01*
X143823374Y-86987037D01*
X144000000Y-86969641D01*
X144176627Y-86987037D01*
X144176627Y-86987037D01*
G37*
G36*
X126676627Y-86987037D02*
X126789853Y-87021384D01*
X126846467Y-87038557D01*
X126985087Y-87112652D01*
X127002991Y-87122222D01*
X127038729Y-87151552D01*
X127140186Y-87234814D01*
X127223448Y-87336271D01*
X127252778Y-87372009D01*
X127336443Y-87528534D01*
X127387963Y-87698374D01*
X127401000Y-87830743D01*
X127401000Y-88169258D01*
X127387963Y-88301627D01*
X127353616Y-88414853D01*
X127336443Y-88471467D01*
X127262348Y-88610087D01*
X127252778Y-88627991D01*
X127223448Y-88663729D01*
X127140186Y-88765186D01*
X127002989Y-88877779D01*
X126846466Y-88961443D01*
X126805733Y-88973799D01*
X126676626Y-89012963D01*
X126500000Y-89030359D01*
X126323373Y-89012963D01*
X126194266Y-88973799D01*
X126153533Y-88961443D01*
X125997011Y-88877779D01*
X125997009Y-88877778D01*
X125954749Y-88843096D01*
X125859814Y-88765186D01*
X125747221Y-88627989D01*
X125663557Y-88471466D01*
X125646384Y-88414852D01*
X125612037Y-88301626D01*
X125599000Y-88169257D01*
X125599000Y-87830742D01*
X125612037Y-87698373D01*
X125663557Y-87528534D01*
X125663557Y-87528533D01*
X125747222Y-87372008D01*
X125859812Y-87234817D01*
X125954750Y-87156904D01*
X125997010Y-87122222D01*
X126014914Y-87112652D01*
X126153534Y-87038557D01*
X126210148Y-87021384D01*
X126323374Y-86987037D01*
X126500000Y-86969641D01*
X126676627Y-86987037D01*
X126676627Y-86987037D01*
G37*
G36*
X129176627Y-86987037D02*
X129289853Y-87021384D01*
X129346467Y-87038557D01*
X129485087Y-87112652D01*
X129502991Y-87122222D01*
X129538729Y-87151552D01*
X129640186Y-87234814D01*
X129723448Y-87336271D01*
X129752778Y-87372009D01*
X129836443Y-87528534D01*
X129887963Y-87698374D01*
X129901000Y-87830743D01*
X129901000Y-88169258D01*
X129887963Y-88301627D01*
X129853616Y-88414853D01*
X129836443Y-88471467D01*
X129762348Y-88610087D01*
X129752778Y-88627991D01*
X129723448Y-88663729D01*
X129640186Y-88765186D01*
X129502989Y-88877779D01*
X129346466Y-88961443D01*
X129305733Y-88973799D01*
X129176626Y-89012963D01*
X129000000Y-89030359D01*
X128823373Y-89012963D01*
X128694266Y-88973799D01*
X128653533Y-88961443D01*
X128497011Y-88877779D01*
X128497009Y-88877778D01*
X128454749Y-88843096D01*
X128359814Y-88765186D01*
X128247221Y-88627989D01*
X128163557Y-88471466D01*
X128146384Y-88414852D01*
X128112037Y-88301626D01*
X128099000Y-88169257D01*
X128099000Y-87830742D01*
X128112037Y-87698373D01*
X128163557Y-87528534D01*
X128163557Y-87528533D01*
X128247222Y-87372008D01*
X128359812Y-87234817D01*
X128454750Y-87156904D01*
X128497010Y-87122222D01*
X128514914Y-87112652D01*
X128653534Y-87038557D01*
X128710148Y-87021384D01*
X128823374Y-86987037D01*
X129000000Y-86969641D01*
X129176627Y-86987037D01*
X129176627Y-86987037D01*
G37*
G36*
X131676627Y-86987037D02*
X131789853Y-87021384D01*
X131846467Y-87038557D01*
X131985087Y-87112652D01*
X132002991Y-87122222D01*
X132038729Y-87151552D01*
X132140186Y-87234814D01*
X132223448Y-87336271D01*
X132252778Y-87372009D01*
X132336443Y-87528534D01*
X132387963Y-87698374D01*
X132401000Y-87830743D01*
X132401000Y-88169258D01*
X132387963Y-88301627D01*
X132353616Y-88414853D01*
X132336443Y-88471467D01*
X132262348Y-88610087D01*
X132252778Y-88627991D01*
X132223448Y-88663729D01*
X132140186Y-88765186D01*
X132002989Y-88877779D01*
X131846466Y-88961443D01*
X131805733Y-88973799D01*
X131676626Y-89012963D01*
X131500000Y-89030359D01*
X131323373Y-89012963D01*
X131194266Y-88973799D01*
X131153533Y-88961443D01*
X130997011Y-88877779D01*
X130997009Y-88877778D01*
X130954749Y-88843096D01*
X130859814Y-88765186D01*
X130747221Y-88627989D01*
X130663557Y-88471466D01*
X130646384Y-88414852D01*
X130612037Y-88301626D01*
X130599000Y-88169257D01*
X130599000Y-87830742D01*
X130612037Y-87698373D01*
X130663557Y-87528534D01*
X130663557Y-87528533D01*
X130747222Y-87372008D01*
X130859812Y-87234817D01*
X130954750Y-87156904D01*
X130997010Y-87122222D01*
X131014914Y-87112652D01*
X131153534Y-87038557D01*
X131210148Y-87021384D01*
X131323374Y-86987037D01*
X131500000Y-86969641D01*
X131676627Y-86987037D01*
X131676627Y-86987037D01*
G37*
G36*
X141676627Y-86987037D02*
X141789853Y-87021384D01*
X141846467Y-87038557D01*
X141985087Y-87112652D01*
X142002991Y-87122222D01*
X142038729Y-87151552D01*
X142140186Y-87234814D01*
X142223448Y-87336271D01*
X142252778Y-87372009D01*
X142336443Y-87528534D01*
X142387963Y-87698374D01*
X142401000Y-87830743D01*
X142401000Y-88169258D01*
X142387963Y-88301627D01*
X142353616Y-88414853D01*
X142336443Y-88471467D01*
X142262348Y-88610087D01*
X142252778Y-88627991D01*
X142223448Y-88663729D01*
X142140186Y-88765186D01*
X142002989Y-88877779D01*
X141846466Y-88961443D01*
X141805733Y-88973799D01*
X141676626Y-89012963D01*
X141500000Y-89030359D01*
X141323373Y-89012963D01*
X141194266Y-88973799D01*
X141153533Y-88961443D01*
X140997011Y-88877779D01*
X140997009Y-88877778D01*
X140954749Y-88843096D01*
X140859814Y-88765186D01*
X140747221Y-88627989D01*
X140663557Y-88471466D01*
X140646384Y-88414852D01*
X140612037Y-88301626D01*
X140599000Y-88169257D01*
X140599000Y-87830742D01*
X140612037Y-87698373D01*
X140663557Y-87528534D01*
X140663557Y-87528533D01*
X140747222Y-87372008D01*
X140859812Y-87234817D01*
X140954750Y-87156904D01*
X140997010Y-87122222D01*
X141014914Y-87112652D01*
X141153534Y-87038557D01*
X141210148Y-87021384D01*
X141323374Y-86987037D01*
X141500000Y-86969641D01*
X141676627Y-86987037D01*
X141676627Y-86987037D01*
G37*
G36*
X156676627Y-86987037D02*
X156789853Y-87021384D01*
X156846467Y-87038557D01*
X156985087Y-87112652D01*
X157002991Y-87122222D01*
X157038729Y-87151552D01*
X157140186Y-87234814D01*
X157223448Y-87336271D01*
X157252778Y-87372009D01*
X157336443Y-87528534D01*
X157387963Y-87698374D01*
X157401000Y-87830743D01*
X157401000Y-88169258D01*
X157387963Y-88301627D01*
X157353616Y-88414853D01*
X157336443Y-88471467D01*
X157262348Y-88610087D01*
X157252778Y-88627991D01*
X157223448Y-88663729D01*
X157140186Y-88765186D01*
X157002989Y-88877779D01*
X156846466Y-88961443D01*
X156805733Y-88973799D01*
X156676626Y-89012963D01*
X156500000Y-89030359D01*
X156323373Y-89012963D01*
X156194266Y-88973799D01*
X156153533Y-88961443D01*
X155997011Y-88877779D01*
X155997009Y-88877778D01*
X155954749Y-88843096D01*
X155859814Y-88765186D01*
X155747221Y-88627989D01*
X155663557Y-88471466D01*
X155646384Y-88414852D01*
X155612037Y-88301626D01*
X155599000Y-88169257D01*
X155599000Y-87830742D01*
X155612037Y-87698373D01*
X155663557Y-87528534D01*
X155663557Y-87528533D01*
X155747222Y-87372008D01*
X155859812Y-87234817D01*
X155954750Y-87156904D01*
X155997010Y-87122222D01*
X156014914Y-87112652D01*
X156153534Y-87038557D01*
X156210148Y-87021384D01*
X156323374Y-86987037D01*
X156500000Y-86969641D01*
X156676627Y-86987037D01*
X156676627Y-86987037D01*
G37*
G36*
X154176627Y-86987037D02*
X154289853Y-87021384D01*
X154346467Y-87038557D01*
X154485087Y-87112652D01*
X154502991Y-87122222D01*
X154538729Y-87151552D01*
X154640186Y-87234814D01*
X154723448Y-87336271D01*
X154752778Y-87372009D01*
X154836443Y-87528534D01*
X154887963Y-87698374D01*
X154901000Y-87830743D01*
X154901000Y-88169258D01*
X154887963Y-88301627D01*
X154853616Y-88414853D01*
X154836443Y-88471467D01*
X154762348Y-88610087D01*
X154752778Y-88627991D01*
X154723448Y-88663729D01*
X154640186Y-88765186D01*
X154502989Y-88877779D01*
X154346466Y-88961443D01*
X154305733Y-88973799D01*
X154176626Y-89012963D01*
X154000000Y-89030359D01*
X153823373Y-89012963D01*
X153694266Y-88973799D01*
X153653533Y-88961443D01*
X153497011Y-88877779D01*
X153497009Y-88877778D01*
X153454749Y-88843096D01*
X153359814Y-88765186D01*
X153247221Y-88627989D01*
X153163557Y-88471466D01*
X153146384Y-88414852D01*
X153112037Y-88301626D01*
X153099000Y-88169257D01*
X153099000Y-87830742D01*
X153112037Y-87698373D01*
X153163557Y-87528534D01*
X153163557Y-87528533D01*
X153247222Y-87372008D01*
X153359812Y-87234817D01*
X153454750Y-87156904D01*
X153497010Y-87122222D01*
X153514914Y-87112652D01*
X153653534Y-87038557D01*
X153710148Y-87021384D01*
X153823374Y-86987037D01*
X154000000Y-86969641D01*
X154176627Y-86987037D01*
X154176627Y-86987037D01*
G37*
G36*
X147258600Y-86977989D02*
X147291649Y-86988014D01*
X147322106Y-87004294D01*
X147348799Y-87026201D01*
X147370706Y-87052894D01*
X147386986Y-87083351D01*
X147397011Y-87116400D01*
X147401000Y-87156904D01*
X147401000Y-88843096D01*
X147397011Y-88883600D01*
X147386986Y-88916649D01*
X147370706Y-88947106D01*
X147348799Y-88973799D01*
X147322106Y-88995706D01*
X147291649Y-89011986D01*
X147258600Y-89022011D01*
X147218096Y-89026000D01*
X145781904Y-89026000D01*
X145741400Y-89022011D01*
X145708351Y-89011986D01*
X145677894Y-88995706D01*
X145651201Y-88973799D01*
X145629294Y-88947106D01*
X145613014Y-88916649D01*
X145602989Y-88883600D01*
X145599000Y-88843096D01*
X145599000Y-87156904D01*
X145602989Y-87116400D01*
X145613014Y-87083351D01*
X145629294Y-87052894D01*
X145651201Y-87026201D01*
X145677894Y-87004294D01*
X145708351Y-86988014D01*
X145741400Y-86977989D01*
X145781904Y-86974000D01*
X147218096Y-86974000D01*
X147258600Y-86977989D01*
X147258600Y-86977989D01*
G37*
G36*
X159758600Y-86977989D02*
X159791649Y-86988014D01*
X159822106Y-87004294D01*
X159848799Y-87026201D01*
X159870706Y-87052894D01*
X159886986Y-87083351D01*
X159897011Y-87116400D01*
X159901000Y-87156904D01*
X159901000Y-88843096D01*
X159897011Y-88883600D01*
X159886986Y-88916649D01*
X159870706Y-88947106D01*
X159848799Y-88973799D01*
X159822106Y-88995706D01*
X159791649Y-89011986D01*
X159758600Y-89022011D01*
X159718096Y-89026000D01*
X158281904Y-89026000D01*
X158241400Y-89022011D01*
X158208351Y-89011986D01*
X158177894Y-88995706D01*
X158151201Y-88973799D01*
X158129294Y-88947106D01*
X158113014Y-88916649D01*
X158102989Y-88883600D01*
X158099000Y-88843096D01*
X158099000Y-87156904D01*
X158102989Y-87116400D01*
X158113014Y-87083351D01*
X158129294Y-87052894D01*
X158151201Y-87026201D01*
X158177894Y-87004294D01*
X158208351Y-86988014D01*
X158241400Y-86977989D01*
X158281904Y-86974000D01*
X159718096Y-86974000D01*
X159758600Y-86977989D01*
X159758600Y-86977989D01*
G37*
G36*
X134758600Y-86977989D02*
X134791649Y-86988014D01*
X134822106Y-87004294D01*
X134848799Y-87026201D01*
X134870706Y-87052894D01*
X134886986Y-87083351D01*
X134897011Y-87116400D01*
X134901000Y-87156904D01*
X134901000Y-88843096D01*
X134897011Y-88883600D01*
X134886986Y-88916649D01*
X134870706Y-88947106D01*
X134848799Y-88973799D01*
X134822106Y-88995706D01*
X134791649Y-89011986D01*
X134758600Y-89022011D01*
X134718096Y-89026000D01*
X133281904Y-89026000D01*
X133241400Y-89022011D01*
X133208351Y-89011986D01*
X133177894Y-88995706D01*
X133151201Y-88973799D01*
X133129294Y-88947106D01*
X133113014Y-88916649D01*
X133102989Y-88883600D01*
X133099000Y-88843096D01*
X133099000Y-87156904D01*
X133102989Y-87116400D01*
X133113014Y-87083351D01*
X133129294Y-87052894D01*
X133151201Y-87026201D01*
X133177894Y-87004294D01*
X133208351Y-86988014D01*
X133241400Y-86977989D01*
X133281904Y-86974000D01*
X134718096Y-86974000D01*
X134758600Y-86977989D01*
X134758600Y-86977989D01*
G37*
G36*
X141140834Y-79151066D02*
X141233714Y-79169541D01*
X141379532Y-79229941D01*
X141379533Y-79229942D01*
X141510768Y-79317630D01*
X141622368Y-79429230D01*
X141622370Y-79429233D01*
X141710057Y-79560466D01*
X141770457Y-79706284D01*
X141801248Y-79861084D01*
X141801248Y-80018916D01*
X141770457Y-80173716D01*
X141710057Y-80319534D01*
X141710056Y-80319535D01*
X141622368Y-80450770D01*
X141510768Y-80562370D01*
X141510765Y-80562372D01*
X141379532Y-80650059D01*
X141233714Y-80710459D01*
X141140834Y-80728934D01*
X141078916Y-80741250D01*
X140921080Y-80741250D01*
X140859162Y-80728934D01*
X140766282Y-80710459D01*
X140620464Y-80650059D01*
X140489231Y-80562372D01*
X140489228Y-80562370D01*
X140377628Y-80450770D01*
X140289940Y-80319535D01*
X140289939Y-80319534D01*
X140229539Y-80173716D01*
X140198748Y-80018916D01*
X140198748Y-79861084D01*
X140229539Y-79706284D01*
X140289939Y-79560466D01*
X140377626Y-79429233D01*
X140377628Y-79429230D01*
X140489228Y-79317630D01*
X140620463Y-79229942D01*
X140620464Y-79229941D01*
X140766282Y-79169541D01*
X140859162Y-79151066D01*
X140921080Y-79138750D01*
X141078916Y-79138750D01*
X141140834Y-79151066D01*
X141140834Y-79151066D01*
G37*
G36*
X153801244Y-80741250D02*
X152198744Y-80741250D01*
X152198744Y-79138750D01*
X153801244Y-79138750D01*
X153801244Y-80741250D01*
X153801244Y-80741250D01*
G37*
G36*
X150140831Y-79151066D02*
X150233711Y-79169541D01*
X150379529Y-79229941D01*
X150379530Y-79229942D01*
X150510765Y-79317630D01*
X150622365Y-79429230D01*
X150622367Y-79429233D01*
X150710054Y-79560466D01*
X150770454Y-79706284D01*
X150801245Y-79861084D01*
X150801245Y-80018916D01*
X150770454Y-80173716D01*
X150710054Y-80319534D01*
X150710053Y-80319535D01*
X150622365Y-80450770D01*
X150510765Y-80562370D01*
X150510762Y-80562372D01*
X150379529Y-80650059D01*
X150233711Y-80710459D01*
X150140831Y-80728934D01*
X150078913Y-80741250D01*
X149921077Y-80741250D01*
X149859159Y-80728934D01*
X149766279Y-80710459D01*
X149620461Y-80650059D01*
X149489228Y-80562372D01*
X149489225Y-80562370D01*
X149377625Y-80450770D01*
X149289937Y-80319535D01*
X149289936Y-80319534D01*
X149229536Y-80173716D01*
X149198745Y-80018916D01*
X149198745Y-79861084D01*
X149229536Y-79706284D01*
X149289936Y-79560466D01*
X149377623Y-79429233D01*
X149377625Y-79429230D01*
X149489225Y-79317630D01*
X149620460Y-79229942D01*
X149620461Y-79229941D01*
X149766279Y-79169541D01*
X149859159Y-79151066D01*
X149921077Y-79138750D01*
X150078913Y-79138750D01*
X150140831Y-79151066D01*
X150140831Y-79151066D01*
G37*
G36*
X147140832Y-79151066D02*
X147233712Y-79169541D01*
X147379530Y-79229941D01*
X147379531Y-79229942D01*
X147510766Y-79317630D01*
X147622366Y-79429230D01*
X147622368Y-79429233D01*
X147710055Y-79560466D01*
X147770455Y-79706284D01*
X147801246Y-79861084D01*
X147801246Y-80018916D01*
X147770455Y-80173716D01*
X147710055Y-80319534D01*
X147710054Y-80319535D01*
X147622366Y-80450770D01*
X147510766Y-80562370D01*
X147510763Y-80562372D01*
X147379530Y-80650059D01*
X147233712Y-80710459D01*
X147140832Y-80728934D01*
X147078914Y-80741250D01*
X146921078Y-80741250D01*
X146859160Y-80728934D01*
X146766280Y-80710459D01*
X146620462Y-80650059D01*
X146489229Y-80562372D01*
X146489226Y-80562370D01*
X146377626Y-80450770D01*
X146289938Y-80319535D01*
X146289937Y-80319534D01*
X146229537Y-80173716D01*
X146198746Y-80018916D01*
X146198746Y-79861084D01*
X146229537Y-79706284D01*
X146289937Y-79560466D01*
X146377624Y-79429233D01*
X146377626Y-79429230D01*
X146489226Y-79317630D01*
X146620461Y-79229942D01*
X146620462Y-79229941D01*
X146766280Y-79169541D01*
X146859160Y-79151066D01*
X146921078Y-79138750D01*
X147078914Y-79138750D01*
X147140832Y-79151066D01*
X147140832Y-79151066D01*
G37*
G36*
X144140833Y-79151066D02*
X144233713Y-79169541D01*
X144379531Y-79229941D01*
X144379532Y-79229942D01*
X144510767Y-79317630D01*
X144622367Y-79429230D01*
X144622369Y-79429233D01*
X144710056Y-79560466D01*
X144770456Y-79706284D01*
X144801247Y-79861084D01*
X144801247Y-80018916D01*
X144770456Y-80173716D01*
X144710056Y-80319534D01*
X144710055Y-80319535D01*
X144622367Y-80450770D01*
X144510767Y-80562370D01*
X144510764Y-80562372D01*
X144379531Y-80650059D01*
X144233713Y-80710459D01*
X144140833Y-80728934D01*
X144078915Y-80741250D01*
X143921079Y-80741250D01*
X143859161Y-80728934D01*
X143766281Y-80710459D01*
X143620463Y-80650059D01*
X143489230Y-80562372D01*
X143489227Y-80562370D01*
X143377627Y-80450770D01*
X143289939Y-80319535D01*
X143289938Y-80319534D01*
X143229538Y-80173716D01*
X143198747Y-80018916D01*
X143198747Y-79861084D01*
X143229538Y-79706284D01*
X143289938Y-79560466D01*
X143377625Y-79429233D01*
X143377627Y-79429230D01*
X143489227Y-79317630D01*
X143620462Y-79229942D01*
X143620463Y-79229941D01*
X143766281Y-79169541D01*
X143859161Y-79151066D01*
X143921079Y-79138750D01*
X144078915Y-79138750D01*
X144140833Y-79151066D01*
X144140833Y-79151066D01*
G37*
G36*
X138140835Y-79151066D02*
X138233715Y-79169541D01*
X138379533Y-79229941D01*
X138379534Y-79229942D01*
X138510769Y-79317630D01*
X138622369Y-79429230D01*
X138622371Y-79429233D01*
X138710058Y-79560466D01*
X138770458Y-79706284D01*
X138801249Y-79861084D01*
X138801249Y-80018916D01*
X138770458Y-80173716D01*
X138710058Y-80319534D01*
X138710057Y-80319535D01*
X138622369Y-80450770D01*
X138510769Y-80562370D01*
X138510766Y-80562372D01*
X138379533Y-80650059D01*
X138233715Y-80710459D01*
X138140835Y-80728934D01*
X138078917Y-80741250D01*
X137921081Y-80741250D01*
X137859163Y-80728934D01*
X137766283Y-80710459D01*
X137620465Y-80650059D01*
X137489232Y-80562372D01*
X137489229Y-80562370D01*
X137377629Y-80450770D01*
X137289941Y-80319535D01*
X137289940Y-80319534D01*
X137229540Y-80173716D01*
X137198749Y-80018916D01*
X137198749Y-79861084D01*
X137229540Y-79706284D01*
X137289940Y-79560466D01*
X137377627Y-79429233D01*
X137377629Y-79429230D01*
X137489229Y-79317630D01*
X137620464Y-79229942D01*
X137620465Y-79229941D01*
X137766283Y-79169541D01*
X137859163Y-79151066D01*
X137921081Y-79138750D01*
X138078917Y-79138750D01*
X138140835Y-79151066D01*
X138140835Y-79151066D01*
G37*
G36*
X135140836Y-79151066D02*
X135233716Y-79169541D01*
X135379534Y-79229941D01*
X135379535Y-79229942D01*
X135510770Y-79317630D01*
X135622370Y-79429230D01*
X135622372Y-79429233D01*
X135710059Y-79560466D01*
X135770459Y-79706284D01*
X135801250Y-79861084D01*
X135801250Y-80018916D01*
X135770459Y-80173716D01*
X135710059Y-80319534D01*
X135710058Y-80319535D01*
X135622370Y-80450770D01*
X135510770Y-80562370D01*
X135510767Y-80562372D01*
X135379534Y-80650059D01*
X135233716Y-80710459D01*
X135140836Y-80728934D01*
X135078918Y-80741250D01*
X134921082Y-80741250D01*
X134859164Y-80728934D01*
X134766284Y-80710459D01*
X134620466Y-80650059D01*
X134489233Y-80562372D01*
X134489230Y-80562370D01*
X134377630Y-80450770D01*
X134289942Y-80319535D01*
X134289941Y-80319534D01*
X134229541Y-80173716D01*
X134198750Y-80018916D01*
X134198750Y-79861084D01*
X134229541Y-79706284D01*
X134289941Y-79560466D01*
X134377628Y-79429233D01*
X134377630Y-79429230D01*
X134489230Y-79317630D01*
X134620465Y-79229942D01*
X134620466Y-79229941D01*
X134766284Y-79169541D01*
X134859164Y-79151066D01*
X134921082Y-79138750D01*
X135078918Y-79138750D01*
X135140836Y-79151066D01*
X135140836Y-79151066D01*
G37*
G36*
X132140836Y-79151066D02*
X132233716Y-79169541D01*
X132379534Y-79229941D01*
X132379535Y-79229942D01*
X132510770Y-79317630D01*
X132622370Y-79429230D01*
X132622372Y-79429233D01*
X132710059Y-79560466D01*
X132770459Y-79706284D01*
X132801250Y-79861084D01*
X132801250Y-80018916D01*
X132770459Y-80173716D01*
X132710059Y-80319534D01*
X132710058Y-80319535D01*
X132622370Y-80450770D01*
X132510770Y-80562370D01*
X132510767Y-80562372D01*
X132379534Y-80650059D01*
X132233716Y-80710459D01*
X132140836Y-80728934D01*
X132078918Y-80741250D01*
X131921082Y-80741250D01*
X131859164Y-80728934D01*
X131766284Y-80710459D01*
X131620466Y-80650059D01*
X131489233Y-80562372D01*
X131489230Y-80562370D01*
X131377630Y-80450770D01*
X131289942Y-80319535D01*
X131289941Y-80319534D01*
X131229541Y-80173716D01*
X131198750Y-80018916D01*
X131198750Y-79861084D01*
X131229541Y-79706284D01*
X131289941Y-79560466D01*
X131377628Y-79429233D01*
X131377630Y-79429230D01*
X131489230Y-79317630D01*
X131620465Y-79229942D01*
X131620466Y-79229941D01*
X131766284Y-79169541D01*
X131859164Y-79151066D01*
X131921082Y-79138750D01*
X132078918Y-79138750D01*
X132140836Y-79151066D01*
X132140836Y-79151066D01*
G37*
G36*
X124831606Y-72258562D02*
X125350455Y-72473476D01*
X125814259Y-72783380D01*
X125817410Y-72785486D01*
X126214514Y-73182590D01*
X126214516Y-73182593D01*
X126526524Y-73649545D01*
X126741438Y-74168394D01*
X126851000Y-74719201D01*
X126851000Y-75280799D01*
X126741438Y-75831606D01*
X126526524Y-76350455D01*
X126288763Y-76706288D01*
X126214514Y-76817410D01*
X125817410Y-77214514D01*
X125817407Y-77214516D01*
X125350455Y-77526524D01*
X124831606Y-77741438D01*
X124280800Y-77851000D01*
X123719200Y-77851000D01*
X123168394Y-77741438D01*
X122649545Y-77526524D01*
X122182593Y-77214516D01*
X122182590Y-77214514D01*
X121785486Y-76817410D01*
X121711237Y-76706288D01*
X121473476Y-76350455D01*
X121258562Y-75831606D01*
X121149000Y-75280799D01*
X121149000Y-74719201D01*
X121258562Y-74168394D01*
X121473476Y-73649545D01*
X121785484Y-73182593D01*
X121785486Y-73182590D01*
X122182590Y-72785486D01*
X122185741Y-72783380D01*
X122649545Y-72473476D01*
X123168394Y-72258562D01*
X123719200Y-72149000D01*
X124280800Y-72149000D01*
X124831606Y-72258562D01*
X124831606Y-72258562D01*
G37*
G36*
X161831606Y-72258562D02*
X162350455Y-72473476D01*
X162814259Y-72783380D01*
X162817410Y-72785486D01*
X163214514Y-73182590D01*
X163214516Y-73182593D01*
X163526524Y-73649545D01*
X163741438Y-74168394D01*
X163851000Y-74719201D01*
X163851000Y-75280799D01*
X163741438Y-75831606D01*
X163526524Y-76350455D01*
X163288763Y-76706288D01*
X163214514Y-76817410D01*
X162817410Y-77214514D01*
X162817407Y-77214516D01*
X162350455Y-77526524D01*
X161831606Y-77741438D01*
X161280800Y-77851000D01*
X160719200Y-77851000D01*
X160168394Y-77741438D01*
X159649545Y-77526524D01*
X159182593Y-77214516D01*
X159182590Y-77214514D01*
X158785486Y-76817410D01*
X158711237Y-76706288D01*
X158473476Y-76350455D01*
X158258562Y-75831606D01*
X158149000Y-75280799D01*
X158149000Y-74719201D01*
X158258562Y-74168394D01*
X158473476Y-73649545D01*
X158785484Y-73182593D01*
X158785486Y-73182590D01*
X159182590Y-72785486D01*
X159185741Y-72783380D01*
X159649545Y-72473476D01*
X160168394Y-72258562D01*
X160719200Y-72149000D01*
X161280800Y-72149000D01*
X161831606Y-72258562D01*
X161831606Y-72258562D01*
G37*
G36*
X138140835Y-76151067D02*
X138233715Y-76169542D01*
X138379533Y-76229942D01*
X138433098Y-76265733D01*
X138510769Y-76317631D01*
X138622369Y-76429231D01*
X138622371Y-76429234D01*
X138710058Y-76560467D01*
X138770458Y-76706285D01*
X138801249Y-76861085D01*
X138801249Y-77018917D01*
X138770458Y-77173717D01*
X138710058Y-77319535D01*
X138710057Y-77319536D01*
X138622369Y-77450771D01*
X138510769Y-77562371D01*
X138510766Y-77562373D01*
X138379533Y-77650060D01*
X138233715Y-77710460D01*
X138140835Y-77728935D01*
X138078917Y-77741251D01*
X137921081Y-77741251D01*
X137859163Y-77728935D01*
X137766283Y-77710460D01*
X137620465Y-77650060D01*
X137489232Y-77562373D01*
X137489229Y-77562371D01*
X137377629Y-77450771D01*
X137289941Y-77319536D01*
X137289940Y-77319535D01*
X137229540Y-77173717D01*
X137198749Y-77018917D01*
X137198749Y-76861085D01*
X137229540Y-76706285D01*
X137289940Y-76560467D01*
X137377627Y-76429234D01*
X137377629Y-76429231D01*
X137489229Y-76317631D01*
X137566900Y-76265733D01*
X137620465Y-76229942D01*
X137766283Y-76169542D01*
X137859163Y-76151067D01*
X137921081Y-76138751D01*
X138078917Y-76138751D01*
X138140835Y-76151067D01*
X138140835Y-76151067D01*
G37*
G36*
X150140831Y-76151067D02*
X150233711Y-76169542D01*
X150379529Y-76229942D01*
X150433094Y-76265733D01*
X150510765Y-76317631D01*
X150622365Y-76429231D01*
X150622367Y-76429234D01*
X150710054Y-76560467D01*
X150770454Y-76706285D01*
X150801245Y-76861085D01*
X150801245Y-77018917D01*
X150770454Y-77173717D01*
X150710054Y-77319535D01*
X150710053Y-77319536D01*
X150622365Y-77450771D01*
X150510765Y-77562371D01*
X150510762Y-77562373D01*
X150379529Y-77650060D01*
X150233711Y-77710460D01*
X150140831Y-77728935D01*
X150078913Y-77741251D01*
X149921077Y-77741251D01*
X149859159Y-77728935D01*
X149766279Y-77710460D01*
X149620461Y-77650060D01*
X149489228Y-77562373D01*
X149489225Y-77562371D01*
X149377625Y-77450771D01*
X149289937Y-77319536D01*
X149289936Y-77319535D01*
X149229536Y-77173717D01*
X149198745Y-77018917D01*
X149198745Y-76861085D01*
X149229536Y-76706285D01*
X149289936Y-76560467D01*
X149377623Y-76429234D01*
X149377625Y-76429231D01*
X149489225Y-76317631D01*
X149566896Y-76265733D01*
X149620461Y-76229942D01*
X149766279Y-76169542D01*
X149859159Y-76151067D01*
X149921077Y-76138751D01*
X150078913Y-76138751D01*
X150140831Y-76151067D01*
X150140831Y-76151067D01*
G37*
G36*
X141140834Y-76151067D02*
X141233714Y-76169542D01*
X141379532Y-76229942D01*
X141433097Y-76265733D01*
X141510768Y-76317631D01*
X141622368Y-76429231D01*
X141622370Y-76429234D01*
X141710057Y-76560467D01*
X141770457Y-76706285D01*
X141801248Y-76861085D01*
X141801248Y-77018917D01*
X141770457Y-77173717D01*
X141710057Y-77319535D01*
X141710056Y-77319536D01*
X141622368Y-77450771D01*
X141510768Y-77562371D01*
X141510765Y-77562373D01*
X141379532Y-77650060D01*
X141233714Y-77710460D01*
X141140834Y-77728935D01*
X141078916Y-77741251D01*
X140921080Y-77741251D01*
X140859162Y-77728935D01*
X140766282Y-77710460D01*
X140620464Y-77650060D01*
X140489231Y-77562373D01*
X140489228Y-77562371D01*
X140377628Y-77450771D01*
X140289940Y-77319536D01*
X140289939Y-77319535D01*
X140229539Y-77173717D01*
X140198748Y-77018917D01*
X140198748Y-76861085D01*
X140229539Y-76706285D01*
X140289939Y-76560467D01*
X140377626Y-76429234D01*
X140377628Y-76429231D01*
X140489228Y-76317631D01*
X140566899Y-76265733D01*
X140620464Y-76229942D01*
X140766282Y-76169542D01*
X140859162Y-76151067D01*
X140921080Y-76138751D01*
X141078916Y-76138751D01*
X141140834Y-76151067D01*
X141140834Y-76151067D01*
G37*
G36*
X135140836Y-76151067D02*
X135233716Y-76169542D01*
X135379534Y-76229942D01*
X135433099Y-76265733D01*
X135510770Y-76317631D01*
X135622370Y-76429231D01*
X135622372Y-76429234D01*
X135710059Y-76560467D01*
X135770459Y-76706285D01*
X135801250Y-76861085D01*
X135801250Y-77018917D01*
X135770459Y-77173717D01*
X135710059Y-77319535D01*
X135710058Y-77319536D01*
X135622370Y-77450771D01*
X135510770Y-77562371D01*
X135510767Y-77562373D01*
X135379534Y-77650060D01*
X135233716Y-77710460D01*
X135140836Y-77728935D01*
X135078918Y-77741251D01*
X134921082Y-77741251D01*
X134859164Y-77728935D01*
X134766284Y-77710460D01*
X134620466Y-77650060D01*
X134489233Y-77562373D01*
X134489230Y-77562371D01*
X134377630Y-77450771D01*
X134289942Y-77319536D01*
X134289941Y-77319535D01*
X134229541Y-77173717D01*
X134198750Y-77018917D01*
X134198750Y-76861085D01*
X134229541Y-76706285D01*
X134289941Y-76560467D01*
X134377628Y-76429234D01*
X134377630Y-76429231D01*
X134489230Y-76317631D01*
X134566901Y-76265733D01*
X134620466Y-76229942D01*
X134766284Y-76169542D01*
X134859164Y-76151067D01*
X134921082Y-76138751D01*
X135078918Y-76138751D01*
X135140836Y-76151067D01*
X135140836Y-76151067D01*
G37*
G36*
X132140836Y-76151067D02*
X132233716Y-76169542D01*
X132379534Y-76229942D01*
X132433099Y-76265733D01*
X132510770Y-76317631D01*
X132622370Y-76429231D01*
X132622372Y-76429234D01*
X132710059Y-76560467D01*
X132770459Y-76706285D01*
X132801250Y-76861085D01*
X132801250Y-77018917D01*
X132770459Y-77173717D01*
X132710059Y-77319535D01*
X132710058Y-77319536D01*
X132622370Y-77450771D01*
X132510770Y-77562371D01*
X132510767Y-77562373D01*
X132379534Y-77650060D01*
X132233716Y-77710460D01*
X132140836Y-77728935D01*
X132078918Y-77741251D01*
X131921082Y-77741251D01*
X131859164Y-77728935D01*
X131766284Y-77710460D01*
X131620466Y-77650060D01*
X131489233Y-77562373D01*
X131489230Y-77562371D01*
X131377630Y-77450771D01*
X131289942Y-77319536D01*
X131289941Y-77319535D01*
X131229541Y-77173717D01*
X131198750Y-77018917D01*
X131198750Y-76861085D01*
X131229541Y-76706285D01*
X131289941Y-76560467D01*
X131377628Y-76429234D01*
X131377630Y-76429231D01*
X131489230Y-76317631D01*
X131566901Y-76265733D01*
X131620466Y-76229942D01*
X131766284Y-76169542D01*
X131859164Y-76151067D01*
X131921082Y-76138751D01*
X132078918Y-76138751D01*
X132140836Y-76151067D01*
X132140836Y-76151067D01*
G37*
G36*
X147140832Y-76151067D02*
X147233712Y-76169542D01*
X147379530Y-76229942D01*
X147433095Y-76265733D01*
X147510766Y-76317631D01*
X147622366Y-76429231D01*
X147622368Y-76429234D01*
X147710055Y-76560467D01*
X147770455Y-76706285D01*
X147801246Y-76861085D01*
X147801246Y-77018917D01*
X147770455Y-77173717D01*
X147710055Y-77319535D01*
X147710054Y-77319536D01*
X147622366Y-77450771D01*
X147510766Y-77562371D01*
X147510763Y-77562373D01*
X147379530Y-77650060D01*
X147233712Y-77710460D01*
X147140832Y-77728935D01*
X147078914Y-77741251D01*
X146921078Y-77741251D01*
X146859160Y-77728935D01*
X146766280Y-77710460D01*
X146620462Y-77650060D01*
X146489229Y-77562373D01*
X146489226Y-77562371D01*
X146377626Y-77450771D01*
X146289938Y-77319536D01*
X146289937Y-77319535D01*
X146229537Y-77173717D01*
X146198746Y-77018917D01*
X146198746Y-76861085D01*
X146229537Y-76706285D01*
X146289937Y-76560467D01*
X146377624Y-76429234D01*
X146377626Y-76429231D01*
X146489226Y-76317631D01*
X146566897Y-76265733D01*
X146620462Y-76229942D01*
X146766280Y-76169542D01*
X146859160Y-76151067D01*
X146921078Y-76138751D01*
X147078914Y-76138751D01*
X147140832Y-76151067D01*
X147140832Y-76151067D01*
G37*
G36*
X153140830Y-76151067D02*
X153233710Y-76169542D01*
X153379528Y-76229942D01*
X153433093Y-76265733D01*
X153510764Y-76317631D01*
X153622364Y-76429231D01*
X153622366Y-76429234D01*
X153710053Y-76560467D01*
X153770453Y-76706285D01*
X153801244Y-76861085D01*
X153801244Y-77018917D01*
X153770453Y-77173717D01*
X153710053Y-77319535D01*
X153710052Y-77319536D01*
X153622364Y-77450771D01*
X153510764Y-77562371D01*
X153510761Y-77562373D01*
X153379528Y-77650060D01*
X153233710Y-77710460D01*
X153140830Y-77728935D01*
X153078912Y-77741251D01*
X152921076Y-77741251D01*
X152859158Y-77728935D01*
X152766278Y-77710460D01*
X152620460Y-77650060D01*
X152489227Y-77562373D01*
X152489224Y-77562371D01*
X152377624Y-77450771D01*
X152289936Y-77319536D01*
X152289935Y-77319535D01*
X152229535Y-77173717D01*
X152198744Y-77018917D01*
X152198744Y-76861085D01*
X152229535Y-76706285D01*
X152289935Y-76560467D01*
X152377622Y-76429234D01*
X152377624Y-76429231D01*
X152489224Y-76317631D01*
X152566895Y-76265733D01*
X152620460Y-76229942D01*
X152766278Y-76169542D01*
X152859158Y-76151067D01*
X152921076Y-76138751D01*
X153078912Y-76138751D01*
X153140830Y-76151067D01*
X153140830Y-76151067D01*
G37*
G36*
X144140833Y-76151067D02*
X144233713Y-76169542D01*
X144379531Y-76229942D01*
X144433096Y-76265733D01*
X144510767Y-76317631D01*
X144622367Y-76429231D01*
X144622369Y-76429234D01*
X144710056Y-76560467D01*
X144770456Y-76706285D01*
X144801247Y-76861085D01*
X144801247Y-77018917D01*
X144770456Y-77173717D01*
X144710056Y-77319535D01*
X144710055Y-77319536D01*
X144622367Y-77450771D01*
X144510767Y-77562371D01*
X144510764Y-77562373D01*
X144379531Y-77650060D01*
X144233713Y-77710460D01*
X144140833Y-77728935D01*
X144078915Y-77741251D01*
X143921079Y-77741251D01*
X143859161Y-77728935D01*
X143766281Y-77710460D01*
X143620463Y-77650060D01*
X143489230Y-77562373D01*
X143489227Y-77562371D01*
X143377627Y-77450771D01*
X143289939Y-77319536D01*
X143289938Y-77319535D01*
X143229538Y-77173717D01*
X143198747Y-77018917D01*
X143198747Y-76861085D01*
X143229538Y-76706285D01*
X143289938Y-76560467D01*
X143377625Y-76429234D01*
X143377627Y-76429231D01*
X143489227Y-76317631D01*
X143566898Y-76265733D01*
X143620463Y-76229942D01*
X143766281Y-76169542D01*
X143859161Y-76151067D01*
X143921079Y-76138751D01*
X144078915Y-76138751D01*
X144140833Y-76151067D01*
X144140833Y-76151067D01*
G37*
G36*
X129163685Y-75460559D02*
X129265779Y-75502848D01*
X129357666Y-75564245D01*
X129435802Y-75642381D01*
X129497199Y-75734268D01*
X129539488Y-75836362D01*
X129561047Y-75944746D01*
X129561047Y-76055254D01*
X129539488Y-76163638D01*
X129497199Y-76265732D01*
X129435802Y-76357619D01*
X129357666Y-76435755D01*
X129265779Y-76497152D01*
X129163685Y-76539441D01*
X129055301Y-76561000D01*
X128944793Y-76561000D01*
X128836409Y-76539441D01*
X128734315Y-76497152D01*
X128642428Y-76435755D01*
X128564292Y-76357619D01*
X128502895Y-76265732D01*
X128460606Y-76163638D01*
X128439047Y-76055254D01*
X128439047Y-75944746D01*
X128460606Y-75836362D01*
X128502895Y-75734268D01*
X128564292Y-75642381D01*
X128642428Y-75564245D01*
X128734315Y-75502848D01*
X128836409Y-75460559D01*
X128944793Y-75439000D01*
X129055301Y-75439000D01*
X129163685Y-75460559D01*
X129163685Y-75460559D01*
G37*
G36*
X156163631Y-75460559D02*
X156265725Y-75502848D01*
X156357612Y-75564245D01*
X156435748Y-75642381D01*
X156497145Y-75734268D01*
X156539434Y-75836362D01*
X156560993Y-75944746D01*
X156560993Y-76055254D01*
X156539434Y-76163638D01*
X156497145Y-76265732D01*
X156435748Y-76357619D01*
X156357612Y-76435755D01*
X156265725Y-76497152D01*
X156163631Y-76539441D01*
X156055247Y-76561000D01*
X155944739Y-76561000D01*
X155836355Y-76539441D01*
X155734261Y-76497152D01*
X155642374Y-76435755D01*
X155564238Y-76357619D01*
X155502841Y-76265732D01*
X155460552Y-76163638D01*
X155438993Y-76055254D01*
X155438993Y-75944746D01*
X155460552Y-75836362D01*
X155502841Y-75734268D01*
X155564238Y-75642381D01*
X155642374Y-75564245D01*
X155734261Y-75502848D01*
X155836355Y-75460559D01*
X155944739Y-75439000D01*
X156055247Y-75439000D01*
X156163631Y-75460559D01*
X156163631Y-75460559D01*
G37*
M02*
