%TF.GenerationSoftware,KiCad,Pcbnew,5.0.2+dfsg1-1*%
%TF.CreationDate,2022-04-03T13:41:23+09:00*%
%TF.ProjectId,toolhead-board,746f6f6c-6865-4616-942d-626f6172642e,rev?*%
%TF.SameCoordinates,Original*%
%TF.FileFunction,Paste,Top*%
%TF.FilePolarity,Positive*%
%FSLAX46Y46*%
G04 Gerber Fmt 4.6, Leading zero omitted, Abs format (unit mm)*
G04 Created by KiCad (PCBNEW 5.0.2+dfsg1-1) date Sun 03 Apr 2022 01:41:23 PM JST*
%MOMM*%
%LPD*%
G01*
G04 APERTURE LIST*
%ADD10C,0.150000*%
%ADD11C,0.100000*%
%ADD12C,1.150000*%
G04 APERTURE END LIST*
D10*
X165000000Y-98500000D02*
G75*
G02X164000000Y-99500000I-1000000J0D01*
G01*
X121000000Y-99500000D02*
G75*
G02X120000000Y-98500000I0J1000000D01*
G01*
X161000000Y-71000000D02*
G75*
G02X165000000Y-75000000I0J-4000000D01*
G01*
X120000000Y-75000000D02*
G75*
G02X124000000Y-71000000I4000000J0D01*
G01*
X120000000Y-75000000D02*
X120000000Y-98500000D01*
X161000000Y-71000000D02*
X124000000Y-71000000D01*
X165000000Y-98500000D02*
X165000000Y-75000000D01*
X121000000Y-99500000D02*
X164000000Y-99500000D01*
D11*
G36*
X122474505Y-88926204D02*
X122498773Y-88929804D01*
X122522572Y-88935765D01*
X122545671Y-88944030D01*
X122567850Y-88954520D01*
X122588893Y-88967132D01*
X122608599Y-88981747D01*
X122626777Y-88998223D01*
X122643253Y-89016401D01*
X122657868Y-89036107D01*
X122670480Y-89057150D01*
X122680970Y-89079329D01*
X122689235Y-89102428D01*
X122695196Y-89126227D01*
X122698796Y-89150495D01*
X122700000Y-89174999D01*
X122700000Y-89825001D01*
X122698796Y-89849505D01*
X122695196Y-89873773D01*
X122689235Y-89897572D01*
X122680970Y-89920671D01*
X122670480Y-89942850D01*
X122657868Y-89963893D01*
X122643253Y-89983599D01*
X122626777Y-90001777D01*
X122608599Y-90018253D01*
X122588893Y-90032868D01*
X122567850Y-90045480D01*
X122545671Y-90055970D01*
X122522572Y-90064235D01*
X122498773Y-90070196D01*
X122474505Y-90073796D01*
X122450001Y-90075000D01*
X121549999Y-90075000D01*
X121525495Y-90073796D01*
X121501227Y-90070196D01*
X121477428Y-90064235D01*
X121454329Y-90055970D01*
X121432150Y-90045480D01*
X121411107Y-90032868D01*
X121391401Y-90018253D01*
X121373223Y-90001777D01*
X121356747Y-89983599D01*
X121342132Y-89963893D01*
X121329520Y-89942850D01*
X121319030Y-89920671D01*
X121310765Y-89897572D01*
X121304804Y-89873773D01*
X121301204Y-89849505D01*
X121300000Y-89825001D01*
X121300000Y-89174999D01*
X121301204Y-89150495D01*
X121304804Y-89126227D01*
X121310765Y-89102428D01*
X121319030Y-89079329D01*
X121329520Y-89057150D01*
X121342132Y-89036107D01*
X121356747Y-89016401D01*
X121373223Y-88998223D01*
X121391401Y-88981747D01*
X121411107Y-88967132D01*
X121432150Y-88954520D01*
X121454329Y-88944030D01*
X121477428Y-88935765D01*
X121501227Y-88929804D01*
X121525495Y-88926204D01*
X121549999Y-88925000D01*
X122450001Y-88925000D01*
X122474505Y-88926204D01*
X122474505Y-88926204D01*
G37*
D12*
X122000000Y-89500000D03*
D11*
G36*
X122474505Y-86876204D02*
X122498773Y-86879804D01*
X122522572Y-86885765D01*
X122545671Y-86894030D01*
X122567850Y-86904520D01*
X122588893Y-86917132D01*
X122608599Y-86931747D01*
X122626777Y-86948223D01*
X122643253Y-86966401D01*
X122657868Y-86986107D01*
X122670480Y-87007150D01*
X122680970Y-87029329D01*
X122689235Y-87052428D01*
X122695196Y-87076227D01*
X122698796Y-87100495D01*
X122700000Y-87124999D01*
X122700000Y-87775001D01*
X122698796Y-87799505D01*
X122695196Y-87823773D01*
X122689235Y-87847572D01*
X122680970Y-87870671D01*
X122670480Y-87892850D01*
X122657868Y-87913893D01*
X122643253Y-87933599D01*
X122626777Y-87951777D01*
X122608599Y-87968253D01*
X122588893Y-87982868D01*
X122567850Y-87995480D01*
X122545671Y-88005970D01*
X122522572Y-88014235D01*
X122498773Y-88020196D01*
X122474505Y-88023796D01*
X122450001Y-88025000D01*
X121549999Y-88025000D01*
X121525495Y-88023796D01*
X121501227Y-88020196D01*
X121477428Y-88014235D01*
X121454329Y-88005970D01*
X121432150Y-87995480D01*
X121411107Y-87982868D01*
X121391401Y-87968253D01*
X121373223Y-87951777D01*
X121356747Y-87933599D01*
X121342132Y-87913893D01*
X121329520Y-87892850D01*
X121319030Y-87870671D01*
X121310765Y-87847572D01*
X121304804Y-87823773D01*
X121301204Y-87799505D01*
X121300000Y-87775001D01*
X121300000Y-87124999D01*
X121301204Y-87100495D01*
X121304804Y-87076227D01*
X121310765Y-87052428D01*
X121319030Y-87029329D01*
X121329520Y-87007150D01*
X121342132Y-86986107D01*
X121356747Y-86966401D01*
X121373223Y-86948223D01*
X121391401Y-86931747D01*
X121411107Y-86917132D01*
X121432150Y-86904520D01*
X121454329Y-86894030D01*
X121477428Y-86885765D01*
X121501227Y-86879804D01*
X121525495Y-86876204D01*
X121549999Y-86875000D01*
X122450001Y-86875000D01*
X122474505Y-86876204D01*
X122474505Y-86876204D01*
G37*
D12*
X122000000Y-87450000D03*
M02*
