G04 #@! TF.GenerationSoftware,KiCad,Pcbnew,5.1.9+dfsg1-1+deb11u1*
G04 #@! TF.CreationDate,2023-05-29T16:56:05+09:00*
G04 #@! TF.ProjectId,top,746f702e-6b69-4636-9164-5f7063625858,rev?*
G04 #@! TF.SameCoordinates,Original*
G04 #@! TF.FileFunction,Copper,L1,Top*
G04 #@! TF.FilePolarity,Positive*
%FSLAX46Y46*%
G04 Gerber Fmt 4.6, Leading zero omitted, Abs format (unit mm)*
G04 Created by KiCad (PCBNEW 5.1.9+dfsg1-1+deb11u1) date 2023-05-29 16:56:05*
%MOMM*%
%LPD*%
G01*
G04 APERTURE LIST*
G04 #@! TA.AperFunction,NonConductor*
%ADD10C,0.254000*%
G04 #@! TD*
G04 #@! TA.AperFunction,NonConductor*
%ADD11C,0.100000*%
G04 #@! TD*
G04 APERTURE END LIST*
D10*
X192469848Y-82227674D02*
X193479743Y-82445099D01*
X194448922Y-82802648D01*
X195358050Y-83293187D01*
X196188996Y-83906932D01*
X196925176Y-84631637D01*
X197551897Y-85452838D01*
X198056656Y-86354152D01*
X198429387Y-87317601D01*
X198662647Y-88323953D01*
X198753645Y-89374629D01*
X198754400Y-89470707D01*
X198754401Y-135183757D01*
X198679725Y-136238448D01*
X198462301Y-137248340D01*
X198104751Y-138217521D01*
X197614209Y-139126657D01*
X197000465Y-139957599D01*
X196275765Y-140693772D01*
X195454563Y-141320494D01*
X194553243Y-141825258D01*
X193589801Y-142197985D01*
X192583447Y-142431246D01*
X191532771Y-142522244D01*
X191436566Y-142523000D01*
X186215503Y-142523000D01*
X185732983Y-142475688D01*
X185301075Y-142345288D01*
X184902715Y-142133475D01*
X184528007Y-141827872D01*
X179477071Y-136776946D01*
X179475878Y-136775740D01*
X179473406Y-136773276D01*
X179473379Y-136773254D01*
X179452865Y-136752740D01*
X179432104Y-136735702D01*
X179430133Y-136733689D01*
X179422764Y-136727592D01*
X179271522Y-136604241D01*
X179219806Y-136569881D01*
X179168579Y-136534806D01*
X179160166Y-136530257D01*
X178987844Y-136438633D01*
X178930419Y-136414965D01*
X178873382Y-136390519D01*
X178864246Y-136387690D01*
X178677409Y-136331281D01*
X178616491Y-136319219D01*
X178555779Y-136306314D01*
X178546267Y-136305314D01*
X178352034Y-136286269D01*
X178352027Y-136286269D01*
X178318837Y-136283000D01*
X142232905Y-136283000D01*
X142138854Y-136273778D01*
X142080613Y-136256194D01*
X142026900Y-136227635D01*
X141979754Y-136189183D01*
X141940977Y-136142310D01*
X141912042Y-136088796D01*
X141894051Y-136030677D01*
X141884400Y-135938855D01*
X141884400Y-134893855D01*
X188249833Y-134893855D01*
X188249833Y-135522145D01*
X188372406Y-136138362D01*
X188612842Y-136718827D01*
X188961901Y-137241230D01*
X189406170Y-137685499D01*
X189928573Y-138034558D01*
X190509038Y-138274994D01*
X191125255Y-138397567D01*
X191753545Y-138397567D01*
X192369762Y-138274994D01*
X192950227Y-138034558D01*
X193472630Y-137685499D01*
X193916899Y-137241230D01*
X194265958Y-136718827D01*
X194506394Y-136138362D01*
X194628967Y-135522145D01*
X194628967Y-134893855D01*
X194506394Y-134277638D01*
X194265958Y-133697173D01*
X193916899Y-133174770D01*
X193472630Y-132730501D01*
X192950227Y-132381442D01*
X192369762Y-132141006D01*
X191753545Y-132018433D01*
X191125255Y-132018433D01*
X190509038Y-132141006D01*
X189928573Y-132381442D01*
X189406170Y-132730501D01*
X188961901Y-133174770D01*
X188612842Y-133697173D01*
X188372406Y-134277638D01*
X188249833Y-134893855D01*
X141884400Y-134893855D01*
X141884400Y-126653855D01*
X175509833Y-126653855D01*
X175509833Y-127282145D01*
X175632406Y-127898362D01*
X175872842Y-128478827D01*
X176221901Y-129001230D01*
X176666170Y-129445499D01*
X177188573Y-129794558D01*
X177769038Y-130034994D01*
X178385255Y-130157567D01*
X179013545Y-130157567D01*
X179629762Y-130034994D01*
X180210227Y-129794558D01*
X180732630Y-129445499D01*
X181176899Y-129001230D01*
X181525958Y-128478827D01*
X181766394Y-127898362D01*
X181888967Y-127282145D01*
X181888967Y-126653855D01*
X181766394Y-126037638D01*
X181525958Y-125457173D01*
X181176899Y-124934770D01*
X180732630Y-124490501D01*
X180210227Y-124141442D01*
X179629762Y-123901006D01*
X179013545Y-123778433D01*
X178385255Y-123778433D01*
X177769038Y-123901006D01*
X177188573Y-124141442D01*
X176666170Y-124490501D01*
X176221901Y-124934770D01*
X175872842Y-125457173D01*
X175632406Y-126037638D01*
X175509833Y-126653855D01*
X141884400Y-126653855D01*
X141884400Y-123751872D01*
X142505018Y-123751872D01*
X142505018Y-124184128D01*
X142589347Y-124608078D01*
X142754764Y-125007430D01*
X142994912Y-125366837D01*
X143300563Y-125672488D01*
X143659970Y-125912636D01*
X144059322Y-126078053D01*
X144483272Y-126162382D01*
X144915528Y-126162382D01*
X145339478Y-126078053D01*
X145738830Y-125912636D01*
X146098237Y-125672488D01*
X146403888Y-125366837D01*
X146644036Y-125007430D01*
X146809453Y-124608078D01*
X146893782Y-124184128D01*
X146893782Y-123751872D01*
X162505018Y-123751872D01*
X162505018Y-124184128D01*
X162589347Y-124608078D01*
X162754764Y-125007430D01*
X162994912Y-125366837D01*
X163300563Y-125672488D01*
X163659970Y-125912636D01*
X164059322Y-126078053D01*
X164483272Y-126162382D01*
X164915528Y-126162382D01*
X165339478Y-126078053D01*
X165738830Y-125912636D01*
X166098237Y-125672488D01*
X166403888Y-125366837D01*
X166644036Y-125007430D01*
X166809453Y-124608078D01*
X166893782Y-124184128D01*
X166893782Y-123751872D01*
X166809453Y-123327922D01*
X166644036Y-122928570D01*
X166403888Y-122569163D01*
X166098237Y-122263512D01*
X165738830Y-122023364D01*
X165339478Y-121857947D01*
X164915528Y-121773618D01*
X164483272Y-121773618D01*
X164059322Y-121857947D01*
X163659970Y-122023364D01*
X163300563Y-122263512D01*
X162994912Y-122569163D01*
X162754764Y-122928570D01*
X162589347Y-123327922D01*
X162505018Y-123751872D01*
X146893782Y-123751872D01*
X146809453Y-123327922D01*
X146644036Y-122928570D01*
X146403888Y-122569163D01*
X146098237Y-122263512D01*
X145738830Y-122023364D01*
X145339478Y-121857947D01*
X144915528Y-121773618D01*
X144483272Y-121773618D01*
X144059322Y-121857947D01*
X143659970Y-122023364D01*
X143300563Y-122263512D01*
X142994912Y-122569163D01*
X142754764Y-122928570D01*
X142589347Y-123327922D01*
X142505018Y-123751872D01*
X141884400Y-123751872D01*
X141884400Y-110653855D01*
X186509833Y-110653855D01*
X186509833Y-111282145D01*
X186632406Y-111898362D01*
X186872842Y-112478827D01*
X187221901Y-113001230D01*
X187666170Y-113445499D01*
X188188573Y-113794558D01*
X188769038Y-114034994D01*
X189385255Y-114157567D01*
X190013545Y-114157567D01*
X190629762Y-114034994D01*
X191210227Y-113794558D01*
X191732630Y-113445499D01*
X192176899Y-113001230D01*
X192525958Y-112478827D01*
X192766394Y-111898362D01*
X192888967Y-111282145D01*
X192888967Y-110653855D01*
X192766394Y-110037638D01*
X192525958Y-109457173D01*
X192176899Y-108934770D01*
X191732630Y-108490501D01*
X191210227Y-108141442D01*
X190629762Y-107901006D01*
X190013545Y-107778433D01*
X189385255Y-107778433D01*
X188769038Y-107901006D01*
X188188573Y-108141442D01*
X187666170Y-108490501D01*
X187221901Y-108934770D01*
X186872842Y-109457173D01*
X186632406Y-110037638D01*
X186509833Y-110653855D01*
X141884400Y-110653855D01*
X141884400Y-103751872D01*
X142505018Y-103751872D01*
X142505018Y-104184128D01*
X142589347Y-104608078D01*
X142754764Y-105007430D01*
X142994912Y-105366837D01*
X143300563Y-105672488D01*
X143659970Y-105912636D01*
X144059322Y-106078053D01*
X144483272Y-106162382D01*
X144915528Y-106162382D01*
X145339478Y-106078053D01*
X145738830Y-105912636D01*
X146098237Y-105672488D01*
X146403888Y-105366837D01*
X146644036Y-105007430D01*
X146809453Y-104608078D01*
X146893782Y-104184128D01*
X146893782Y-103751872D01*
X162505018Y-103751872D01*
X162505018Y-104184128D01*
X162589347Y-104608078D01*
X162754764Y-105007430D01*
X162994912Y-105366837D01*
X163300563Y-105672488D01*
X163659970Y-105912636D01*
X164059322Y-106078053D01*
X164483272Y-106162382D01*
X164915528Y-106162382D01*
X165339478Y-106078053D01*
X165738830Y-105912636D01*
X166098237Y-105672488D01*
X166403888Y-105366837D01*
X166644036Y-105007430D01*
X166809453Y-104608078D01*
X166893782Y-104184128D01*
X166893782Y-103751872D01*
X166809453Y-103327922D01*
X166644036Y-102928570D01*
X166403888Y-102569163D01*
X166098237Y-102263512D01*
X165738830Y-102023364D01*
X165339478Y-101857947D01*
X164915528Y-101773618D01*
X164483272Y-101773618D01*
X164059322Y-101857947D01*
X163659970Y-102023364D01*
X163300563Y-102263512D01*
X162994912Y-102569163D01*
X162754764Y-102928570D01*
X162589347Y-103327922D01*
X162505018Y-103751872D01*
X146893782Y-103751872D01*
X146809453Y-103327922D01*
X146644036Y-102928570D01*
X146403888Y-102569163D01*
X146098237Y-102263512D01*
X145738830Y-102023364D01*
X145339478Y-101857947D01*
X144915528Y-101773618D01*
X144483272Y-101773618D01*
X144059322Y-101857947D01*
X143659970Y-102023364D01*
X143300563Y-102263512D01*
X142994912Y-102569163D01*
X142754764Y-102928570D01*
X142589347Y-103327922D01*
X142505018Y-103751872D01*
X141884400Y-103751872D01*
X141884400Y-92001505D01*
X141893622Y-91907453D01*
X141911205Y-91849214D01*
X141939766Y-91795499D01*
X141978216Y-91748354D01*
X142025091Y-91709576D01*
X142078604Y-91680642D01*
X142136723Y-91662651D01*
X142228545Y-91653000D01*
X169733047Y-91653000D01*
X169762355Y-91650113D01*
X169768466Y-91650156D01*
X169777985Y-91649223D01*
X169972082Y-91628822D01*
X170032896Y-91616339D01*
X170093881Y-91604705D01*
X170103037Y-91601941D01*
X170289475Y-91544229D01*
X170346679Y-91520182D01*
X170404273Y-91496913D01*
X170412717Y-91492423D01*
X170584394Y-91399598D01*
X170635868Y-91364878D01*
X170687818Y-91330883D01*
X170695229Y-91324839D01*
X170845607Y-91200435D01*
X170889373Y-91156362D01*
X170933711Y-91112943D01*
X170939808Y-91105574D01*
X171063158Y-90954332D01*
X171097526Y-90902603D01*
X171132591Y-90851392D01*
X171137139Y-90842981D01*
X171137140Y-90842980D01*
X171137142Y-90842976D01*
X171228766Y-90670657D01*
X171252422Y-90613261D01*
X171276882Y-90556193D01*
X171279710Y-90547056D01*
X171336119Y-90360220D01*
X171348180Y-90299310D01*
X171361086Y-90238591D01*
X171362086Y-90229079D01*
X171381131Y-90034845D01*
X171381131Y-90034837D01*
X171384400Y-90001647D01*
X171384400Y-89492215D01*
X171408357Y-89153855D01*
X175509833Y-89153855D01*
X175509833Y-89782145D01*
X175632406Y-90398362D01*
X175872842Y-90978827D01*
X176221901Y-91501230D01*
X176666170Y-91945499D01*
X177188573Y-92294558D01*
X177769038Y-92534994D01*
X178385255Y-92657567D01*
X179013545Y-92657567D01*
X179629762Y-92534994D01*
X180210227Y-92294558D01*
X180732630Y-91945499D01*
X181176899Y-91501230D01*
X181525958Y-90978827D01*
X181766394Y-90398362D01*
X181888967Y-89782145D01*
X181888967Y-89153855D01*
X188249833Y-89153855D01*
X188249833Y-89782145D01*
X188372406Y-90398362D01*
X188612842Y-90978827D01*
X188961901Y-91501230D01*
X189406170Y-91945499D01*
X189928573Y-92294558D01*
X190509038Y-92534994D01*
X191125255Y-92657567D01*
X191753545Y-92657567D01*
X192369762Y-92534994D01*
X192950227Y-92294558D01*
X193472630Y-91945499D01*
X193916899Y-91501230D01*
X194265958Y-90978827D01*
X194506394Y-90398362D01*
X194628967Y-89782145D01*
X194628967Y-89153855D01*
X194506394Y-88537638D01*
X194265958Y-87957173D01*
X193916899Y-87434770D01*
X193472630Y-86990501D01*
X192950227Y-86641442D01*
X192369762Y-86401006D01*
X191753545Y-86278433D01*
X191125255Y-86278433D01*
X190509038Y-86401006D01*
X189928573Y-86641442D01*
X189406170Y-86990501D01*
X188961901Y-87434770D01*
X188612842Y-87957173D01*
X188372406Y-88537638D01*
X188249833Y-89153855D01*
X181888967Y-89153855D01*
X181766394Y-88537638D01*
X181525958Y-87957173D01*
X181176899Y-87434770D01*
X180732630Y-86990501D01*
X180210227Y-86641442D01*
X179629762Y-86401006D01*
X179013545Y-86278433D01*
X178385255Y-86278433D01*
X177769038Y-86401006D01*
X177188573Y-86641442D01*
X176666170Y-86990501D01*
X176221901Y-87434770D01*
X175872842Y-87957173D01*
X175632406Y-88537638D01*
X175509833Y-89153855D01*
X171408357Y-89153855D01*
X171459074Y-88437552D01*
X171676499Y-87427657D01*
X172034048Y-86458478D01*
X172524587Y-85549350D01*
X173138332Y-84718404D01*
X173863037Y-83982224D01*
X174684238Y-83355503D01*
X175585552Y-82850744D01*
X176549001Y-82478013D01*
X177555353Y-82244753D01*
X178606029Y-82153755D01*
X178702106Y-82153000D01*
X191415185Y-82153000D01*
X192469848Y-82227674D01*
G04 #@! TA.AperFunction,NonConductor*
D11*
G36*
X192469848Y-82227674D02*
G01*
X193479743Y-82445099D01*
X194448922Y-82802648D01*
X195358050Y-83293187D01*
X196188996Y-83906932D01*
X196925176Y-84631637D01*
X197551897Y-85452838D01*
X198056656Y-86354152D01*
X198429387Y-87317601D01*
X198662647Y-88323953D01*
X198753645Y-89374629D01*
X198754400Y-89470707D01*
X198754401Y-135183757D01*
X198679725Y-136238448D01*
X198462301Y-137248340D01*
X198104751Y-138217521D01*
X197614209Y-139126657D01*
X197000465Y-139957599D01*
X196275765Y-140693772D01*
X195454563Y-141320494D01*
X194553243Y-141825258D01*
X193589801Y-142197985D01*
X192583447Y-142431246D01*
X191532771Y-142522244D01*
X191436566Y-142523000D01*
X186215503Y-142523000D01*
X185732983Y-142475688D01*
X185301075Y-142345288D01*
X184902715Y-142133475D01*
X184528007Y-141827872D01*
X179477071Y-136776946D01*
X179475878Y-136775740D01*
X179473406Y-136773276D01*
X179473379Y-136773254D01*
X179452865Y-136752740D01*
X179432104Y-136735702D01*
X179430133Y-136733689D01*
X179422764Y-136727592D01*
X179271522Y-136604241D01*
X179219806Y-136569881D01*
X179168579Y-136534806D01*
X179160166Y-136530257D01*
X178987844Y-136438633D01*
X178930419Y-136414965D01*
X178873382Y-136390519D01*
X178864246Y-136387690D01*
X178677409Y-136331281D01*
X178616491Y-136319219D01*
X178555779Y-136306314D01*
X178546267Y-136305314D01*
X178352034Y-136286269D01*
X178352027Y-136286269D01*
X178318837Y-136283000D01*
X142232905Y-136283000D01*
X142138854Y-136273778D01*
X142080613Y-136256194D01*
X142026900Y-136227635D01*
X141979754Y-136189183D01*
X141940977Y-136142310D01*
X141912042Y-136088796D01*
X141894051Y-136030677D01*
X141884400Y-135938855D01*
X141884400Y-134893855D01*
X188249833Y-134893855D01*
X188249833Y-135522145D01*
X188372406Y-136138362D01*
X188612842Y-136718827D01*
X188961901Y-137241230D01*
X189406170Y-137685499D01*
X189928573Y-138034558D01*
X190509038Y-138274994D01*
X191125255Y-138397567D01*
X191753545Y-138397567D01*
X192369762Y-138274994D01*
X192950227Y-138034558D01*
X193472630Y-137685499D01*
X193916899Y-137241230D01*
X194265958Y-136718827D01*
X194506394Y-136138362D01*
X194628967Y-135522145D01*
X194628967Y-134893855D01*
X194506394Y-134277638D01*
X194265958Y-133697173D01*
X193916899Y-133174770D01*
X193472630Y-132730501D01*
X192950227Y-132381442D01*
X192369762Y-132141006D01*
X191753545Y-132018433D01*
X191125255Y-132018433D01*
X190509038Y-132141006D01*
X189928573Y-132381442D01*
X189406170Y-132730501D01*
X188961901Y-133174770D01*
X188612842Y-133697173D01*
X188372406Y-134277638D01*
X188249833Y-134893855D01*
X141884400Y-134893855D01*
X141884400Y-126653855D01*
X175509833Y-126653855D01*
X175509833Y-127282145D01*
X175632406Y-127898362D01*
X175872842Y-128478827D01*
X176221901Y-129001230D01*
X176666170Y-129445499D01*
X177188573Y-129794558D01*
X177769038Y-130034994D01*
X178385255Y-130157567D01*
X179013545Y-130157567D01*
X179629762Y-130034994D01*
X180210227Y-129794558D01*
X180732630Y-129445499D01*
X181176899Y-129001230D01*
X181525958Y-128478827D01*
X181766394Y-127898362D01*
X181888967Y-127282145D01*
X181888967Y-126653855D01*
X181766394Y-126037638D01*
X181525958Y-125457173D01*
X181176899Y-124934770D01*
X180732630Y-124490501D01*
X180210227Y-124141442D01*
X179629762Y-123901006D01*
X179013545Y-123778433D01*
X178385255Y-123778433D01*
X177769038Y-123901006D01*
X177188573Y-124141442D01*
X176666170Y-124490501D01*
X176221901Y-124934770D01*
X175872842Y-125457173D01*
X175632406Y-126037638D01*
X175509833Y-126653855D01*
X141884400Y-126653855D01*
X141884400Y-123751872D01*
X142505018Y-123751872D01*
X142505018Y-124184128D01*
X142589347Y-124608078D01*
X142754764Y-125007430D01*
X142994912Y-125366837D01*
X143300563Y-125672488D01*
X143659970Y-125912636D01*
X144059322Y-126078053D01*
X144483272Y-126162382D01*
X144915528Y-126162382D01*
X145339478Y-126078053D01*
X145738830Y-125912636D01*
X146098237Y-125672488D01*
X146403888Y-125366837D01*
X146644036Y-125007430D01*
X146809453Y-124608078D01*
X146893782Y-124184128D01*
X146893782Y-123751872D01*
X162505018Y-123751872D01*
X162505018Y-124184128D01*
X162589347Y-124608078D01*
X162754764Y-125007430D01*
X162994912Y-125366837D01*
X163300563Y-125672488D01*
X163659970Y-125912636D01*
X164059322Y-126078053D01*
X164483272Y-126162382D01*
X164915528Y-126162382D01*
X165339478Y-126078053D01*
X165738830Y-125912636D01*
X166098237Y-125672488D01*
X166403888Y-125366837D01*
X166644036Y-125007430D01*
X166809453Y-124608078D01*
X166893782Y-124184128D01*
X166893782Y-123751872D01*
X166809453Y-123327922D01*
X166644036Y-122928570D01*
X166403888Y-122569163D01*
X166098237Y-122263512D01*
X165738830Y-122023364D01*
X165339478Y-121857947D01*
X164915528Y-121773618D01*
X164483272Y-121773618D01*
X164059322Y-121857947D01*
X163659970Y-122023364D01*
X163300563Y-122263512D01*
X162994912Y-122569163D01*
X162754764Y-122928570D01*
X162589347Y-123327922D01*
X162505018Y-123751872D01*
X146893782Y-123751872D01*
X146809453Y-123327922D01*
X146644036Y-122928570D01*
X146403888Y-122569163D01*
X146098237Y-122263512D01*
X145738830Y-122023364D01*
X145339478Y-121857947D01*
X144915528Y-121773618D01*
X144483272Y-121773618D01*
X144059322Y-121857947D01*
X143659970Y-122023364D01*
X143300563Y-122263512D01*
X142994912Y-122569163D01*
X142754764Y-122928570D01*
X142589347Y-123327922D01*
X142505018Y-123751872D01*
X141884400Y-123751872D01*
X141884400Y-110653855D01*
X186509833Y-110653855D01*
X186509833Y-111282145D01*
X186632406Y-111898362D01*
X186872842Y-112478827D01*
X187221901Y-113001230D01*
X187666170Y-113445499D01*
X188188573Y-113794558D01*
X188769038Y-114034994D01*
X189385255Y-114157567D01*
X190013545Y-114157567D01*
X190629762Y-114034994D01*
X191210227Y-113794558D01*
X191732630Y-113445499D01*
X192176899Y-113001230D01*
X192525958Y-112478827D01*
X192766394Y-111898362D01*
X192888967Y-111282145D01*
X192888967Y-110653855D01*
X192766394Y-110037638D01*
X192525958Y-109457173D01*
X192176899Y-108934770D01*
X191732630Y-108490501D01*
X191210227Y-108141442D01*
X190629762Y-107901006D01*
X190013545Y-107778433D01*
X189385255Y-107778433D01*
X188769038Y-107901006D01*
X188188573Y-108141442D01*
X187666170Y-108490501D01*
X187221901Y-108934770D01*
X186872842Y-109457173D01*
X186632406Y-110037638D01*
X186509833Y-110653855D01*
X141884400Y-110653855D01*
X141884400Y-103751872D01*
X142505018Y-103751872D01*
X142505018Y-104184128D01*
X142589347Y-104608078D01*
X142754764Y-105007430D01*
X142994912Y-105366837D01*
X143300563Y-105672488D01*
X143659970Y-105912636D01*
X144059322Y-106078053D01*
X144483272Y-106162382D01*
X144915528Y-106162382D01*
X145339478Y-106078053D01*
X145738830Y-105912636D01*
X146098237Y-105672488D01*
X146403888Y-105366837D01*
X146644036Y-105007430D01*
X146809453Y-104608078D01*
X146893782Y-104184128D01*
X146893782Y-103751872D01*
X162505018Y-103751872D01*
X162505018Y-104184128D01*
X162589347Y-104608078D01*
X162754764Y-105007430D01*
X162994912Y-105366837D01*
X163300563Y-105672488D01*
X163659970Y-105912636D01*
X164059322Y-106078053D01*
X164483272Y-106162382D01*
X164915528Y-106162382D01*
X165339478Y-106078053D01*
X165738830Y-105912636D01*
X166098237Y-105672488D01*
X166403888Y-105366837D01*
X166644036Y-105007430D01*
X166809453Y-104608078D01*
X166893782Y-104184128D01*
X166893782Y-103751872D01*
X166809453Y-103327922D01*
X166644036Y-102928570D01*
X166403888Y-102569163D01*
X166098237Y-102263512D01*
X165738830Y-102023364D01*
X165339478Y-101857947D01*
X164915528Y-101773618D01*
X164483272Y-101773618D01*
X164059322Y-101857947D01*
X163659970Y-102023364D01*
X163300563Y-102263512D01*
X162994912Y-102569163D01*
X162754764Y-102928570D01*
X162589347Y-103327922D01*
X162505018Y-103751872D01*
X146893782Y-103751872D01*
X146809453Y-103327922D01*
X146644036Y-102928570D01*
X146403888Y-102569163D01*
X146098237Y-102263512D01*
X145738830Y-102023364D01*
X145339478Y-101857947D01*
X144915528Y-101773618D01*
X144483272Y-101773618D01*
X144059322Y-101857947D01*
X143659970Y-102023364D01*
X143300563Y-102263512D01*
X142994912Y-102569163D01*
X142754764Y-102928570D01*
X142589347Y-103327922D01*
X142505018Y-103751872D01*
X141884400Y-103751872D01*
X141884400Y-92001505D01*
X141893622Y-91907453D01*
X141911205Y-91849214D01*
X141939766Y-91795499D01*
X141978216Y-91748354D01*
X142025091Y-91709576D01*
X142078604Y-91680642D01*
X142136723Y-91662651D01*
X142228545Y-91653000D01*
X169733047Y-91653000D01*
X169762355Y-91650113D01*
X169768466Y-91650156D01*
X169777985Y-91649223D01*
X169972082Y-91628822D01*
X170032896Y-91616339D01*
X170093881Y-91604705D01*
X170103037Y-91601941D01*
X170289475Y-91544229D01*
X170346679Y-91520182D01*
X170404273Y-91496913D01*
X170412717Y-91492423D01*
X170584394Y-91399598D01*
X170635868Y-91364878D01*
X170687818Y-91330883D01*
X170695229Y-91324839D01*
X170845607Y-91200435D01*
X170889373Y-91156362D01*
X170933711Y-91112943D01*
X170939808Y-91105574D01*
X171063158Y-90954332D01*
X171097526Y-90902603D01*
X171132591Y-90851392D01*
X171137139Y-90842981D01*
X171137140Y-90842980D01*
X171137142Y-90842976D01*
X171228766Y-90670657D01*
X171252422Y-90613261D01*
X171276882Y-90556193D01*
X171279710Y-90547056D01*
X171336119Y-90360220D01*
X171348180Y-90299310D01*
X171361086Y-90238591D01*
X171362086Y-90229079D01*
X171381131Y-90034845D01*
X171381131Y-90034837D01*
X171384400Y-90001647D01*
X171384400Y-89492215D01*
X171408357Y-89153855D01*
X175509833Y-89153855D01*
X175509833Y-89782145D01*
X175632406Y-90398362D01*
X175872842Y-90978827D01*
X176221901Y-91501230D01*
X176666170Y-91945499D01*
X177188573Y-92294558D01*
X177769038Y-92534994D01*
X178385255Y-92657567D01*
X179013545Y-92657567D01*
X179629762Y-92534994D01*
X180210227Y-92294558D01*
X180732630Y-91945499D01*
X181176899Y-91501230D01*
X181525958Y-90978827D01*
X181766394Y-90398362D01*
X181888967Y-89782145D01*
X181888967Y-89153855D01*
X188249833Y-89153855D01*
X188249833Y-89782145D01*
X188372406Y-90398362D01*
X188612842Y-90978827D01*
X188961901Y-91501230D01*
X189406170Y-91945499D01*
X189928573Y-92294558D01*
X190509038Y-92534994D01*
X191125255Y-92657567D01*
X191753545Y-92657567D01*
X192369762Y-92534994D01*
X192950227Y-92294558D01*
X193472630Y-91945499D01*
X193916899Y-91501230D01*
X194265958Y-90978827D01*
X194506394Y-90398362D01*
X194628967Y-89782145D01*
X194628967Y-89153855D01*
X194506394Y-88537638D01*
X194265958Y-87957173D01*
X193916899Y-87434770D01*
X193472630Y-86990501D01*
X192950227Y-86641442D01*
X192369762Y-86401006D01*
X191753545Y-86278433D01*
X191125255Y-86278433D01*
X190509038Y-86401006D01*
X189928573Y-86641442D01*
X189406170Y-86990501D01*
X188961901Y-87434770D01*
X188612842Y-87957173D01*
X188372406Y-88537638D01*
X188249833Y-89153855D01*
X181888967Y-89153855D01*
X181766394Y-88537638D01*
X181525958Y-87957173D01*
X181176899Y-87434770D01*
X180732630Y-86990501D01*
X180210227Y-86641442D01*
X179629762Y-86401006D01*
X179013545Y-86278433D01*
X178385255Y-86278433D01*
X177769038Y-86401006D01*
X177188573Y-86641442D01*
X176666170Y-86990501D01*
X176221901Y-87434770D01*
X175872842Y-87957173D01*
X175632406Y-88537638D01*
X175509833Y-89153855D01*
X171408357Y-89153855D01*
X171459074Y-88437552D01*
X171676499Y-87427657D01*
X172034048Y-86458478D01*
X172524587Y-85549350D01*
X173138332Y-84718404D01*
X173863037Y-83982224D01*
X174684238Y-83355503D01*
X175585552Y-82850744D01*
X176549001Y-82478013D01*
X177555353Y-82244753D01*
X178606029Y-82153755D01*
X178702106Y-82153000D01*
X191415185Y-82153000D01*
X192469848Y-82227674D01*
G37*
G04 #@! TD.AperFunction*
M02*
