G04 #@! TF.GenerationSoftware,KiCad,Pcbnew,5.1.9+dfsg1-1+deb11u1*
G04 #@! TF.CreationDate,2023-05-29T16:56:05+09:00*
G04 #@! TF.ProjectId,top,746f702e-6b69-4636-9164-5f7063625858,rev?*
G04 #@! TF.SameCoordinates,Original*
G04 #@! TF.FileFunction,Profile,NP*
%FSLAX46Y46*%
G04 Gerber Fmt 4.6, Leading zero omitted, Abs format (unit mm)*
G04 Created by KiCad (PCBNEW 5.1.9+dfsg1-1+deb11u1) date 2023-05-29 16:56:05*
%MOMM*%
%LPD*%
G01*
G04 APERTURE LIST*
G04 #@! TA.AperFunction,Profile*
%ADD10C,0.100000*%
G04 #@! TD*
G04 APERTURE END LIST*
D10*
X191439400Y-81468000D02*
G75*
G02*
X199439400Y-89468000I0J-8000000D01*
G01*
X141199400Y-135968000D02*
X141199400Y-91968000D01*
X192199400Y-110968000D02*
G75*
G03*
X192199400Y-110968000I-2500000J0D01*
G01*
X146199400Y-123968000D02*
G75*
G03*
X146199400Y-123968000I-1500000J0D01*
G01*
X142199400Y-136968000D02*
G75*
G02*
X141199400Y-135968000I0J1000000D01*
G01*
X170699400Y-89968000D02*
X170699400Y-89468000D01*
X193939400Y-89468000D02*
G75*
G03*
X193939400Y-89468000I-2500000J0D01*
G01*
X166199400Y-123968000D02*
G75*
G03*
X166199400Y-123968000I-1500000J0D01*
G01*
X170699400Y-89468000D02*
G75*
G02*
X178699400Y-81468000I8000000J0D01*
G01*
X146199400Y-103968000D02*
G75*
G03*
X146199400Y-103968000I-1500000J0D01*
G01*
X181199400Y-89468000D02*
G75*
G03*
X181199400Y-89468000I-2500000J0D01*
G01*
X141199400Y-91968000D02*
G75*
G02*
X142199400Y-90968000I1000000J0D01*
G01*
X181199400Y-126968000D02*
G75*
G03*
X181199400Y-126968000I-2500000J0D01*
G01*
X178285190Y-136968000D02*
X142199400Y-136968000D01*
X142199400Y-90968000D02*
X169699400Y-90968000D01*
X178285189Y-136968000D02*
G75*
G02*
X178992296Y-137260893I1J-1000000D01*
G01*
X178992290Y-137260900D02*
X184060700Y-142329300D01*
X166199400Y-103968000D02*
G75*
G03*
X166199400Y-103968000I-1500000J0D01*
G01*
X199439400Y-89468000D02*
X199439400Y-135208000D01*
X170699400Y-89968000D02*
G75*
G02*
X169699400Y-90968000I-1000000J0D01*
G01*
X178699400Y-81468000D02*
X191439400Y-81468000D01*
X199439399Y-135208000D02*
G75*
G02*
X191439400Y-143207999I-7999999J0D01*
G01*
X193939400Y-135208000D02*
G75*
G03*
X193939400Y-135208000I-2500000J0D01*
G01*
X191439400Y-143208000D02*
X186182000Y-143208000D01*
X186181999Y-143208000D02*
G75*
G02*
X184060679Y-142329320I1J3000000D01*
G01*
M02*
